<?xml version="1.0" encoding="UTF-8" standalone="no"?>
<!DOCTYPE svg  PUBLIC '-//W3C//DTD SVG 1.1//EN'  'http://www.w3.org/Graphics/SVG/1.1/DTD/svg11.dtd'>
<svg xmlns="http://www.w3.org/2000/svg">
<defs>
<font id="LuzSans-Heavy" horiz-adv-x="863">
<font-face underline-position="-9" font-weight="400" descent="-200" panose-1="2 0 6 3 4 0 0 2 0 3" units-per-em="1000" unicode-range="U+0020-2122" bbox="-74 -273 1211 1004" x-height="503" underline-thickness="124" font-family="LuzSans" ascent="800" cap-height="754"/>
<missing-glyph horiz-adv-x="1000"/>
<glyph glyph-name=".notdef" horiz-adv-x="1000"/>
<glyph glyph-name=".null" horiz-adv-x="0"/>
<glyph glyph-name="nonmarkingreturn" horiz-adv-x="1000"/>
<glyph glyph-name="space" horiz-adv-x="259" unicode=" "/>
<glyph glyph-name="space" horiz-adv-x="259" unicode=" "/>
<glyph glyph-name="exclam" horiz-adv-x="364" unicode="!" d="M275 73q0 -18 -7.5 -34.5t-20 -29t-29 -19.5t-35.5 -7q-38 0 -64.5 26.5t-26.5 63.5q0 38 26.5 64.5t64.5 26.5t65 -26.5t27 -64.5zM110 243v511h142v-511h-142z"/>
<glyph glyph-name="quotedbl" horiz-adv-x="571" unicode='&quot;' d="M156 449l-98 2l114 305l142 -2zM380 449l-98 2l114 305l142 -2z"/>
<glyph glyph-name="numbersign" horiz-adv-x="718" unicode="#" d="M300 453q0 -2 -3.5 -27.5t-8.5 -55.5q-5 -35 -11 -78h140q6 43 11 78q5 30 8.5 55.5t3.5 27.5h-140zM664 453h-117q0 -1 -1.5 -14t-4 -30.5t-5.5 -38t-6 -38.5q-2 -16 -4 -28l-2 -12h115l-14 -100h-114l-27 -192h-108l27 192h-139l-27 -192h-108l27 192h-118l15 100h116 q6 43 11 78q5 30 8.5 55.5t3.5 27.5h-114l15 100h114q0 2 1.5 11.5t3.5 24t4 32.5t5 36q6 43 13 97h108q-8 -54 -14 -97q-3 -18 -5 -36t-4 -32.5t-3.5 -24t-1.5 -11.5h140q0 2 1.5 11.5t3.5 24t4 32.5t5 36q6 43 13 97h108q-8 -54 -14 -97q-3 -18 -5 -36t-4 -32.5t-3.5 -24 t-1.5 -11.5h117z"/>
<glyph glyph-name="dollar" horiz-adv-x="585" unicode="$" d="M543 230q0 -93 -52.5 -157t-146.5 -83v-112h-96v105q-68 3 -128 28.5t-108 76.5l75 119q47 -45 88 -66t89 -21q59 0 88.5 27t29.5 72q0 35 -24 55.5t-60.5 36t-79 30.5t-79 39.5t-60.5 62.5t-24 99q0 41 13.5 78.5t38.5 67.5t61 50.5t80 27.5v106h96v-104 q57 -5 102.5 -24.5t76.5 -48.5l-69 -125q-38 30 -73.5 46.5t-69.5 16.5q-47 0 -73 -23t-26 -56t24.5 -53t61.5 -35t79.5 -30.5t79.5 -40.5t61.5 -64t24.5 -101z"/>
<glyph glyph-name="percent" horiz-adv-x="834" unicode="%" d="M710 185q0 45 -21.5 77.5t-56.5 32.5q-36 0 -57.5 -31.5t-21.5 -77.5q0 -23 5.5 -43t16 -35t25 -23.5t32.5 -8.5q36 0 57 31t21 78zM280 567q0 46 -21.5 78t-56.5 32q-36 0 -58 -31t-22 -78q0 -22 5.5 -42t16 -35t25 -24t32.5 -9q35 0 57 31.5t22 77.5zM806 185 q0 -42 -13 -77.5t-36 -61.5t-55 -40.5t-71 -14.5t-70.5 14.5t-54.5 41t-35.5 62t-12.5 77.5t13 77.5t36 61.5t55 40.5t71 14.5t70.5 -15t54.5 -41t35.5 -61.5t12.5 -77.5zM240 -3l-88 3l440 758l88 -3zM376 567q0 -42 -13 -77.5t-36.5 -61.5t-55.5 -40.5t-71 -14.5t-70.5 15 t-54.5 41t-35.5 61.5t-12.5 77.5t13 77.5t36.5 61.5t55.5 41t71 15t70.5 -15t54.5 -41t35.5 -62t12.5 -78z"/>
<glyph glyph-name="ampersand" horiz-adv-x="732" unicode="&amp;" d="M268 340q-48 -26 -68.5 -54t-20.5 -70q0 -21 9.5 -40t25.5 -33t37.5 -22t45.5 -8q59 0 123 50zM412 580q0 32 -20 56.5t-52 24.5q-39 0 -60 -23t-21 -56q0 -27 15 -59.5t41 -56.5q97 46 97 114zM568 0l-63 71q-57 -46 -114 -67.5t-120 -21.5q-51 0 -94.5 16t-75.5 44.5 t-50 68t-18 86.5q0 71 37.5 125.5t126.5 97.5q-39 42 -57.5 80.5t-18.5 79.5q0 40 15 75t43 61t67.5 41t88.5 15q50 0 88 -15t63.5 -40t38.5 -58t13 -69q0 -64 -39 -114t-114 -85l130 -148q23 28 47.5 62t43.5 65l96 -72q-23 -37 -51 -75.5t-55 -68.5l137 -154h-165z"/>
<glyph glyph-name="quotesingle" horiz-adv-x="347" unicode="&apos;" d="M156 449l-98 2l114 305l142 -2z"/>
<glyph glyph-name="parenleft" horiz-adv-x="347" unicode="(" d="M255 -220q-44 44 -81 101t-64 122.5t-42 136.5t-15 144q0 72 15 143t42 136.5t64 122.5t81 101l98 -79q-38 -46 -68.5 -98.5t-51.5 -107.5t-32.5 -110t-11.5 -106q0 -108 41.5 -217t122.5 -210z"/>
<glyph glyph-name="parenright" horiz-adv-x="347" unicode=")" d="M281 284q0 -73 -15 -144t-42 -136.5t-64 -122.5t-81 -101l-97 79q81 101 122.5 210t41.5 217q0 107 -41 214t-123 208l97 79q44 -44 81 -101t64 -122.5t42 -136.5t15 -143z"/>
<glyph glyph-name="asterisk" horiz-adv-x="395" unicode="*" d="M326 460l-95 56l1 -110h-77l1 110l-95 -56l-38 67l96 54l-96 53l38 67l95 -56l-1 110h77l-1 -110l95 56l38 -67l-95 -53l95 -54z"/>
<glyph glyph-name="plus" horiz-adv-x="665" unicode="+" d="M392 317v-191h-123v191h-191v123h191v191h123v-191h191v-123h-191z"/>
<glyph glyph-name="comma" horiz-adv-x="333" unicode="," d="M75 90q0 35 24 58.5t59 23.5q44 0 70.5 -32.5t26.5 -79.5q0 -33 -11.5 -67.5t-31.5 -66.5t-46.5 -61t-57.5 -50l-52 41q36 32 63.5 74t34.5 84q-35 0 -57 22t-22 54z"/>
<glyph glyph-name="hyphen" horiz-adv-x="410" unicode="-" d="M50 259v123h310v-123h-310z"/>
<glyph glyph-name="period" horiz-adv-x="317" unicode="." d="M245 69q0 -18 -7 -33.5t-19 -27t-27.5 -18.5t-33.5 -7t-33.5 7t-27.5 18.5t-18.5 27t-6.5 33.5t6.5 33.5t18.5 27.5t27.5 19t33.5 7t33.5 -7t27.5 -19t19 -27.5t7 -33.5z"/>
<glyph glyph-name="slash" horiz-adv-x="531" unicode="/" d="M93 -242l-116 4l448 997l116 -3z"/>
<glyph glyph-name="zero" horiz-adv-x="669" unicode="0" d="M484 377q0 50 -10 96t-28.5 81.5t-45.5 57t-62 21.5q-36 0 -65 -20.5t-48.5 -56t-30 -82t-10.5 -97.5t9.5 -97.5t28.5 -82.5t46 -57t62 -21q36 0 65 20.5t48.5 55.5t30 82t10.5 100zM636 377q0 -80 -21.5 -151.5t-61.5 -125.5t-97 -85.5t-128 -31.5t-126.5 31.5t-93 85.5 t-57 125.5t-19.5 151.5q0 81 21.5 152.5t61.5 125t97 85t128 31.5t126 -31.5t92.5 -85t57.5 -125t20 -152.5z"/>
<glyph glyph-name="one" horiz-adv-x="415" unicode="1" d="M145 0v618h-111l6 136h263v-754h-158z"/>
<glyph glyph-name="two" horiz-adv-x="646" unicode="2" d="M587 522q0 -64 -28 -120.5t-85 -116.5l-143 -152h264v-133h-563l-1 2l300 325q30 32 50 59t32 50.5t17 45.5t5 44q0 48 -31 77.5t-86 29.5q-51 0 -80.5 -31.5t-29.5 -88.5v-12h-154v12q2 60 21 107.5t53 81t83 51.5t111 18t111.5 -18.5t83.5 -51.5t52 -78.5t18 -100.5z "/>
<glyph glyph-name="three" horiz-adv-x="626" unicode="3" d="M578 224q0 -52 -19 -96t-53.5 -76t-82 -50.5t-105.5 -18.5t-108.5 19t-87.5 51t-58.5 75.5t-23.5 92.5v11h159v-11q2 -44 32 -74t79 -30q51 0 82 29.5t31 83.5q0 51 -34.5 80.5t-91.5 29.5h-28v110h29q50 1 78.5 29t28.5 72q0 40 -27.5 66t-72.5 26q-46 0 -70.5 -25 t-25.5 -63v-12h-145v12q3 49 21 88.5t50 68t78 44t105 15.5q51 0 94.5 -16.5t75.5 -44.5t50 -65.5t18 -79.5q0 -51 -25 -92.5t-71 -67.5v-2q28 -11 50 -30.5t37 -43.5t23 -51t8 -54z"/>
<glyph glyph-name="four" horiz-adv-x="659" unicode="4" d="M378 541h-2l-183 -249v-1h185v250zM526 167v-167h-148v167h-349v94l361 500h136v-470h95v-124h-95z"/>
<glyph glyph-name="five" horiz-adv-x="615" unicode="5" d="M566 258q0 -56 -20.5 -106t-59 -87.5t-92.5 -59.5t-121 -22q-141 0 -246 84l35 136q29 -21 53 -36.5t47 -25.5t46 -14.5t49 -4.5q31 0 58 10t47 28.5t31.5 45t11.5 59.5q0 28 -12 51.5t-33.5 41t-52 27t-67.5 9.5q-47 0 -85 -10t-71 -25l-8 5l59 390h387v-134h-263 l-22 -116q27 9 69 9q60 0 108 -17.5t82 -50t52 -80t18 -107.5z"/>
<glyph glyph-name="six" horiz-adv-x="669" unicode="6" d="M482 255q0 30 -11.5 56.5t-31.5 47t-47 32t-58 11.5t-58 -11.5t-47.5 -32t-32 -47t-11.5 -56.5t11.5 -56.5t32 -47t47.5 -32t58 -11.5t58 11.5t47 32t31.5 47t11.5 56.5zM632 259q0 -57 -21.5 -107t-60.5 -87.5t-94 -59.5t-123 -22q-62 0 -116.5 20.5t-95 57t-64 87.5 t-23.5 112q0 66 26.5 126.5t74.5 123.5l182 245l170 -5l-200 -255l2 -2q20 11 43.5 17t49.5 6q56 0 102 -19t79 -53t51 -81.5t18 -103.5z"/>
<glyph glyph-name="seven" horiz-adv-x="603" unicode="7" d="M233 -1l-172 3l312 616h-340v136h566z"/>
<glyph glyph-name="eight" horiz-adv-x="627" unicode="8" d="M430 222q0 23 -9 43.5t-24.5 35.5t-36.5 24t-45 9t-44.5 -9t-35.5 -24t-24 -35.5t-9 -43.5t9 -43.5t24 -35.5t35.5 -23.5t44.5 -8.5t45 8.5t36.5 23.5t24.5 35.5t9 43.5zM422 548q0 21 -8 40.5t-22 33.5t-34 22.5t-43 8.5t-42.5 -8.5t-34 -22.5t-22.5 -33.5t-8 -40.5 t8 -40t22.5 -33.5t34 -22.5t42.5 -8t42.5 8t34 22.5t22.5 33.5t8 40zM582 198q0 -49 -20 -89t-55 -68t-84 -43t-108 -15q-58 0 -107 15t-84.5 43t-55 68t-19.5 89q0 67 31 115.5t94 74.5v2q-52 23 -81 70t-29 101q0 46 18.5 84.5t51.5 66.5t79.5 43.5t101.5 15.5 q56 0 102 -15.5t79.5 -43.5t52 -66.5t18.5 -84.5q0 -54 -29 -101t-81 -70v-2q63 -26 94 -74.5t31 -115.5z"/>
<glyph glyph-name="nine" horiz-adv-x="669" unicode="9" d="M484 499q0 30 -11.5 56.5t-32 46.5t-47.5 31.5t-58 11.5t-58 -11.5t-47 -31.5t-31.5 -46.5t-11.5 -56.5t11 -56.5t31 -47t47 -32t59 -11.5t59.5 11.5t47.5 32t31 47t11 56.5zM635 492q0 -65 -24 -122.5t-72 -120.5l-187 -250l-170 4l198 253l-2 2q-20 -10 -39.5 -14 t-45.5 -4q-55 0 -101.5 18.5t-81 52t-54 80.5t-19.5 103q0 60 22.5 111t62.5 87.5t95.5 57.5t122.5 21q63 0 117 -20.5t93.5 -57.5t62 -88.5t22.5 -112.5z"/>
<glyph glyph-name="colon" horiz-adv-x="333" unicode=":" d="M253 69q0 -18 -7 -33.5t-19 -27t-27.5 -18.5t-33.5 -7t-33.5 7t-27 18.5t-18.5 27t-7 33.5t7 33.5t18.5 27.5t27 19t33.5 7t33.5 -7t27.5 -19t19 -27.5t7 -33.5zM253 428q0 -18 -7 -33.5t-19 -27.5t-27.5 -19t-33.5 -7t-33.5 7t-27 19t-18.5 27.5t-7 33.5t7 34t18.5 27.5 t27 18.5t33.5 7t33.5 -7t27.5 -18.5t19 -27.5t7 -34z"/>
<glyph glyph-name="semicolon" horiz-adv-x="333" unicode=";" d="M75 90q0 35 24 58.5t59 23.5q44 0 70.5 -32.5t26.5 -79.5q0 -33 -11.5 -67.5t-31.5 -66.5t-47 -61t-58 -50l-51 41q36 32 63.5 74t34.5 84q-35 0 -57 22t-22 54zM254 428q0 -18 -7 -33.5t-18.5 -27.5t-27 -19t-33.5 -7t-33.5 7t-27.5 19t-19 27.5t-7 33.5t7 34t19 27.5 t27.5 18.5t33.5 7t33.5 -7t27 -18.5t18.5 -27.5t7 -34z"/>
<glyph glyph-name="less" horiz-adv-x="599" unicode="&lt;" d="M266 382l262 -166l-72 -101l-400 253v23l400 250l73 -100z"/>
<glyph glyph-name="equal" horiz-adv-x="665" unicode="=" d="M78 205v123h504v-123h-504zM78 427v124h504v-124h-504z"/>
<glyph glyph-name="greater" horiz-adv-x="605" unicode="&gt;" d="M135 115l-72 101l263 166l-263 159l72 100l401 -250v-23z"/>
<glyph glyph-name="question" horiz-adv-x="562" unicode="?" d="M345 73q0 -19 -7 -35.5t-19.5 -28.5t-29 -19t-35.5 -7q-38 0 -64.5 26t-26.5 64t26.5 64.5t64.5 26.5q19 0 35.5 -7t29 -19.5t19.5 -29t7 -35.5zM518 538q0 -45 -14.5 -82.5t-40.5 -66t-61.5 -47t-77.5 -25.5v-81h-146v180h26q35 0 65 8t52 23.5t34.5 38.5t12.5 52 q0 44 -28.5 73.5t-73.5 29.5q-40 0 -65 -21.5t-34 -53.5l-143 17q5 45 24.5 80t49.5 59t70 36.5t87 12.5q56 0 104 -18t83 -49t55.5 -73.5t20.5 -92.5z"/>
<glyph glyph-name="at" horiz-adv-x="886" unicode="@" d="M526 392q0 34 -23 58t-59 24q-25 0 -45.5 -9.5t-35 -25t-22.5 -36.5t-8 -44q0 -39 25.5 -62t62.5 -23q24 0 43.5 9.5t33 26t21 38t7.5 44.5zM847 420q0 -49 -14.5 -93t-40 -76.5t-60.5 -51.5t-76 -19q-45 0 -76.5 20.5t-41.5 60.5h-1q-22 -32 -58.5 -54t-87.5 -22 q-31 0 -60 11.5t-51 33t-35 52t-13 67.5q0 46 16.5 85.5t44.5 68t65 44.5t77 16t68 -17.5t42 -43.5h2l9 48h105l-36 -202q-3 -14 -3 -28q0 -20 8.5 -42t42.5 -22q26 0 45.5 13t33.5 35.5t21 53t7 64.5q0 56 -23.5 107.5t-66 90.5t-101.5 62.5t-130 23.5q-80 0 -144.5 -26.5 t-110 -73.5t-70 -110.5t-24.5 -138.5q0 -67 25 -124t70.5 -98.5t108.5 -64.5t139 -23q75 0 136 19t103 45v-72q-40 -23 -103 -39.5t-139 -16.5q-78 0 -151 24t-130 71.5t-91.5 117.5t-34.5 161q0 93 33.5 169t89.5 130.5t131 84.5t157 30q87 0 159.5 -27t124.5 -74.5 t80.5 -111.5t28.5 -138z"/>
<glyph glyph-name="A" horiz-adv-x="745" unicode="A" d="M372 537h-2l-97 -253h195zM575 0l-61 160h-288l-62 -160h-165l310 760h130l307 -760h-171z"/>
<glyph glyph-name="B" horiz-adv-x="623" unicode="B" d="M439 225q0 45 -31 72.5t-94 27.5h-88v-202h82q65 0 98 28t33 74zM401 540q0 42 -28 66t-84 24h-63v-184h69q51 0 78.5 26t27.5 68zM592 217q0 -48 -16 -87.5t-47.5 -68.5t-77 -45t-105.5 -16h-278v754h247q114 0 172.5 -51.5t58.5 -143.5q0 -51 -27.5 -92.5t-76.5 -64.5 v-2q31 -5 58 -21t47.5 -40.5t32.5 -55.5t12 -66z"/>
<glyph glyph-name="C" horiz-adv-x="665" unicode="C" d="M626 33q-48 -24 -94.5 -36.5t-94.5 -12.5q-95 0 -170 31t-127 84t-79.5 125t-27.5 154t28 153.5t79.5 125t125.5 84t167 30.5q52 0 100.5 -14t92.5 -37v-177l-2 -2q-35 40 -86 61.5t-105 21.5q-53 0 -96.5 -18t-75 -50.5t-49 -77.5t-17.5 -100q0 -53 18 -98.5t50.5 -79 t77 -52.5t96.5 -19q24 0 50.5 6t51.5 16.5t47 25t38 32.5l2 -2v-174z"/>
<glyph glyph-name="D" horiz-adv-x="727" unicode="D" d="M533 377q0 52 -16 96t-47 76.5t-76.5 50.5t-105.5 18h-62v-483h62q59 0 104.5 18t76.5 50.5t47.5 77t16.5 96.5zM697 377q0 -77 -29.5 -145.5t-81.5 -120t-123 -81.5t-153 -30h-242v754h242q82 0 153 -30t123 -81.5t81.5 -120t29.5 -145.5z"/>
<glyph glyph-name="E" horiz-adv-x="536" unicode="E" d="M68 0v754h411v-136h-253v-166h242v-128h-242v-189h253v-135h-411z"/>
<glyph glyph-name="F" horiz-adv-x="514" unicode="F" d="M226 618v-172h224v-135h-224v-311h-158v754h400v-136h-242z"/>
<glyph glyph-name="G" horiz-adv-x="832" unicode="G" d="M801 406q0 -40 -3 -77.5t-11 -72.5t-23 -68.5t-39 -66.5q-54 -72 -132 -105t-170 -33q-85 0 -157.5 31.5t-124.5 85.5t-81.5 124.5t-29.5 148.5q0 84 29.5 156.5t83 126t127 84.5t160.5 31q115 0 206 -49.5t145 -151.5l-139 -63q-41 65 -92.5 95t-123.5 30 q-51 0 -93.5 -20.5t-73 -55t-48 -81t-17.5 -98.5q0 -51 17.5 -97.5t48.5 -82t73.5 -56t92.5 -20.5q39 0 75 11t63.5 31.5t45 49.5t19.5 66h-195v127h367z"/>
<glyph glyph-name="H" horiz-adv-x="777" unicode="H" d="M554 0v329h-328v-329h-158v754h158v-299h328v299h158v-754h-158z"/>
<glyph glyph-name="I" horiz-adv-x="290" unicode="I" d="M68 0v754h158v-754h-158z"/>
<glyph glyph-name="J" horiz-adv-x="391" unicode="J" d="M344 190q0 -54 -15.5 -93.5t-43.5 -64.5t-66.5 -37t-84.5 -12q-76 0 -119 32l15 136q20 -16 42.5 -23.5t42.5 -7.5q35 0 52.5 20.5t17.5 68.5v545h159v-564z"/>
<glyph glyph-name="K" horiz-adv-x="685" unicode="K" d="M491 0l-258 335l-7 -5v-330h-158v754h158v-323h2l258 323h187l-303 -359l317 -395h-196z"/>
<glyph glyph-name="L" horiz-adv-x="473" unicode="L" d="M68 0v754h158v-619h237v-135h-395z"/>
<glyph glyph-name="M" horiz-adv-x="961" unicode="M" d="M785 0l-73 481h-2l-202 -487h-58l-195 487h-2l-80 -481h-157l137 760h144l184 -475l191 475h146l126 -760h-159z"/>
<glyph glyph-name="N" horiz-adv-x="849" unicode="N" d="M644 -6l-418 505h-2v-499h-156v756h137l418 -503h1v501h156v-760h-136z"/>
<glyph glyph-name="O" d="M671 377q0 53 -18.5 99.5t-50.5 81t-76.5 54.5t-96.5 20q-53 0 -96.5 -19t-75 -53t-48.5 -80.5t-17 -101.5q0 -53 18 -100t50 -82t76.5 -55t96.5 -20q53 0 96.5 19.5t75 53.5t49 81t17.5 102zM833 377q0 -82 -29.5 -154t-82.5 -125t-126.5 -84t-161.5 -31q-89 0 -163 31 t-127.5 84.5t-83 125.5t-29.5 154t29.5 153.5t82 125t126 84t161.5 30.5t162 -31t128 -84t84 -125t30 -154z" unicode="O"/>
<glyph glyph-name="P" horiz-adv-x="613" unicode="P" d="M421 515q0 52 -33 80.5t-109 28.5h-53v-218h53q76 0 109 28.5t33 80.5zM579 515q0 -54 -17.5 -98t-50 -75t-79.5 -48t-107 -17h-99v-277h-158v754h256q60 0 107 -17t80 -48.5t50.5 -75.5t17.5 -98z"/>
<glyph glyph-name="Q" d="M671 377q0 53 -18.5 99.5t-50.5 81t-76.5 54.5t-96.5 20q-53 0 -96.5 -19t-75 -53t-48.5 -80.5t-17 -101.5q0 -53 18 -100t50 -82t76.5 -55t96.5 -20q30 0 58 7.5t51 20.5l-156 166h168l76 -81q19 29 30 65.5t11 77.5zM833 377q0 -75 -24 -141t-69 -117l128 -133h-169 l-53 54q-45 -28 -99 -42.5t-114 -14.5q-89 0 -163 31t-127.5 84.5t-83 125.5t-29.5 154t29.5 153.5t82 125t126 84t161.5 30.5t162 -31t128 -84t84 -125t30 -154z" unicode="Q"/>
<glyph glyph-name="R" horiz-adv-x="622" unicode="R" d="M405 521q0 54 -33.5 81.5t-109.5 27.5h-36v-218h40q70 0 104.5 28.5t34.5 80.5zM446 0l-211 307h-9v-307h-158v754h238q129 0 196.5 -61t67.5 -163q0 -36 -12 -70.5t-34.5 -62.5t-55 -48t-73.5 -28l235 -321h-184z"/>
<glyph glyph-name="S" horiz-adv-x="577" unicode="S" d="M543 230q0 -54 -18.5 -99.5t-54 -78.5t-86 -51t-114.5 -18q-75 0 -139.5 25t-119.5 78l76 120q47 -44 88 -65.5t90 -21.5q57 0 87 28t30 68q0 32 -24.5 56.5t-81.5 47.5l-54 23q-86 32 -125.5 81t-39.5 119q0 47 17.5 88.5t49.5 72.5t76 49t98 18q71 0 128.5 -20.5 t95.5 -55.5l-68 -125q-38 29 -74 46t-71 17q-44 0 -69.5 -21.5t-25.5 -55.5q0 -32 24.5 -53t88.5 -46l58 -23q82 -33 120 -81.5t38 -121.5z"/>
<glyph glyph-name="T" horiz-adv-x="534" unicode="T" d="M341 618v-618h-158v618h-171v136h499v-136h-170z"/>
<glyph glyph-name="U" horiz-adv-x="744" unicode="U" d="M684 291q0 -71 -19 -129t-58 -98.5t-97 -62.5t-136 -22t-136.5 22t-97.5 62.5t-58 98.5t-19 129v463h159v-433q0 -56 9 -95t28.5 -63t49 -35t70.5 -11q40 0 68 11t45.5 35t25.5 63t8 95v433h158v-463z"/>
<glyph glyph-name="V" horiz-adv-x="723" unicode="V" d="M401 -6h-84l-326 760h173l198 -503h2l200 503h169z"/>
<glyph glyph-name="W" horiz-adv-x="1053" unicode="W" d="M826 -6h-150l-146 497h-2l-160 -497h-149l-227 760h163l147 -526h2l166 529h117l159 -529h2l154 526h164z"/>
<glyph glyph-name="X" horiz-adv-x="692" unicode="X" d="M499 0l-156 259h-2l-162 -259h-179l255 380l-247 374h189l148 -252h2l154 252h186l-255 -374l251 -380h-184z"/>
<glyph glyph-name="Y" horiz-adv-x="676" unicode="Y" d="M417 304v-304h-158v304l-270 450h185l164 -299h2l162 299h185z"/>
<glyph glyph-name="Z" horiz-adv-x="671" unicode="Z" d="M278 135h350v-135h-617l383 618h-327v136h593z"/>
<glyph glyph-name="bracketleft" horiz-adv-x="352" unicode="[" d="M55 -226v1006h249v-120h-113v-765h113v-121h-249z"/>
<glyph glyph-name="backslash" horiz-adv-x="516" unicode="\" d="M424 -242l-448 998l116 3l449 -997z"/>
<glyph glyph-name="bracketright" horiz-adv-x="352" unicode="]" d="M47 -226v121h113v765h-113v120h249v-1006h-249z"/>
<glyph glyph-name="underscore" horiz-adv-x="500" unicode="_" d="M50 -188v124h400v-124h-400z"/>
<glyph glyph-name="grave" horiz-adv-x="334" unicode="`" d="M183 591l-150 173h166l98 -173h-114z"/>
<glyph glyph-name="a" horiz-adv-x="645" unicode="a" d="M447 253q0 28 -9.5 53.5t-27.5 45t-43.5 31.5t-57.5 12q-31 0 -57 -12t-44 -31.5t-28 -45.5t-10 -55q0 -28 10 -54t28.5 -46t44.5 -31.5t57 -11.5q32 0 57.5 12t43 32t27 46t9.5 55zM442 0v62h-2q-20 -34 -65 -55.5t-101 -21.5q-47 0 -91 19t-77.5 53.5t-53.5 84 t-20 110.5q0 54 19 102.5t52.5 84.5t79 57.5t97.5 21.5t93 -18.5t67 -53.5h2v57h147v-503h-147z"/>
<glyph glyph-name="b" horiz-adv-x="639" unicode="b" d="M474 251q0 29 -10 55t-28 45.5t-43.5 31.5t-57.5 12q-31 0 -56.5 -12t-43.5 -31.5t-28 -45t-10 -53.5q0 -29 9.5 -55t27 -46t43 -32t57.5 -12t57.5 11.5t44 31.5t28.5 46t10 54zM613 260q0 -61 -20 -111.5t-53.5 -87t-77.5 -56.5t-92 -20q-56 0 -99 20.5t-66 56.5h-2v-62 h-148v828h148v-382h2q26 34 70.5 53t96.5 19q53 0 97 -20t76 -55t50 -82t18 -101z"/>
<glyph glyph-name="c" horiz-adv-x="475" unicode="c" d="M441 21q-32 -18 -65.5 -27t-75.5 -9q-58 0 -108 19t-87.5 53.5t-59 84t-21.5 109.5q0 59 20.5 108t57.5 84t88 55t112 20q41 0 75 -10t62 -27v-137q-22 20 -56.5 35.5t-71.5 15.5q-64 0 -106 -37.5t-42 -102.5q0 -32 11.5 -58.5t32 -45.5t48 -29.5t59.5 -10.5 q38 0 71.5 13.5t55.5 33.5v-137z"/>
<glyph glyph-name="d" horiz-adv-x="652" unicode="d" d="M450 253q0 26 -10 50.5t-28 43.5t-43 31t-55 12q-31 0 -56 -11t-42 -29.5t-26 -44t-9 -54.5q0 -28 9 -53.5t26.5 -44.5t42.5 -30t56 -11q32 0 57.5 11t42.5 30.5t26 45t9 54.5zM446 0v71h-2q-24 -40 -68.5 -63t-96.5 -23q-54 0 -99.5 20t-78.5 55t-52 82.5t-19 103.5 q0 54 18.5 103.5t51.5 87t79 59.5t102 22q47 0 90.5 -19.5t72.5 -55.5h2v385h148v-828h-148z"/>
<glyph glyph-name="e" horiz-adv-x="586" unicode="e" d="M421 306q-8 48 -39.5 77t-82.5 29q-53 0 -86.5 -29t-42.5 -77h251zM169 222q4 -63 42.5 -94.5t92.5 -31.5q43 0 73 18t47 45l131 -5q-12 -41 -37 -72.5t-58.5 -53t-73 -32.5t-81.5 -11q-61 0 -112.5 18t-89 52t-58.5 83t-21 111q0 60 20 110t56 85t85.5 54.5t109.5 19.5 q128 0 198 -76t70 -212v-8h-394z"/>
<glyph glyph-name="f" horiz-adv-x="355" unicode="f" d="M225 380v-380h-147v380h-61v123h61v131q0 53 15.5 91.5t42.5 63.5t63 37.5t77 12.5q17 0 38 -3.5t36 -11.5v-130q-12 7 -26 11.5t-30 4.5q-35 0 -52 -22t-17 -73v-112h125v-123h-125z"/>
<glyph glyph-name="g" horiz-adv-x="645" unicode="g" d="M447 253q0 28 -9.5 53.5t-27.5 45t-43.5 31.5t-57.5 12q-31 0 -57 -12t-44 -31.5t-28 -45.5t-10 -55q0 -28 10 -54t28.5 -46t44.5 -31.5t57 -11.5q32 0 57.5 12t43 32t27 46t9.5 55zM589 39q0 -77 -21 -133.5t-58.5 -93t-89 -54.5t-113.5 -18q-52 0 -98 12t-81.5 37.5 t-58.5 63.5t-30 91h149q7 -42 42 -64.5t83 -22.5q67 0 98 44.5t31 129.5v31h-2q-20 -34 -65 -55.5t-101 -21.5q-47 0 -91 19t-77.5 53.5t-53.5 84t-20 110.5q0 54 19 102.5t52.5 84.5t79 57.5t97.5 21.5t93 -18.5t67 -53.5h2v57h147v-464z"/>
<glyph glyph-name="h" horiz-adv-x="616" unicode="h" d="M407 0v273q0 25 -3.5 48t-14 40.5t-29 28t-48.5 10.5q-28 0 -47.5 -11.5t-31.5 -31t-17.5 -44.5t-5.5 -52v-261h-147v828h147v-391h2q29 41 67.5 61t91.5 20q91 0 137.5 -56t46.5 -150v-312h-148z"/>
<glyph glyph-name="i" horiz-adv-x="278" unicode="i" d="M65 0v503h148v-503h-148zM220 678q0 -16 -6.5 -30.5t-18 -25.5t-26 -17.5t-30.5 -6.5t-31 6.5t-26 17.5t-17.5 25.5t-6.5 30.5q0 33 24 57t57 24q16 0 30.5 -6.5t26 -17.5t18 -25.5t6.5 -31.5z"/>
<glyph glyph-name="j" horiz-adv-x="278" unicode="j" d="M213 -50q0 -50 -15.5 -89t-42.5 -66t-63 -41t-78 -14q-17 0 -37 3.5t-36 11.5v128q14 -5 28 -9.5t30 -4.5q36 0 51 22.5t15 72.5v539h148v-553zM220 678q0 -16 -6.5 -30.5t-18 -25.5t-26 -17.5t-30.5 -6.5t-31 6.5t-26 17.5t-17.5 25.5t-6.5 30.5q0 33 24 57t57 24 q16 0 30.5 -6.5t26 -17.5t18 -25.5t6.5 -31.5z"/>
<glyph glyph-name="k" horiz-adv-x="565" unicode="k" d="M391 0l-176 217l-7 -6v-211h-147v828h147v-514l176 189h176l-228 -229l238 -274h-179z"/>
<glyph glyph-name="l" horiz-adv-x="278" unicode="l" d="M65 0v828h148v-828h-148z"/>
<glyph glyph-name="m" horiz-adv-x="921" unicode="m" d="M713 0v276q0 63 -17.5 93.5t-66.5 30.5q-54 0 -74 -33.5t-20 -98.5v-268h-147v271q0 65 -17.5 98.5t-70.5 33.5t-71.5 -35.5t-18.5 -105.5v-262h-147v503h147v-63h2q54 78 151 78q52 0 93 -23t67 -72q24 46 69 70.5t96 24.5q45 0 77.5 -14.5t53.5 -40t31 -61.5t10 -79 v-323h-147z"/>
<glyph glyph-name="n" horiz-adv-x="599" unicode="n" d="M399 0v264q0 22 -2 46t-10.5 44t-27 33t-51.5 13q-28 0 -48 -11t-33 -29.5t-18.5 -43.5t-5.5 -53v-263h-148v503h148v-67h2q26 40 69 61t97 21q87 0 131 -53t44 -150v-315h-147z"/>
<glyph glyph-name="o" horiz-adv-x="608" unicode="o" d="M444 251q0 29 -9.5 55.5t-27.5 46t-44 31t-58 11.5t-58.5 -11.5t-45 -31t-28.5 -45.5t-10 -56q0 -29 9.5 -55t27 -45.5t43.5 -31t59 -11.5t59.5 11t45 30.5t28 45.5t9.5 56zM583 251q0 -56 -20 -104.5t-56.5 -84.5t-88.5 -56.5t-116 -20.5t-115.5 20.5t-87.5 56.5 t-55.5 84.5t-19.5 104.5q0 59 20 108.5t57 84.5t89 54.5t115 19.5q65 0 116.5 -20.5t87.5 -56.5t55 -85t19 -105z"/>
<glyph glyph-name="p" horiz-adv-x="639" unicode="p" d="M474 251q0 28 -10 54t-28.5 45.5t-44 31.5t-56.5 12t-56.5 -11.5t-43.5 -31t-28 -45t-10 -53.5q0 -29 9.5 -55t27 -46t43 -32t57.5 -12t57.5 11.5t44 31.5t28.5 46t10 54zM613 260q0 -61 -20 -111.5t-53.5 -87t-77.5 -56.5t-92 -20q-56 0 -99 20t-66 55h-2v-321h-148v764 h148v-56h2q27 33 71 52t96 19q53 0 97 -20t76 -55t50 -82t18 -101z"/>
<glyph glyph-name="q" horiz-adv-x="652" unicode="q" d="M450 253q0 26 -10 50.5t-28 43.5t-43 31t-55 12q-31 0 -55.5 -11t-41.5 -30t-26 -44.5t-9 -53.5q0 -29 9 -54.5t26 -44t42 -29.5t56 -11q32 0 57.5 11t42.5 30.5t26 45t9 54.5zM446 -261v332h-2q-23 -41 -68.5 -63.5t-96.5 -22.5t-96.5 19t-79.5 53.5t-53.5 82.5 t-19.5 106q0 54 18.5 103.5t51.5 87t79 59.5t102 22q47 0 91 -19t72 -56h2v60h148v-764h-148z"/>
<glyph glyph-name="r" horiz-adv-x="410" unicode="r" d="M388 364q-35 16 -74 16q-62 0 -86.5 -42t-24.5 -120v-218h-148v503h148v-79h3q22 42 60.5 65t89.5 23q10 0 19 -1t18 -3z"/>
<glyph glyph-name="s" horiz-adv-x="451" unicode="s" d="M424 160q0 -41 -16.5 -73.5t-44 -55t-65 -34.5t-79.5 -12q-61 0 -115 20t-94 55l61 96q25 -25 65.5 -42.5t77.5 -17.5q33 0 51 14.5t18 37.5q0 20 -17.5 32t-43.5 21.5t-56.5 20t-56.5 27t-43.5 43t-17.5 67.5q0 36 15 65t41 50t61.5 32.5t77.5 11.5q53 0 90.5 -12.5 t71.5 -34.5l-54 -97q-21 15 -46 25.5t-50 10.5q-30 0 -48 -14t-18 -35q0 -17 17.5 -27t43.5 -19t56.5 -19t56.5 -27t43.5 -42.5t17.5 -66.5z"/>
<glyph glyph-name="t" horiz-adv-x="338" unicode="t" d="M230 380v-380h-148v380h-57v123h57v157h148v-157h98v-123h-98z"/>
<glyph glyph-name="u" horiz-adv-x="603" unicode="u" d="M548 219q0 -59 -17.5 -103t-50 -73t-78 -43.5t-101.5 -14.5q-57 0 -102.5 15t-77.5 44.5t-49.5 73t-17.5 101.5v284h148v-264q0 -29 4 -53.5t15 -42.5t30.5 -28t50.5 -10t50 10t30 27.5t15 42t4 54.5v264h147v-284z"/>
<glyph glyph-name="v" horiz-adv-x="547" unicode="v" d="M317 -6h-87l-241 509h162l126 -306h2l125 306h155z"/>
<glyph glyph-name="w" horiz-adv-x="824" unicode="w" d="M635 -6h-105l-118 308l-115 -308h-109l-199 509h156l105 -307h2l116 310h89l116 -310h1l106 307h156z"/>
<glyph glyph-name="x" horiz-adv-x="554" unicode="x" d="M382 0l-109 156h-2l-109 -156h-163l195 253l-192 250h173l105 -152h2l106 152h164l-193 -249l197 -254h-174z"/>
<glyph glyph-name="y" horiz-adv-x="589" unicode="y" d="M226 -261h-153l149 309l-236 455h169l146 -308h1l138 308h160z"/>
<glyph glyph-name="z" horiz-adv-x="531" unicode="z" d="M253 122h251v-122h-497l270 380h-236v123h481z"/>
<glyph glyph-name="braceleft" horiz-adv-x="338" unicode="{" d="M300 -228q-97 0 -150 45.5t-53 133.5v176q0 42 -19 65t-51 23v123q32 0 51 23.5t19 65.5v177q0 87 53 132t150 45v-121q-36 0 -51.5 -20.5t-15.5 -75.5v-172q0 -50 -21.5 -77.5t-66.5 -36.5v-2q45 -9 66.5 -36.5t21.5 -77.5v-171q0 -55 15.5 -76t51.5 -21v-122z"/>
<glyph glyph-name="bar" horiz-adv-x="319" unicode="|" d="M97 -243v1015h125v-1015h-125z"/>
<glyph glyph-name="braceright" horiz-adv-x="338" unicode="}" d="M309 215q-32 0 -51 -23t-19 -65v-176q0 -88 -52.5 -133.5t-149.5 -45.5v122q36 0 51 21t15 76v171q0 50 21.5 77.5t66.5 36.5v2q-45 9 -66.5 36.5t-21.5 77.5v172q0 55 -15 75.5t-51 20.5v121q97 0 149.5 -45t52.5 -132v-177q0 -42 19 -65.5t51 -23.5v-123z"/>
<glyph glyph-name="asciitilde" horiz-adv-x="521" unicode="~" d="M455 448q0 -76 -33.5 -108.5t-90.5 -32.5q-18 0 -36.5 6t-36.5 13.5t-35 13.5t-32 6q-19 0 -28 -10.5t-9 -28.5h-88q0 75 33.5 107.5t90.5 32.5q18 0 37 -6t37 -13.5t35 -13.5t32 -6q19 0 28 11t9 29h87z"/>
<glyph glyph-name="exclamdown" horiz-adv-x="364" unicode="¡" d="M111 -255v509h143v-509h-143zM272 424q0 -38 -27 -64.5t-65 -26.5t-64.5 26.5t-26.5 64.5t26.5 65t64.5 27t65 -27t27 -65z"/>
<glyph glyph-name="cent" horiz-adv-x="524" unicode="¢" d="M467 151q-26 -15 -53 -24t-59 -11v-105h-95v110q-45 10 -83.5 32.5t-66.5 56.5t-44 77t-16 94q0 50 15.5 93.5t43.5 77t67.5 57t86.5 32.5v102h95v-97q62 -5 107 -34v-138q-23 20 -57 34.5t-71 14.5q-64 0 -105.5 -36.5t-41.5 -101.5q0 -31 11.5 -57.5t31.5 -45t47.5 -29 t59.5 -10.5q39 0 72 13.5t55 33.5v-139z"/>
<glyph glyph-name="sterling" horiz-adv-x="621" unicode="£" d="M617 56q-36 -38 -79.5 -55.5t-92.5 -17.5q-41 0 -68 5.5t-52 12t-54.5 12t-74.5 5.5q-21 0 -51.5 -6.5t-65.5 -21.5l-51 124q78 40 115 79.5t38 90.5h-135v81h116q-7 18 -20 37.5t-26 41.5q-15 27 -24 53t-9 62q0 41 19 79.5t52.5 68t78 47t95.5 17.5q59 0 103.5 -16 t75.5 -45t47.5 -69t18.5 -88v-12h-144v12q0 38 -26.5 64t-73.5 26q-45 0 -74 -27.5t-29 -65.5q0 -31 8.5 -53t27.5 -52q16 -23 29.5 -43t19.5 -37h147v-81h-131q-1 -45 -24 -78t-70 -65q42 0 67 -4.5t44 -10t37 -10t46 -4.5q38 0 73 15t63 43z"/>
<glyph glyph-name="currency" horiz-adv-x="559" unicode="¤" d="M461 516l-19 130h-3l-48 -131h-35l-45 131h-3l-20 -130h-60l44 238h53l49 -129l53 129h54l40 -238h-60zM207 591q0 -35 -24 -57.5t-66 -22.5q-23 0 -43 7.5t-40 24.5l25 47q33 -27 57 -27q15 0 22.5 6.5t7.5 16.5q0 15 -29 27l-16 6q-29 11 -41 27t-12 37q0 31 22 53 t57 22q23 0 41.5 -6t32.5 -17l-23 -47q-14 10 -26 14t-21 4q-11 0 -17.5 -5t-6.5 -13t7 -13t24 -12l18 -8q51 -19 51 -64z"/>
<glyph glyph-name="yen" horiz-adv-x="719" unicode="¥" d="M491 385h153v-96h-202v-67h202v-96h-202v-126h-158v126h-201v96h201v67h-201v96h152l-222 369h186l164 -299h2l161 299h186z"/>
<glyph glyph-name="section" horiz-adv-x="582" unicode="§" d="M387 276q0 38 -25 64.5t-66 26.5q-40 0 -64.5 -26.5t-24.5 -64.5q0 -37 23.5 -63.5t65.5 -26.5t66.5 26t24.5 64zM522 299q0 -62 -29.5 -105.5t-80.5 -68.5q49 -23 72 -60.5t23 -95.5q0 -38 -16.5 -72t-47 -60.5t-73.5 -42t-96 -15.5q-63 0 -122 20t-107 58l66 111 q37 -29 77.5 -46t78.5 -17q45 0 68 18.5t23 50.5q0 25 -21.5 42t-53.5 31.5t-69.5 30t-69.5 38.5t-53.5 57t-21.5 85q0 59 29.5 102.5t85.5 66.5q-49 24 -77.5 60t-28.5 90q0 41 16.5 76.5t46 61.5t70 41t89.5 15q61 0 110 -16.5t85 -45.5l-60 -111q-29 23 -61.5 36 t-61.5 13q-39 0 -62 -18t-23 -47q0 -24 22 -40.5t54.5 -30.5t71 -30t71 -39t54.5 -57t22 -86z"/>
<glyph glyph-name="dieresis" horiz-adv-x="514" unicode="¨" d="M220 678q0 -16 -6.5 -30.5t-17.5 -25.5t-25.5 -17.5t-31.5 -6.5q-16 0 -31 6.5t-26 17.5t-17.5 25.5t-6.5 30.5q0 33 24 57t57 24t57 -24t24 -57zM455 678q0 -16 -6.5 -30.5t-17.5 -25.5t-25.5 -17.5t-31.5 -6.5q-16 0 -31 6.5t-26 17.5t-17.5 25.5t-6.5 30.5q0 33 24 57 t57 24t57 -24t24 -57z"/>
<glyph glyph-name="copyright" horiz-adv-x="850" unicode="©" d="M557 188q-27 -14 -53.5 -21.5t-53.5 -7.5q-53 0 -95 17.5t-71.5 47.5t-45 70.5t-15.5 86.5t16 86.5t45 70.5t70.5 47.5t93.5 17.5q29 0 57 -8t52 -22v-100l-1 -1q-19 22 -47.5 34.5t-59.5 12.5q-60 0 -97 -38t-37 -100q0 -30 10 -55.5t28 -44t43 -29t55 -10.5 q28 0 58 12.5t47 32.5h1v-99zM776 377q0 72 -26.5 134.5t-73 109.5t-111 74t-141.5 27t-141 -27t-110.5 -73.5t-72.5 -109.5t-26 -135t26.5 -135t73 -110t111.5 -74t141 -27q77 0 141 27t110.5 73.5t72.5 109.5t26 136zM827 377q0 -82 -29.5 -154t-82.5 -125t-126.5 -84 t-161.5 -31t-162.5 31t-127.5 84.5t-83 125.5t-30 154t29.5 153.5t82.5 125t126.5 84t161.5 30.5t162 -31t127.5 -84t83.5 -125t30 -154z"/>
<glyph glyph-name="ordfeminine" horiz-adv-x="503" unicode="ª" d="M336 569q0 19 -7 37t-19.5 31.5t-30 21.5t-38.5 8t-38.5 -8t-30 -22t-19.5 -31.5t-7 -37.5q0 -19 7 -36.5t19.5 -30.5t30.5 -21t39 -8q44 0 69 29t25 68zM335 378v44h-1q-15 -25 -47 -40.5t-74 -15.5q-35 0 -68.5 14.5t-59.5 41t-41.5 64.5t-15.5 84q0 41 15 77.5 t40.5 64.5t60 44t74.5 16q79 0 116 -51h1v40h120v-383h-120z"/>
<glyph glyph-name="guillemotleft" horiz-adv-x="543" unicode="«" d="M193 28l-165 227l165 226l82 -58l-125 -168l127 -166zM409 28l-165 227l165 226l82 -58l-125 -168l127 -166z"/>
<glyph glyph-name="logicalnot" horiz-adv-x="338" unicode="¬" d="M309 312q-32 0 -51 -23.5t-19 -65.5v-176q0 -88 -52.5 -133t-149.5 -45v121q36 1 51 21.5t15 75.5v172q0 50 21.5 77.5t66.5 36.5v2q-45 10 -66.5 36.5t-21.5 76.5v172q0 55 -15 76t-51 21v121q97 0 149.5 -45.5t52.5 -132.5v-176q0 -42 19 -65.5t51 -23.5v-123z"/>
<glyph glyph-name="minus" horiz-adv-x="669" unicode="­" d="M78 275v123h512v-123h-512z"/>
<glyph glyph-name="registered" horiz-adv-x="850" unicode="®" d="M480 462q0 31 -19 45.5t-61 14.5h-17v-119h20q77 0 77 59zM504 168l-119 173h-2v-173h-90v425h132q72 0 110.5 -34t38.5 -92q0 -41 -26 -74.5t-72 -42.5l132 -182h-104zM776 377q0 72 -26.5 134.5t-73 109.5t-111 74t-141.5 27t-141 -27t-110.5 -73.5t-72.5 -109.5 t-26 -135t26.5 -135t73 -110t111.5 -74t141 -27q77 0 141 27t110.5 73.5t72.5 109.5t26 136zM827 377q0 -82 -29.5 -154t-82.5 -125t-126.5 -84t-161.5 -31t-162.5 31t-127.5 84.5t-83 125.5t-30 154t29.5 153.5t82.5 125t126.5 84t161.5 30.5t162 -31t127.5 -84t83.5 -125 t30 -154z"/>
<glyph glyph-name="macron" horiz-adv-x="565" unicode="¯" d="M75 632v100h414v-100h-414z"/>
<glyph glyph-name="degree" horiz-adv-x="400" unicode="°" d="M271 621q0 29 -21 50.5t-51 21.5q-15 0 -27.5 -6t-22.5 -16t-15.5 -23t-5.5 -27q0 -30 21 -51t51 -21q29 0 50 21t21 51zM350 620q0 -31 -12 -58t-32.5 -47t-48 -32t-58.5 -12t-58 12t-47.5 32t-32 47t-11.5 58t11.5 58.5t31.5 48t47.5 32.5t58.5 12t58.5 -12t48 -32.5 t32.5 -48t12 -58.5z"/>
<glyph glyph-name="plusminus" horiz-adv-x="500" unicode="±" d="M50 315v123h400v-123h-400z"/>
<glyph glyph-name="acute" horiz-adv-x="334" unicode="´" d="M158 591h-114l98 173h166z"/>
<glyph glyph-name="mu" horiz-adv-x="673" unicode="µ" d="M663 503v-123h-98v-380h-148v380h-192v-380h-147v380h-61v123h61v114q0 50 16.5 91t47.5 70t76.5 45t103.5 16t103.5 -16t76.5 -45t47 -70t16 -92v-113h98zM417 614q0 45 -25.5 71.5t-70.5 26.5t-70.5 -26t-25.5 -74v-109h192v111z"/>
<glyph glyph-name="paragraph" horiz-adv-x="672" unicode="¶" d="M494 0v665h-90v-665h-88v277q-57 1 -102.5 18.5t-77 48.5t-48 74.5t-16.5 96.5q0 54 17.5 98t50 75.5t79.5 48.5t107 17h257v-754h-89z"/>
<glyph glyph-name="cedilla" horiz-adv-x="263" unicode="¸" d="M80 -236l-75 47l120 154l94 -61z"/>
<glyph glyph-name="ordmasculine" horiz-adv-x="481" unicode="º" d="M337 570q0 41 -26 69t-70 28q-45 0 -71 -28t-26 -69q0 -42 25.5 -70t69.5 -28q47 0 72.5 28t25.5 70zM454 570q0 -44 -15 -81.5t-43 -64.5t-68 -42.5t-89 -15.5t-88 15.5t-66.5 42.5t-42.5 64.5t-15 81.5q0 46 15.5 83.5t43.5 63.5t67.5 40.5t87.5 14.5q50 0 89 -15 t67 -42t42.5 -64t14.5 -81z"/>
<glyph glyph-name="guillemotright" horiz-adv-x="543" unicode="»" d="M133 28l-84 61l127 166l-125 168l82 58l165 -226zM349 28l-84 61l127 166l-125 168l82 58l165 -226z"/>
<glyph glyph-name="questiondown" horiz-adv-x="486" unicode="¿" d="M511 -85q-5 -45 -24.5 -80t-49.5 -59t-70 -36.5t-87 -12.5q-55 0 -103.5 17.5t-83.5 49t-55.5 73.5t-20.5 92q0 45 14.5 82.5t40.5 66t61.5 47t77.5 25.5v80h146v-179h-26q-35 0 -65 -8t-52 -23.5t-34.5 -38t-12.5 -51.5q0 -44 29 -73.5t74 -29.5q40 0 64.5 21t33.5 53z M372 424q0 -19 -7 -35.5t-19.5 -29t-29 -20t-35.5 -7.5t-35.5 7.5t-29 20t-19.5 29t-7 35.5t7 35.5t19.5 29t29 19.5t35.5 7t35.5 -7t29 -19.5t19.5 -29t7 -35.5z"/>
<glyph glyph-name="Agrave" horiz-adv-x="745" unicode="À" d="M332 823l-149 174h165l99 -174h-115zM372 537h-2l-97 -253h195zM575 0l-61 160h-288l-62 -160h-165l310 760h130l307 -760h-171z"/>
<glyph glyph-name="Aacute" horiz-adv-x="745" unicode="Á" d="M420 823h-114l98 174h166zM372 537h-2l-97 -253h195zM575 0l-61 160h-288l-62 -160h-165l310 760h130l307 -760h-171z"/>
<glyph glyph-name="Acircumflex" horiz-adv-x="745" unicode="Â" d="M451 821l-79 98l-80 -98h-133l149 181h130l149 -181h-136zM372 537h-2l-97 -253h195zM575 0l-61 160h-288l-62 -160h-165l310 760h130l307 -760h-171z"/>
<glyph glyph-name="Atilde" horiz-adv-x="745" unicode="Ã" d="M583 989q0 -82 -35.5 -117.5t-98.5 -35.5q-19 0 -39 6.5t-39.5 14.5t-37.5 14.5t-34 6.5q-20 0 -30 -11t-10 -30h-96q0 81 36 116.5t99 35.5q20 0 40 -6.5t39.5 -15t37.5 -15t34 -6.5q20 0 29.5 11.5t9.5 31.5h95zM372 537h-2l-97 -253h195zM575 0l-61 160h-288l-62 -160 h-165l310 760h130l307 -760h-171z"/>
<glyph glyph-name="Adieresis" horiz-adv-x="745" unicode="Ä" d="M336 909q0 -16 -6.5 -30.5t-17.5 -26t-25.5 -18t-31.5 -6.5q-16 0 -31 6.5t-26.5 18t-18 26t-6.5 30.5q0 33 24.5 57t57.5 24t57 -24t24 -57zM571 909q0 -16 -6.5 -30.5t-17.5 -26t-25.5 -18t-31.5 -6.5q-16 0 -31 6.5t-26 18t-17.5 26t-6.5 30.5q0 33 24 57t57 24 t57 -24t24 -57zM372 537h-2l-97 -253h195zM575 0l-61 160h-288l-62 -160h-165l310 760h130l307 -760h-171z"/>
<glyph glyph-name="Aring" horiz-adv-x="745" unicode="Å" d="M372 537h-2l-97 -253h195zM425 848q0 22 -14 37t-37 15t-37 -15t-14 -37t13.5 -36.5t36.5 -14.5q24 0 38 14.5t14 36.5zM575 0l-61 160h-288l-62 -160h-165l308 754q-24 13 -38 38t-14 56q0 52 32.5 83t86.5 31q57 0 88 -32t31 -82q0 -30 -13.5 -55t-38.5 -38l305 -755 h-171z"/>
<glyph glyph-name="AE" horiz-adv-x="1019" unicode="Æ" d="M551 542h-2l-182 -258h184v258zM551 0v160h-281l-125 -160h-184l573 754h428v-136h-253v-166h242v-128h-242v-189h253v-135h-411z"/>
<glyph glyph-name="Ccedilla" horiz-adv-x="665" unicode="Ç" d="M341 -251l-75 47l119 154l95 -61zM626 33q-48 -24 -94.5 -36.5t-94.5 -12.5q-95 0 -170 31t-127 84t-79.5 125t-27.5 154t28 153.5t79.5 125t125.5 84t167 30.5q52 0 100.5 -14t92.5 -37v-177l-2 -2q-35 40 -86 61.5t-105 21.5q-53 0 -96.5 -18t-75 -50.5t-49 -77.5 t-17.5 -100q0 -53 18 -98.5t50.5 -79t77 -52.5t96.5 -19q24 0 50.5 6t51.5 16.5t47 25t38 32.5l2 -2v-174z"/>
<glyph glyph-name="Egrave" horiz-adv-x="536" unicode="È" d="M254 810l-150 173h166l98 -173h-114zM68 0v754h411v-136h-253v-166h242v-128h-242v-189h253v-135h-411z"/>
<glyph glyph-name="Eacute" horiz-adv-x="536" unicode="É" d="M302 810h-114l98 173h166zM68 0v754h411v-136h-253v-166h242v-128h-242v-189h253v-135h-411z"/>
<glyph glyph-name="Ecircumflex" horiz-adv-x="536" unicode="Ê" d="M350 810l-79 98l-79 -98h-133l149 180h130l149 -180h-137zM68 0v754h411v-136h-253v-166h242v-128h-242v-189h253v-135h-411z"/>
<glyph glyph-name="Edieresis" horiz-adv-x="536" unicode="Ë" d="M232 897q0 -16 -6.5 -30.5t-17.5 -25.5t-25.5 -17.5t-31.5 -6.5q-16 0 -31 6.5t-26 17.5t-17.5 25.5t-6.5 30.5q0 33 24 57t57 24t57 -24t24 -57zM467 897q0 -16 -6.5 -30.5t-17.5 -25.5t-25.5 -17.5t-31.5 -6.5q-16 0 -31 6.5t-25.5 17.5t-17 25.5t-6.5 30.5 q0 33 23.5 57t56.5 24t57 -24t24 -57zM68 0v754h411v-136h-253v-166h242v-128h-242v-189h253v-135h-411z"/>
<glyph glyph-name="Igrave" horiz-adv-x="290" unicode="Ì" d="M99 810l-148 173h165l98 -173h-115zM68 0v754h158v-754h-158z"/>
<glyph glyph-name="Iacute" horiz-adv-x="290" unicode="Í" d="M196 810h-114l98 173h166zM68 0v754h158v-754h-158z"/>
<glyph glyph-name="Icircumflex" horiz-adv-x="290" unicode="Î" d="M225 810l-79 98l-79 -98h-133l149 180h130l148 -180h-136zM68 0v754h158v-754h-158z"/>
<glyph glyph-name="Idieresis" horiz-adv-x="290" unicode="Ï" d="M108 897q0 -16 -6.5 -30.5t-17.5 -25.5t-25.5 -17.5t-31.5 -6.5q-16 0 -31 6.5t-25.5 17.5t-17 25.5t-6.5 30.5q0 33 23.5 57t56.5 24t57 -24t24 -57zM343 897q0 -16 -6.5 -30.5t-17.5 -25.5t-25.5 -17.5t-31.5 -6.5q-16 0 -31 6.5t-26 17.5t-17.5 25.5t-6.5 30.5 q0 33 24 57t57 24t57 -24t24 -57zM68 0v754h158v-754h-158z"/>
<glyph glyph-name="Eth" horiz-adv-x="727" unicode="Ð" d="M533 377q0 52 -16 96t-47 76.5t-76.5 50.5t-105.5 18h-62v-177h126v-127h-126v-179h62q59 0 104.5 18t76.5 50.5t47.5 77t16.5 96.5zM697 377q0 -77 -29.5 -145.5t-81.5 -120t-123 -81.5t-153 -30h-242v314h-82v127h82v313h242q82 0 153 -30t123 -81.5t81.5 -120 t29.5 -145.5z"/>
<glyph glyph-name="Ntilde" horiz-adv-x="849" unicode="Ñ" d="M632 978q0 -82 -35.5 -117.5t-98.5 -35.5q-19 0 -39 6.5t-39.5 14.5t-38 14.5t-34.5 6.5q-20 0 -29.5 -11.5t-9.5 -30.5h-96q0 81 36 117t99 36q20 0 40 -6.5t39.5 -15t37.5 -15t34 -6.5q20 0 29.5 11.5t9.5 31.5h95zM644 -6l-418 505h-2v-499h-156v756h137l418 -503h1 v501h156v-760h-136z"/>
<glyph glyph-name="Ograve" d="M366 823l-150 174h166l98 -174h-114zM671 377q0 53 -18.5 99.5t-50.5 81t-76.5 54.5t-96.5 20q-53 0 -96.5 -19t-75 -53t-48.5 -80.5t-17 -101.5q0 -53 18 -100t50 -82t76.5 -55t96.5 -20q53 0 96.5 19.5t75 53.5t49 81t17.5 102zM833 377q0 -82 -29.5 -154t-82.5 -125 t-126.5 -84t-161.5 -31q-89 0 -163 31t-127.5 84.5t-83 125.5t-29.5 154t29.5 153.5t82 125t126 84t161.5 30.5t162 -31t128 -84t84 -125t30 -154z" unicode="Ò"/>
<glyph glyph-name="Oacute" d="M480 823h-115l98 174h166zM671 377q0 53 -18.5 99.5t-50.5 81t-76.5 54.5t-96.5 20q-53 0 -96.5 -19t-75 -53t-48.5 -80.5t-17 -101.5q0 -53 18 -100t50 -82t76.5 -55t96.5 -20q53 0 96.5 19.5t75 53.5t49 81t17.5 102zM833 377q0 -82 -29.5 -154t-82.5 -125t-126.5 -84 t-161.5 -31q-89 0 -163 31t-127.5 84.5t-83 125.5t-29.5 154t29.5 153.5t82 125t126 84t161.5 30.5t162 -31t128 -84t84 -125t30 -154z" unicode="Ó"/>
<glyph glyph-name="Ocircumflex" d="M673 377q0 53 -18.5 99.5t-50.5 81t-76.5 54.5t-96.5 20q-53 0 -96.5 -19t-75 -53t-49 -80.5t-17.5 -101.5q0 -53 18 -100t50.5 -82t77 -55t96.5 -20q53 0 96.5 19.5t75 53.5t49 81t17.5 102zM835 377q0 -82 -29.5 -154t-82.5 -125t-126.5 -84t-161.5 -31q-89 0 -163 31 t-127.5 84.5t-83.5 125.5t-30 154t29.5 153.5t82.5 125t126.5 84t161.5 30.5t162 -31t128 -84t84 -125t30 -154zM508 821l-80 98l-79 -98h-133l149 181h130l149 -181h-136z" unicode="Ô"/>
<glyph glyph-name="Otilde" d="M638 989q0 -82 -36 -117.5t-99 -35.5q-19 0 -39 6.5t-39.5 14.5t-37.5 14.5t-34 6.5q-20 0 -30 -11t-10 -30h-95q0 81 35.5 116.5t98.5 35.5q20 0 40 -6.5t39.5 -15t37.5 -15t34 -6.5q20 0 30 11.5t10 31.5h95zM671 377q0 53 -18.5 99.5t-50.5 81t-76.5 54.5t-96.5 20 q-53 0 -96.5 -19t-75 -53t-48.5 -80.5t-17 -101.5q0 -53 18 -100t50 -82t76.5 -55t96.5 -20q53 0 96.5 19.5t75 53.5t49 81t17.5 102zM833 377q0 -82 -29.5 -154t-82.5 -125t-126.5 -84t-161.5 -31q-89 0 -163 31t-127.5 84.5t-83 125.5t-29.5 154t29.5 153.5t82 125t126 84 t161.5 30.5t162 -31t128 -84t84 -125t30 -154z" unicode="Õ"/>
<glyph glyph-name="Odieresis" d="M393 909q0 -16 -6.5 -30.5t-17.5 -26t-25.5 -18t-31.5 -6.5q-16 0 -31 6.5t-26 18t-17.5 26t-6.5 30.5q0 33 24 57t57 24t57 -24t24 -57zM628 909q0 -16 -6.5 -30.5t-17.5 -26t-25.5 -18t-31.5 -6.5q-16 0 -31 6.5t-26 18t-17.5 26t-6.5 30.5q0 33 24 57t57 24t57 -24 t24 -57zM671 377q0 53 -18.5 99.5t-50.5 81t-76.5 54.5t-96.5 20q-53 0 -96.5 -19t-75 -53t-48.5 -80.5t-17 -101.5q0 -53 18 -100t50 -82t76.5 -55t96.5 -20q53 0 96.5 19.5t75 53.5t49 81t17.5 102zM833 377q0 -82 -29.5 -154t-82.5 -125t-126.5 -84t-161.5 -31 q-89 0 -163 31t-127.5 84.5t-83 125.5t-29.5 154t29.5 153.5t82 125t126 84t161.5 30.5t162 -31t128 -84t84 -125t30 -154z" unicode="Ö"/>
<glyph glyph-name="multiply" horiz-adv-x="665" unicode="×" d="M417 379l135 -136l-87 -87l-136 135l-134 -134l-87 87l134 135l-134 134l87 88l135 -135l134 135l87 -88z"/>
<glyph glyph-name="Oslash" d="M671 377q0 39 -11 75t-31 66q-92 -100 -165 -178q-31 -33 -60.5 -65t-53.5 -57q-23 -24 -37 -40l-14 -16q28 -19 62 -30t72 -11q53 0 96.5 19.5t75 53.5t49 81t17.5 102zM566 589q-28 20 -63.5 31.5t-73.5 11.5q-53 0 -96.5 -19t-75 -53t-48.5 -80.5t-17 -101.5 q0 -41 11 -78.5t31 -68.5zM833 377q0 -82 -29.5 -154t-82.5 -125t-126.5 -84t-161.5 -31q-68 0 -126.5 18t-106.5 50q-17 -18 -32.5 -35.5t-28.5 -31.5q-15 -16 -29 -30l-70 63l88 95q-47 53 -72.5 121t-25.5 145q0 82 29.5 153.5t82 125t126 84t161.5 30.5q68 0 127.5 -19 t108.5 -52l88 96l70 -64l-86 -94q45 -52 70.5 -118.5t25.5 -142.5z" unicode="Ø"/>
<glyph glyph-name="Ugrave" horiz-adv-x="744" unicode="Ù" d="M347 810l-149 173h166l98 -173h-115zM684 291q0 -71 -19 -129t-58 -98.5t-97 -62.5t-136 -22t-136.5 22t-97.5 62.5t-58 98.5t-19 129v463h159v-433q0 -56 9 -95t28.5 -63t49 -35t70.5 -11q40 0 68 11t45.5 35t25.5 63t8 95v433h158v-463z"/>
<glyph glyph-name="Uacute" horiz-adv-x="744" unicode="Ú" d="M396 810h-114l98 173h166zM684 291q0 -71 -19 -129t-58 -98.5t-97 -62.5t-136 -22t-136.5 22t-97.5 62.5t-58 98.5t-19 129v463h159v-433q0 -56 9 -95t28.5 -63t49 -35t70.5 -11q40 0 68 11t45.5 35t25.5 63t8 95v433h158v-463z"/>
<glyph glyph-name="Ucircumflex" horiz-adv-x="744" unicode="Û" d="M451 810l-79 98l-80 -98h-133l149 180h130l149 -180h-136zM684 291q0 -71 -19 -129t-58 -98.5t-97 -62.5t-136 -22t-136.5 22t-97.5 62.5t-58 98.5t-19 129v463h159v-433q0 -56 9 -95t28.5 -63t49 -35t70.5 -11q40 0 68 11t45.5 35t25.5 63t8 95v433h158v-463z"/>
<glyph glyph-name="Udieresis" horiz-adv-x="744" unicode="Ü" d="M337 897q0 -16 -6.5 -30.5t-17.5 -25.5t-25.5 -17.5t-31.5 -6.5q-16 0 -31 6.5t-26 17.5t-17.5 25.5t-6.5 30.5q0 33 24 57t57 24t57 -24t24 -57zM572 897q0 -16 -6.5 -30.5t-17.5 -25.5t-25.5 -17.5t-31.5 -6.5q-16 0 -31 6.5t-25.5 17.5t-17 25.5t-6.5 30.5 q0 33 23.5 57t56.5 24t57 -24t24 -57zM684 291q0 -71 -19 -129t-58 -98.5t-97 -62.5t-136 -22t-136.5 22t-97.5 62.5t-58 98.5t-19 129v463h159v-433q0 -56 9 -95t28.5 -63t49 -35t70.5 -11q40 0 68 11t45.5 35t25.5 63t8 95v433h158v-463z"/>
<glyph glyph-name="Yacute" horiz-adv-x="676" unicode="Ý" d="M376 810h-114l98 173h166zM417 304v-304h-158v304l-270 450h185l164 -299h2l162 299h185z"/>
<glyph glyph-name="Thorn" horiz-adv-x="613" unicode="Þ" d="M421 377q0 52 -33 80t-109 28h-53v-218h53q76 0 109 29t33 81zM579 377q0 -54 -17.5 -98t-50 -75.5t-79.5 -48.5t-107 -17h-99v-138h-158v754h158v-139h98q60 0 107 -17t80 -48t50.5 -75t17.5 -98z"/>
<glyph glyph-name="germandbls" horiz-adv-x="613" unicode="ß" d="M593 160q0 -39 -15 -71.5t-42 -55.5t-65 -35.5t-83 -12.5q-30 0 -59 4.5t-55 14.5l32 110q20 -8 39.5 -13t37.5 -5q34 0 51 14.5t17 37.5q0 20 -14 34t-34.5 27t-44.5 26.5t-44.5 33t-34.5 46t-14 65.5q0 33 11.5 59.5t43.5 56.5q25 23 39.5 40t22.5 31t10.5 27t2.5 28 q0 41 -26 65t-66 24q-27 0 -45.5 -10t-29 -27.5t-15 -41.5t-4.5 -52v-580h-147v604q0 114 61.5 174.5t181.5 60.5q51 0 94 -15t73.5 -43t47.5 -66t17 -85q0 -25 -3.5 -46.5t-12.5 -40.5t-24.5 -37.5t-38.5 -39.5q-17 -15 -27.5 -26t-16 -20t-7.5 -17t-2 -18q0 -16 14 -28 t35 -23.5t45 -25.5t45 -34t35 -47.5t14 -66.5z"/>
<glyph glyph-name="agrave" horiz-adv-x="645" unicode="à" d="M282 591l-150 173h166l98 -173h-114zM447 253q0 28 -9.5 53.5t-27.5 45t-43.5 31.5t-57.5 12q-31 0 -57 -12t-44 -31.5t-28 -45.5t-10 -55q0 -28 10 -54t28.5 -46t44.5 -31.5t57 -11.5q32 0 57.5 12t43 32t27 46t9.5 55zM442 0v62h-2q-20 -34 -65 -55.5t-101 -21.5 q-47 0 -91 19t-77.5 53.5t-53.5 84t-20 110.5q0 54 19 102.5t52.5 84.5t79 57.5t97.5 21.5t93 -18.5t67 -53.5h2v57h147v-503h-147z"/>
<glyph glyph-name="aacute" horiz-adv-x="645" unicode="á" d="M343 591h-115l98 173h166zM447 253q0 28 -9.5 53.5t-27.5 45t-43.5 31.5t-57.5 12q-31 0 -57 -12t-44 -31.5t-28 -45.5t-10 -55q0 -28 10 -54t28.5 -46t44.5 -31.5t57 -11.5q32 0 57.5 12t43 32t27 46t9.5 55zM442 0v62h-2q-20 -34 -65 -55.5t-101 -21.5q-47 0 -91 19 t-77.5 53.5t-53.5 84t-20 110.5q0 54 19 102.5t52.5 84.5t79 57.5t97.5 21.5t93 -18.5t67 -53.5h2v57h147v-503h-147z"/>
<glyph glyph-name="acircumflex" horiz-adv-x="645" unicode="â" d="M407 591l-79 97l-79 -97h-134l149 180h131l148 -180h-136zM447 253q0 28 -9.5 53.5t-27.5 45t-43.5 31.5t-57.5 12q-31 0 -57 -12t-44 -31.5t-28 -45.5t-10 -55q0 -28 10 -54t28.5 -46t44.5 -31.5t57 -11.5q32 0 57.5 12t43 32t27 46t9.5 55zM442 0v62h-2 q-20 -34 -65 -55.5t-101 -21.5q-47 0 -91 19t-77.5 53.5t-53.5 84t-20 110.5q0 54 19 102.5t52.5 84.5t79 57.5t97.5 21.5t93 -18.5t67 -53.5h2v57h147v-503h-147z"/>
<glyph glyph-name="atilde" horiz-adv-x="645" unicode="ã" d="M535 759q0 -82 -35.5 -118t-98.5 -36q-19 0 -39 6.5t-39.5 15t-38 15t-34.5 6.5q-20 0 -29.5 -11.5t-9.5 -30.5h-96q0 81 36 117t99 36q20 0 40 -6.5t39 -15t37 -15t34 -6.5q20 0 30 11.5t10 31.5h95zM447 253q0 28 -9.5 53.5t-27.5 45t-43.5 31.5t-57.5 12 q-31 0 -57 -12t-44 -31.5t-28 -45.5t-10 -55q0 -28 10 -54t28.5 -46t44.5 -31.5t57 -11.5q32 0 57.5 12t43 32t27 46t9.5 55zM442 0v62h-2q-20 -34 -65 -55.5t-101 -21.5q-47 0 -91 19t-77.5 53.5t-53.5 84t-20 110.5q0 54 19 102.5t52.5 84.5t79 57.5t97.5 21.5t93 -18.5 t67 -53.5h2v57h147v-503h-147z"/>
<glyph glyph-name="adieresis" horiz-adv-x="645" unicode="ä" d="M292 677q0 -16 -6.5 -30.5t-17.5 -26t-25.5 -18t-31.5 -6.5q-16 0 -31 6.5t-26 18t-17.5 26t-6.5 30.5q0 33 24 57t57 24t57 -24t24 -57zM527 677q0 -16 -6.5 -30.5t-17.5 -26t-25.5 -18t-31.5 -6.5q-16 0 -31 6.5t-26 18t-17.5 26t-6.5 30.5q0 33 24 57t57 24t57 -24 t24 -57zM447 253q0 28 -9.5 53.5t-27.5 45t-43.5 31.5t-57.5 12q-31 0 -57 -12t-44 -31.5t-28 -45.5t-10 -55q0 -28 10 -54t28.5 -46t44.5 -31.5t57 -11.5q32 0 57.5 12t43 32t27 46t9.5 55zM442 0v62h-2q-20 -34 -65 -55.5t-101 -21.5q-47 0 -91 19t-77.5 53.5t-53.5 84 t-20 110.5q0 54 19 102.5t52.5 84.5t79 57.5t97.5 21.5t93 -18.5t67 -53.5h2v57h147v-503h-147z"/>
<glyph glyph-name="aring" horiz-adv-x="645" unicode="å" d="M377 680q0 22 -13.5 37t-36.5 15t-37 -15t-14 -37t13.5 -36.5t36.5 -14.5q24 0 37.5 14.5t13.5 36.5zM446 680q0 -49 -32.5 -81.5t-87.5 -32.5q-56 0 -87.5 32.5t-31.5 81.5q0 52 33 83t87 31q57 0 88 -32t31 -82zM447 253q0 28 -9.5 53.5t-27.5 45t-43.5 31.5t-57.5 12 q-31 0 -57 -12t-44 -31.5t-28 -45.5t-10 -55q0 -28 10 -54t28.5 -46t44.5 -31.5t57 -11.5q32 0 57.5 12t43 32t27 46t9.5 55zM442 0v62h-2q-20 -34 -65 -55.5t-101 -21.5q-47 0 -91 19t-77.5 53.5t-53.5 84t-20 110.5q0 54 19 102.5t52.5 84.5t79 57.5t97.5 21.5t93 -18.5 t67 -53.5h2v57h147v-503h-147z"/>
<glyph glyph-name="ae" horiz-adv-x="947" unicode="æ" d="M355 158q0 32 -26 51.5t-70 19.5q-41 0 -68.5 -18t-27.5 -53q0 -34 29 -52t71 -18q38 0 65 20t27 50zM782 306q-8 48 -40 77t-83 29q-53 0 -86 -29t-42 -77h251zM529 222q4 -63 43 -94.5t93 -31.5q43 0 73 18t47 45l130 -5q-12 -41 -37 -72.5t-58.5 -53t-73 -32.5 t-81.5 -11q-75 0 -132 27t-90 77h-3q-32 -52 -86.5 -78t-122.5 -26q-36 0 -73 10t-66.5 30t-48.5 50t-19 71q0 42 16 74t44 53t65.5 31.5t80.5 10.5q77 0 138 -34v6q0 7 -1 16t-3.5 18t-5.5 16.5t-7 11.5q-10 29 -37.5 43t-69.5 14q-45 0 -85.5 -9t-78.5 -24v117 q38 13 81.5 20.5t98.5 7.5q65 0 114 -24t75 -69h2q32 44 84.5 68.5t119.5 24.5q128 0 198.5 -76t70.5 -212v-8h-395z"/>
<glyph glyph-name="ccedilla" horiz-adv-x="475" unicode="ç" d="M229 -242l-76 46l120 155l95 -61zM441 21q-32 -18 -65.5 -27t-75.5 -9q-58 0 -108 19t-87.5 53.5t-59 84t-21.5 109.5q0 59 20.5 108t57.5 84t88 55t112 20q41 0 75 -10t62 -27v-137q-22 20 -56.5 35.5t-71.5 15.5q-64 0 -106 -37.5t-42 -102.5q0 -32 11.5 -58.5 t32 -45.5t48 -29.5t59.5 -10.5q38 0 71.5 13.5t55.5 33.5v-137z"/>
<glyph glyph-name="egrave" horiz-adv-x="586" unicode="è" d="M240 591l-150 173h166l98 -173h-114zM421 306q-8 48 -39.5 77t-82.5 29q-53 0 -86.5 -29t-42.5 -77h251zM169 222q4 -63 42.5 -94.5t92.5 -31.5q43 0 73 18t47 45l131 -5q-12 -41 -37 -72.5t-58.5 -53t-73 -32.5t-81.5 -11q-61 0 -112.5 18t-89 52t-58.5 83t-21 111 q0 60 20 110t56 85t85.5 54.5t109.5 19.5q128 0 198 -76t70 -212v-8h-394z"/>
<glyph glyph-name="eacute" horiz-adv-x="586" unicode="é" d="M331 591h-114l98 173h166zM421 306q-8 48 -39.5 77t-82.5 29q-53 0 -86.5 -29t-42.5 -77h251zM169 222q4 -63 42.5 -94.5t92.5 -31.5q43 0 73 18t47 45l131 -5q-12 -41 -37 -72.5t-58.5 -53t-73 -32.5t-81.5 -11q-61 0 -112.5 18t-89 52t-58.5 83t-21 111q0 60 20 110 t56 85t85.5 54.5t109.5 19.5q128 0 198 -76t70 -212v-8h-394z"/>
<glyph glyph-name="ecircumflex" horiz-adv-x="586" unicode="ê" d="M375 591l-79 97l-79 -97h-134l149 180h130l149 -180h-136zM421 306q-8 48 -39.5 77t-82.5 29q-53 0 -86.5 -29t-42.5 -77h251zM169 222q4 -63 42.5 -94.5t92.5 -31.5q43 0 73 18t47 45l131 -5q-12 -41 -37 -72.5t-58.5 -53t-73 -32.5t-81.5 -11q-61 0 -112.5 18t-89 52 t-58.5 83t-21 111q0 60 20 110t56 85t85.5 54.5t109.5 19.5q128 0 198 -76t70 -212v-8h-394z"/>
<glyph glyph-name="edieresis" horiz-adv-x="586" unicode="ë" d="M262 676q0 -16 -6.5 -30.5t-17.5 -26t-25.5 -18t-31.5 -6.5q-16 0 -31 6.5t-26.5 18t-18 26t-6.5 30.5q0 33 24.5 57t57.5 24t57 -24t24 -57zM497 676q0 -16 -6.5 -30.5t-17.5 -26t-25.5 -18t-31.5 -6.5q-16 0 -31 6.5t-26 18t-17.5 26t-6.5 30.5q0 33 24 57t57 24 t57 -24t24 -57zM421 306q-8 48 -39.5 77t-82.5 29q-53 0 -86.5 -29t-42.5 -77h251zM169 222q4 -63 42.5 -94.5t92.5 -31.5q43 0 73 18t47 45l131 -5q-12 -41 -37 -72.5t-58.5 -53t-73 -32.5t-81.5 -11q-61 0 -112.5 18t-89 52t-58.5 83t-21 111q0 60 20 110t56 85t85.5 54.5 t109.5 19.5q128 0 198 -76t70 -212v-8h-394z"/>
<glyph glyph-name="igrave" horiz-adv-x="278" unicode="ì" d="M92 591l-148 173h165l98 -173h-115zM65 0v503h148v-503h-148z"/>
<glyph glyph-name="iacute" horiz-adv-x="278" unicode="í" d="M184 591h-114l98 173h166zM65 0v503h148v-503h-148z"/>
<glyph glyph-name="icircumflex" horiz-adv-x="278" unicode="î" d="M216 591l-79 97l-79 -97h-132l148 180h130l149 -180h-137zM65 0v503h148v-503h-148z"/>
<glyph glyph-name="idieresis" horiz-adv-x="278" unicode="ï" d="M105 678q0 -16 -6.5 -30.5t-17.5 -25.5t-25.5 -17.5t-31.5 -6.5q-16 0 -31 6.5t-25.5 17.5t-17 25.5t-6.5 30.5q0 33 23.5 57t56.5 24t57 -24t24 -57zM340 678q0 -16 -6.5 -30.5t-17.5 -25.5t-25.5 -17.5t-31.5 -6.5q-16 0 -31 6.5t-26 17.5t-17.5 25.5t-6.5 30.5 q0 33 24 57t57 24t57 -24t24 -57zM65 0v503h148v-503h-148z"/>
<glyph glyph-name="ntilde" horiz-adv-x="599" unicode="ñ" d="M511 759q0 -82 -35.5 -118t-98.5 -36q-19 0 -39 6.5t-39.5 15t-38 15t-34.5 6.5q-20 0 -29.5 -11.5t-9.5 -30.5h-96q0 81 36 117t99 36q20 0 40 -6.5t39 -15t37 -15t34 -6.5q20 0 30 11.5t10 31.5h95zM399 0v264q0 22 -2 46t-10.5 44t-27 33t-51.5 13q-28 0 -48 -11 t-33 -29.5t-18.5 -43.5t-5.5 -53v-263h-148v503h148v-67h2q26 40 69 61t97 21q87 0 131 -53t44 -150v-315h-147z"/>
<glyph glyph-name="ograve" horiz-adv-x="608" unicode="ò" d="M243 591l-150 173h166l98 -173h-114zM444 251q0 29 -9.5 55.5t-27.5 46t-44 31t-58 11.5t-58.5 -11.5t-45 -31t-28.5 -45.5t-10 -56q0 -29 9.5 -55t27 -45.5t43.5 -31t59 -11.5t59.5 11t45 30.5t28 45.5t9.5 56zM583 251q0 -56 -20 -104.5t-56.5 -84.5t-88.5 -56.5 t-116 -20.5t-115.5 20.5t-87.5 56.5t-55.5 84.5t-19.5 104.5q0 59 20 108.5t57 84.5t89 54.5t115 19.5q65 0 116.5 -20.5t87.5 -56.5t55 -85t19 -105z"/>
<glyph glyph-name="oacute" horiz-adv-x="608" unicode="ó" d="M345 591h-114l98 173h166zM444 251q0 29 -9.5 55.5t-27.5 46t-44 31t-58 11.5t-58.5 -11.5t-45 -31t-28.5 -45.5t-10 -56q0 -29 9.5 -55t27 -45.5t43.5 -31t59 -11.5t59.5 11t45 30.5t28 45.5t9.5 56zM583 251q0 -56 -20 -104.5t-56.5 -84.5t-88.5 -56.5t-116 -20.5 t-115.5 20.5t-87.5 56.5t-55.5 84.5t-19.5 104.5q0 59 20 108.5t57 84.5t89 54.5t115 19.5q65 0 116.5 -20.5t87.5 -56.5t55 -85t19 -105z"/>
<glyph glyph-name="ocircumflex" horiz-adv-x="608" unicode="ô" d="M382 591l-79 97l-79 -97h-134l149 180h130l149 -180h-136zM444 251q0 29 -9.5 55.5t-27.5 46t-44 31t-58 11.5t-58.5 -11.5t-45 -31t-28.5 -45.5t-10 -56q0 -29 9.5 -55t27 -45.5t43.5 -31t59 -11.5t59.5 11t45 30.5t28 45.5t9.5 56zM583 251q0 -56 -20 -104.5 t-56.5 -84.5t-88.5 -56.5t-116 -20.5t-115.5 20.5t-87.5 56.5t-55.5 84.5t-19.5 104.5q0 59 20 108.5t57 84.5t89 54.5t115 19.5q65 0 116.5 -20.5t87.5 -56.5t55 -85t19 -105z"/>
<glyph glyph-name="otilde" horiz-adv-x="608" unicode="õ" d="M518 759q0 -82 -35.5 -118t-98.5 -36q-19 0 -39 6.5t-39.5 15t-38 15t-34.5 6.5q-20 0 -30 -11.5t-10 -30.5h-95q0 81 35.5 117t98.5 36q20 0 40 -6.5t39.5 -15t37.5 -15t34 -6.5q20 0 30 11.5t10 31.5h95zM444 251q0 29 -9.5 55.5t-27.5 46t-44 31t-58 11.5t-58.5 -11.5 t-45 -31t-28.5 -45.5t-10 -56q0 -29 9.5 -55t27 -45.5t43.5 -31t59 -11.5t59.5 11t45 30.5t28 45.5t9.5 56zM583 251q0 -56 -20 -104.5t-56.5 -84.5t-88.5 -56.5t-116 -20.5t-115.5 20.5t-87.5 56.5t-55.5 84.5t-19.5 104.5q0 59 20 108.5t57 84.5t89 54.5t115 19.5 q65 0 116.5 -20.5t87.5 -56.5t55 -85t19 -105z"/>
<glyph glyph-name="odieresis" horiz-adv-x="608" unicode="ö" d="M270 678q0 -16 -6.5 -30.5t-17.5 -25.5t-25.5 -17.5t-31.5 -6.5q-16 0 -31 6.5t-26 17.5t-17.5 25.5t-6.5 30.5q0 33 24 57t57 24t57 -24t24 -57zM505 678q0 -16 -6.5 -30.5t-17.5 -25.5t-25.5 -17.5t-31.5 -6.5q-16 0 -31 6.5t-26 17.5t-17.5 25.5t-6.5 30.5q0 33 24 57 t57 24t57 -24t24 -57zM444 251q0 29 -9.5 55.5t-27.5 46t-44 31t-58 11.5t-58.5 -11.5t-45 -31t-28.5 -45.5t-10 -56q0 -29 9.5 -55t27 -45.5t43.5 -31t59 -11.5t59.5 11t45 30.5t28 45.5t9.5 56zM583 251q0 -56 -20 -104.5t-56.5 -84.5t-88.5 -56.5t-116 -20.5t-115.5 20.5 t-87.5 56.5t-55.5 84.5t-19.5 104.5q0 59 20 108.5t57 84.5t89 54.5t115 19.5q65 0 116.5 -20.5t87.5 -56.5t55 -85t19 -105z"/>
<glyph glyph-name="divide" horiz-adv-x="665" unicode="÷" d="M403 170q0 -30 -21.5 -51.5t-51.5 -21.5t-51 21.5t-21 51.5t21 51t51 21t51.5 -21t21.5 -51zM78 316v124h505v-124h-505zM403 586q0 -30 -21.5 -51.5t-51.5 -21.5t-51 21.5t-21 51.5t21 51t51 21t51.5 -21t21.5 -51z"/>
<glyph glyph-name="oslash" horiz-adv-x="608" unicode="ø" d="M444 251q0 21 -5.5 41t-15.5 37l-188 -203q29 -18 67 -18q33 0 59.5 11t45 30.5t28 45.5t9.5 56zM372 377q-29 18 -67 18q-32 0 -58.5 -11.5t-45 -31t-28.5 -45.5t-10 -56q0 -45 20 -79zM583 251q0 -56 -20 -104.5t-56.5 -84.5t-88.5 -56.5t-116 -20.5q-46 0 -84.5 10.5 t-70.5 29.5l-57 -61l-51 46l53 58q-32 35 -50 82t-18 101q0 59 20 108.5t57 84.5t89 54.5t115 19.5q46 0 85 -10.5t71 -30.5l51 56l52 -46l-48 -53q32 -35 49.5 -82t17.5 -101z"/>
<glyph glyph-name="ugrave" horiz-adv-x="603" unicode="ù" d="M273 591l-150 173h166l98 -173h-114zM548 219q0 -59 -17.5 -103t-50 -73t-78 -43.5t-101.5 -14.5q-57 0 -102.5 15t-77.5 44.5t-49.5 73t-17.5 101.5v284h148v-264q0 -29 4 -53.5t15 -42.5t30.5 -28t50.5 -10t50 10t30 27.5t15 42t4 54.5v264h147v-284z"/>
<glyph glyph-name="uacute" horiz-adv-x="603" unicode="ú" d="M325 591h-114l98 173h166zM548 219q0 -59 -17.5 -103t-50 -73t-78 -43.5t-101.5 -14.5q-57 0 -102.5 15t-77.5 44.5t-49.5 73t-17.5 101.5v284h148v-264q0 -29 4 -53.5t15 -42.5t30.5 -28t50.5 -10t50 10t30 27.5t15 42t4 54.5v264h147v-284z"/>
<glyph glyph-name="ucircumflex" horiz-adv-x="603" unicode="û" d="M377 591l-79 97l-79 -97h-134l149 180h130l149 -180h-136zM548 219q0 -59 -17.5 -103t-50 -73t-78 -43.5t-101.5 -14.5q-57 0 -102.5 15t-77.5 44.5t-49.5 73t-17.5 101.5v284h148v-264q0 -29 4 -53.5t15 -42.5t30.5 -28t50.5 -10t50 10t30 27.5t15 42t4 54.5v264h147 v-284z"/>
<glyph glyph-name="udieresis" horiz-adv-x="603" unicode="ü" d="M264 678q0 -16 -6.5 -30.5t-17.5 -25.5t-25.5 -17.5t-31.5 -6.5q-16 0 -31 6.5t-26.5 17.5t-18 25.5t-6.5 30.5q0 33 24.5 57t57.5 24t57 -24t24 -57zM499 678q0 -16 -6.5 -30.5t-17.5 -25.5t-25.5 -17.5t-31.5 -6.5q-16 0 -31 6.5t-26 17.5t-17.5 25.5t-6.5 30.5 q0 33 24 57t57 24t57 -24t24 -57zM548 219q0 -59 -17.5 -103t-50 -73t-78 -43.5t-101.5 -14.5q-57 0 -102.5 15t-77.5 44.5t-49.5 73t-17.5 101.5v284h148v-264q0 -29 4 -53.5t15 -42.5t30.5 -28t50.5 -10t50 10t30 27.5t15 42t4 54.5v264h147v-284z"/>
<glyph glyph-name="yacute" horiz-adv-x="589" unicode="ý" d="M316 591h-114l98 173h166zM226 -261h-153l149 309l-236 455h169l146 -308h1l138 308h160z"/>
<glyph glyph-name="thorn" horiz-adv-x="636" unicode="þ" d="M472 248q0 27 -10 53t-28 46t-43.5 32t-56.5 12q-32 0 -57 -12t-42.5 -32t-27 -46t-9.5 -54t9.5 -53.5t27.5 -44.5t43.5 -30t56.5 -11t56 11.5t43 31t28 44.5t10 53zM611 256q0 -61 -19.5 -111t-53 -85.5t-77 -55t-91.5 -19.5q-56 0 -98 19.5t-66 54.5h-2v-318h-148v1086 h148v-383h2q26 34 70 52.5t95 18.5q52 0 96 -20.5t76 -55.5t50 -82t18 -101z"/>
<glyph glyph-name="OE" horiz-adv-x="970" unicode="Œ" d="M500 618h-61q-60 0 -105.5 -18t-76.5 -50.5t-47 -76.5t-16 -96t16.5 -96.5t47.5 -77t77 -50.5t104 -18h61v483zM417 0q-82 0 -153 30t-123 81.5t-81.5 120t-29.5 145.5t29.5 145.5t81.5 120t123 81.5t153 30h496v-136h-253v-166h242v-128h-242v-189h253v-135h-496z"/>
<glyph glyph-name="oe" horiz-adv-x="1000" unicode="œ" d="M444 251q0 29 -9.5 55.5t-27.5 46t-44 31t-58 11.5t-58.5 -11.5t-45 -31t-28.5 -45.5t-10 -56q0 -29 9.5 -55t27 -45.5t43.5 -31t59 -11.5t59.5 11t45 30.5t28 45.5t9.5 56zM835 304q-8 45 -37.5 72.5t-77.5 27.5q-49 0 -81 -27.5t-40 -72.5h236zM598 222 q2 -31 12.5 -54.5t28 -39t39.5 -23t47 -7.5q40 0 68.5 17t44.5 44l130 -5q-12 -41 -37 -72.5t-57.5 -53t-70.5 -32.5t-78 -11q-65 0 -122 26.5t-93 76.5q-35 -48 -90.5 -75.5t-124.5 -27.5q-61 0 -111.5 20.5t-85.5 56.5t-54.5 84.5t-19.5 104.5q0 58 19.5 107t55.5 84.5 t86.5 55.5t111.5 20q70 0 125.5 -28t89.5 -76q35 48 89.5 76t114.5 28q61 0 110 -20.5t83 -58.5t51 -91.5t17 -118.5v-7h-379z"/>
<glyph glyph-name="Scaron" horiz-adv-x="577" unicode="Š" d="M364 823h-132l-149 181h138l78 -99l79 99h134zM543 230q0 -54 -18.5 -99.5t-54 -78.5t-86 -51t-114.5 -18q-75 0 -139.5 25t-119.5 78l76 120q47 -44 88 -65.5t90 -21.5q57 0 87 28t30 68q0 32 -24.5 56.5t-81.5 47.5l-54 23q-86 32 -125.5 81t-39.5 119q0 47 17.5 88.5 t49.5 72.5t76 49t98 18q71 0 128.5 -20.5t95.5 -55.5l-68 -125q-38 29 -74 46t-71 17q-44 0 -69.5 -21.5t-25.5 -55.5q0 -32 24.5 -53t88.5 -46l58 -23q82 -33 120 -81.5t38 -121.5z"/>
<glyph glyph-name="scaron" horiz-adv-x="451" unicode="š" d="M304 591h-132l-148 180h137l79 -99l79 99h133zM424 160q0 -41 -16.5 -73.5t-44 -55t-65 -34.5t-79.5 -12q-61 0 -115 20t-94 55l61 96q25 -25 65.5 -42.5t77.5 -17.5q33 0 51 14.5t18 37.5q0 20 -17.5 32t-43.5 21.5t-56.5 20t-56.5 27t-43.5 43t-17.5 67.5q0 36 15 65 t41 50t61.5 32.5t77.5 11.5q53 0 90.5 -12.5t71.5 -34.5l-54 -97q-21 15 -46 25.5t-50 10.5q-30 0 -48 -14t-18 -35q0 -17 17.5 -27t43.5 -19t56.5 -19t56.5 -27t43.5 -42.5t17.5 -66.5z"/>
<glyph glyph-name="Ydieresis" horiz-adv-x="676" unicode="Ÿ" d="M301 897q0 -16 -6.5 -30.5t-17.5 -25.5t-25.5 -17.5t-31.5 -6.5q-16 0 -31 6.5t-26 17.5t-17.5 25.5t-6.5 30.5q0 33 24 57t57 24t57 -24t24 -57zM536 897q0 -16 -6.5 -30.5t-17.5 -25.5t-25.5 -17.5t-31.5 -6.5q-16 0 -31 6.5t-25.5 17.5t-17 25.5t-6.5 30.5 q0 33 23.5 57t56.5 24t57 -24t24 -57zM417 304v-304h-158v304l-270 450h185l164 -299h2l162 299h185z"/>
<glyph glyph-name="circumflex" horiz-adv-x="517" unicode="ˆ" d="M329 591l-79 97l-79 -97h-133l149 180h130l149 -180h-137z"/>
<glyph glyph-name="tilde" horiz-adv-x="491" unicode="˜" d="M456 759q0 -82 -35.5 -118t-98.5 -36q-19 0 -39 6.5t-39.5 15t-38 15t-34.5 6.5q-20 0 -30 -11.5t-10 -30.5h-95q0 81 35.5 117t98.5 36q20 0 40 -6.5t39.5 -15t37.5 -15t34 -6.5q20 0 30 11.5t10 31.5h95z"/>
<glyph glyph-name="endash" horiz-adv-x="500" unicode="–" d="M50 258v124h400v-124h-400z"/>
<glyph glyph-name="emdash" horiz-adv-x="750" unicode="—" d="M50 258v124h650v-124h-650z"/>
<glyph glyph-name="quoteleft" horiz-adv-x="307" unicode="‘" d="M235 499q0 -35 -24 -58.5t-59 -23.5q-44 0 -70.5 33t-26.5 80q0 33 11.5 67.5t31.5 66.5t46.5 61t57.5 50l52 -40q-36 -32 -63.5 -75t-34.5 -85q35 0 57 -22t22 -54z"/>
<glyph glyph-name="quotesinglbase" horiz-adv-x="307" unicode="‚" d="M72 90q0 35 24 58.5t59 23.5q44 0 70.5 -32.5t26.5 -79.5q0 -33 -11.5 -67.5t-31.5 -66.5t-47 -61t-58 -50l-51 41q36 32 63.5 74t34.5 84q-35 0 -57 22t-22 54z"/>
<glyph glyph-name="quotedblleft" horiz-adv-x="545" unicode="“" d="M235 499q0 -35 -24 -58.5t-59 -23.5q-44 0 -70.5 33t-26.5 80q0 33 11.5 67.5t31.5 66.5t46.5 61t57.5 50l52 -40q-36 -32 -63.5 -75t-34.5 -85q35 0 57 -22t22 -54zM473 499q0 -35 -24 -58.5t-59 -23.5q-44 0 -70.5 33t-26.5 80q0 33 11.5 67.5t31.5 66.5t46.5 61 t57.5 50l52 -40q-36 -32 -63.5 -75t-34.5 -85q35 0 57 -22t22 -54z"/>
<glyph glyph-name="quotedblright" horiz-adv-x="545" unicode="”" d="M310 688q0 35 24 58.5t59 23.5q44 0 70.5 -32.5t26.5 -79.5q0 -33 -11.5 -67.5t-31.5 -67t-46.5 -61.5t-57.5 -50l-52 41q36 32 63.5 74.5t34.5 84.5q-35 0 -57 22t-22 54zM72 688q0 35 24 58.5t59 23.5q44 0 70.5 -32.5t26.5 -79.5q0 -33 -11.5 -67.5t-31.5 -67 t-47 -61.5t-58 -50l-51 41q36 32 63.5 74.5t34.5 84.5q-35 0 -57 22t-22 54z"/>
<glyph glyph-name="dagger" horiz-adv-x="579" unicode="†" d="M357 410v-589h-136v589h-177v118h177v226h136v-226h178v-118h-178z"/>
<glyph glyph-name="daggerdbl" horiz-adv-x="579" unicode="‡" d="M357 50v-229h-136v229h-178v119h178v240h-177v119h177v226h136v-226h178v-119h-178v-240h177v-119h-177z"/>
<glyph glyph-name="ellipsis" horiz-adv-x="901" unicode="…" d="M245 69q0 -18 -7 -33.5t-19 -27t-27.5 -18.5t-33.5 -7t-33.5 7t-27.5 18.5t-18.5 27t-6.5 33.5t6.5 33.5t18.5 27.5t27.5 19t33.5 7t33.5 -7t27.5 -19t19 -27.5t7 -33.5zM537 69q0 -18 -7 -33.5t-19 -27t-27.5 -18.5t-33.5 -7t-33.5 7t-27 18.5t-18.5 27t-7 33.5t7 33.5 t18.5 27.5t27 19t33.5 7t33.5 -7t27.5 -19t19 -27.5t7 -33.5zM829 69q0 -18 -7 -33.5t-19 -27t-27.5 -18.5t-33.5 -7t-33.5 7t-27 18.5t-18.5 27t-7 33.5t7 33.5t18.5 27.5t27 19t33.5 7t33.5 -7t27.5 -19t19 -27.5t7 -33.5z"/>
<glyph glyph-name="perthousand" horiz-adv-x="1239" unicode="‰" d="M710 185q0 45 -21.5 77.5t-56.5 32.5q-36 0 -57.5 -31.5t-21.5 -77.5q0 -23 5.5 -43t16 -35t25 -23.5t32.5 -8.5q36 0 57 31t21 78zM1115 185q0 45 -21.5 77.5t-56.5 32.5q-36 0 -57.5 -31.5t-21.5 -77.5t21.5 -78t56.5 -32q36 0 57.5 31t21.5 78zM280 567q0 46 -21.5 78 t-56.5 32q-36 0 -58 -31t-22 -78q0 -22 5.5 -42t16 -35t25 -24t32.5 -9q35 0 57 31.5t22 77.5zM806 185q0 -42 -13 -77.5t-36 -61.5t-55 -40.5t-71 -14.5t-70.5 14.5t-54.5 41t-35.5 62t-12.5 77.5t13 77.5t36 61.5t55 40.5t71 14.5t70.5 -15t54.5 -41t35.5 -61.5 t12.5 -77.5zM1211 185q0 -42 -13 -77.5t-36.5 -61.5t-55.5 -40.5t-71 -14.5t-70.5 14.5t-54.5 41t-35.5 62t-12.5 77.5t13 77.5t36 61.5t55 40.5t71 14.5t71 -15t55 -41t35.5 -61.5t12.5 -77.5zM240 -3l-88 3l440 758l88 -3zM376 567q0 -42 -13 -77.5t-36.5 -61.5 t-55.5 -40.5t-71 -14.5t-70.5 15t-54.5 41t-35.5 61.5t-12.5 77.5t13 77.5t36.5 61.5t55.5 41t71 15t70.5 -15t54.5 -41t35.5 -62t12.5 -78z"/>
<glyph glyph-name="guilsinglleft" horiz-adv-x="327" unicode="‹" d="M193 28l-165 227l165 226l82 -58l-125 -168l127 -166z"/>
<glyph glyph-name="guilsinglright" horiz-adv-x="327" unicode="›" d="M133 28l-84 61l127 166l-125 168l82 58l165 -226z"/>
<glyph glyph-name="trademark" horiz-adv-x="551" unicode="™" d="M434 516l-18 130h-3l-48 -131h-35l-46 131h-3l-20 -130h-60l44 238h53l50 -129l52 129h54l40 -238h-60zM140 699v-183h-58v183h-52v55h161v-55h-51z"/>
</font>
</defs>
</svg>
