<?xml version="1.0" encoding="UTF-8" standalone="no"?>
<!DOCTYPE svg  PUBLIC '-//W3C//DTD SVG 1.1//EN'  'http://www.w3.org/Graphics/SVG/1.1/DTD/svg11.dtd'>
<svg xmlns="http://www.w3.org/2000/svg">
<defs>
<font id="LuzSans-Bold" horiz-adv-x="867">
<font-face underline-position="0" font-weight="500" descent="-200" panose-1="2 0 8 3 4 0 0 2 0 3" units-per-em="1000" unicode-range="U+0020-2122" bbox="-85 -267 1236 1015" x-height="513" underline-thickness="150" font-family="LuzSans" ascent="800" cap-height="754"/>
<missing-glyph horiz-adv-x="1000"/>
<glyph glyph-name=".notdef" horiz-adv-x="1000"/>
<glyph glyph-name=".null" horiz-adv-x="0"/>
<glyph glyph-name="nonmarkingreturn" horiz-adv-x="1000"/>
<glyph glyph-name="space" horiz-adv-x="263" unicode=" "/>
<glyph glyph-name="space" horiz-adv-x="263" unicode=" "/>
<glyph glyph-name="exclam" horiz-adv-x="380" unicode="!" d="M303 91q0 -23 -8.5 -43t-23.5 -35t-35.5 -24t-43.5 -9t-43.5 9t-35.5 24t-23.5 35t-8.5 43t8.5 43.5t23.5 35.5t35.5 23.5t43.5 8.5t43.5 -8.5t35.5 -23.5t23.5 -35.5t8.5 -43.5zM101 266v488h176v-488h-176z"/>
<glyph glyph-name="quotedbl" horiz-adv-x="633" unicode='&quot;' d="M174 423h-121l130 331h175zM430 423h-121l130 331h175z"/>
<glyph glyph-name="numbersign" horiz-adv-x="732" unicode="#" d="M314 444q-6 -40 -10 -73q-4 -28 -7 -50.5t-4 -22.5h124l21 146h-124zM681 444h-113q-6 -40 -10 -73q-4 -28 -7 -50.5t-4 -22.5h112l-17 -119h-111l-25 -179h-130l25 179h-124l-25 -179h-130l25 179h-114l17 119h113l21 146h-111l17 119h111l26 191h130l-26 -191h124 l26 191h130l-26 -191h113z"/>
<glyph glyph-name="dollar" horiz-adv-x="606" unicode="$" d="M566 241q0 -99 -53 -165t-150 -87v-112h-113v103q-63 3 -123.5 21.5t-120.5 61.5l80 157q29 -19 53 -33t45 -22t41.5 -12t41.5 -4q53 0 76.5 21t23.5 55q0 28 -23.5 44t-59 29.5t-76.5 27.5t-76.5 38.5t-59 63t-23.5 100.5q0 44 14 83.5t40.5 71.5t63.5 54t83 31v106h113 v-103q56 -5 102 -21t79 -40l-75 -159q-84 53 -145 53q-38 0 -59.5 -17.5t-21.5 -43.5q0 -27 24 -43t60 -29.5t77.5 -28t77.5 -39t60 -63t24 -99.5z"/>
<glyph glyph-name="percent" horiz-adv-x="856" unicode="%" d="M713 188q0 40 -18 69t-47 29q-30 0 -48 -28t-18 -69q0 -40 18 -69t47 -29q30 0 48 27.5t18 69.5zM274 565q0 40 -18 69t-47 29q-30 0 -48.5 -27.5t-18.5 -69.5q0 -40 18.5 -69t47.5 -29t47.5 28t18.5 69zM827 188q0 -43 -13 -79t-37 -62.5t-57 -41.5t-74 -15 q-40 0 -73 15t-56.5 41.5t-36 63t-12.5 79.5t13 79t37 62.5t57.5 41.5t73.5 15q41 0 73.5 -15t56 -41.5t36 -63t12.5 -79.5zM262 0h-107l438 754h107zM388 565q0 -43 -13 -79t-37 -62.5t-57 -41.5t-74 -15q-40 0 -73 15t-56.5 41.5t-36 63t-12.5 79.5t13 79t37 62.5 t57.5 41.5t73.5 15q41 0 73.5 -15t56 -41.5t36 -63t12.5 -79.5z"/>
<glyph glyph-name="ampersand" horiz-adv-x="763" unicode="&amp;" d="M276 321q-31 -20 -46.5 -42t-15.5 -55q0 -37 29 -59.5t70 -22.5q23 0 47.5 9t47.5 23zM416 569q0 29 -17.5 49.5t-43.5 20.5q-35 0 -52.5 -19t-17.5 -47q0 -25 14 -54t35 -46q44 21 63 44t19 52zM569 0l-57 61q-58 -42 -114 -61.5t-117 -19.5q-55 0 -101 16.5t-78.5 46 t-50.5 69.5t-18 87q0 70 37 123t120 95q-38 41 -56.5 76.5t-18.5 77.5t16.5 79t46.5 64.5t73 43.5t97 16q57 0 98.5 -15.5t68.5 -42t40.5 -62t13.5 -75.5q0 -63 -38 -111.5t-112 -83.5l107 -113q49 54 94 117l116 -92q-29 -38 -56 -71.5t-54 -62.5l148 -162h-205z"/>
<glyph glyph-name="quotesingle" horiz-adv-x="377" unicode="&apos;" d="M174 423h-121l130 331h175z"/>
<glyph glyph-name="parenleft" horiz-adv-x="385" unicode="(" d="M270 -229q-45 44 -83 102t-65.5 124.5t-42.5 139.5t-15 147t15 146.5t42.5 139t65.5 124.5t83 102l120 -96q-37 -47 -66.5 -100t-50.5 -107t-32 -107t-11 -99q0 -100 39.5 -207t120.5 -213z"/>
<glyph glyph-name="parenright" horiz-adv-x="385" unicode=")" d="M305 284q0 -74 -15 -147t-42.5 -139.5t-65.5 -124.5t-83 -102l-120 96q81 106 120.5 213t39.5 207t-39 203t-121 210l120 96q45 -44 83 -102t65.5 -124.5t42.5 -139t15 -146.5z"/>
<glyph glyph-name="asterisk" horiz-adv-x="388" unicode="*" d="M318 454l-85 50l1 -98h-90l1 98l-85 -50l-44 78l85 48l-85 48l44 78l85 -50l-1 98h90l-1 -98l85 50l44 -78l-85 -48l85 -48z"/>
<glyph glyph-name="plus" horiz-adv-x="686" unicode="+" d="M418 303v-182h-150v182h-181v150h181v181h150v-181h181v-150h-181z"/>
<glyph glyph-name="comma" horiz-adv-x="342" unicode="," d="M60 111q0 21 7.5 39t21 31t31.5 20.5t39 7.5q26 0 47.5 -10t36.5 -27.5t23 -40t8 -48.5q0 -37 -13 -74.5t-35.5 -72t-52.5 -65.5t-64 -54l-62 49q35 32 63.5 74t38.5 80q-40 2 -64.5 27.5t-24.5 63.5z"/>
<glyph glyph-name="hyphen" horiz-adv-x="400" unicode="-" d="M50 246v150h300v-150h-300z"/>
<glyph glyph-name="period" horiz-adv-x="320" unicode="." d="M265 85q0 -22 -8 -41t-22.5 -33.5t-33.5 -22.5t-41 -8t-41 8t-33 22.5t-22.5 33.5t-8.5 41t8.5 41t22.5 33.5t33 22.5t41 8t41 -8t33.5 -22.5t22.5 -33.5t8 -41z"/>
<glyph glyph-name="slash" horiz-adv-x="515" unicode="/" d="M108 -264h-143l422 1018h143z"/>
<glyph glyph-name="zero" horiz-adv-x="686" unicode="0" d="M467 376q0 51 -8.5 93.5t-24.5 72.5t-38 46.5t-48 16.5q-57 0 -93 -60.5t-36 -168.5q0 -51 9 -93t24.5 -72t37.5 -46.5t48 -16.5q57 0 93 60t36 168zM655 376q0 -88 -23.5 -160.5t-65.5 -125t-101 -81.5t-130 -29t-127.5 29t-95.5 81.5t-60 125t-21 160.5t23.5 161.5 t65.5 126t101 81.5t130 29t127.5 -29t95.5 -81.5t60 -126t21 -161.5z"/>
<glyph glyph-name="one" horiz-adv-x="440" unicode="1" d="M141 0v588h-108v166h304v-754h-196z"/>
<glyph glyph-name="two" horiz-adv-x="666" unicode="2" d="M611 514q0 -64 -26.5 -121.5t-85.5 -118.5l-106 -110h230v-164h-597l-1 2l289 313q33 36 54.5 64t34 51.5t17 44.5t4.5 43q0 40 -24.5 63.5t-69.5 23.5q-42 0 -65.5 -26t-23.5 -77v-14h-191v14q3 61 21.5 111t53.5 86t86.5 55.5t119.5 19.5t120 -19t87.5 -53.5t54 -82.5 t18.5 -105z"/>
<glyph glyph-name="three" horiz-adv-x="654" unicode="3" d="M613 230q0 -54 -19.5 -99.5t-55.5 -79t-86 -52.5t-112 -19q-64 0 -118.5 20.5t-94 55.5t-63 81.5t-25.5 97.5v14h196v-14q0 -38 25.5 -64t68.5 -26q45 0 69 23t24 71q0 45 -30 68.5t-82 23.5h-36v132h37q45 0 67.5 23t22.5 58q0 33 -22.5 53.5t-59.5 20.5 q-41 0 -60.5 -20.5t-19.5 -50.5v-14h-178v14q7 103 75.5 165t198.5 62q54 0 100 -16.5t80 -45t53 -67t19 -81.5q0 -99 -89 -155v-2q28 -11 49.5 -30.5t36 -43t22 -50.5t7.5 -53z"/>
<glyph glyph-name="four" horiz-adv-x="687" unicode="4" d="M378 507h-2l-149 -200v-1h151v201zM560 156v-156h-182v156h-343v125l344 473h181v-448h91v-150h-91z"/>
<glyph glyph-name="five" horiz-adv-x="628" unicode="5" d="M585 260q0 -55 -20.5 -106t-59.5 -89.5t-95 -61.5t-126 -23q-73 0 -133.5 17t-120.5 55l27 173q34 -21 60 -35.5t48.5 -22.5t44.5 -11.5t49 -3.5q54 0 90 29.5t36 87.5q0 45 -41 72.5t-109 27.5q-48 0 -83 -7.5t-67 -19.5l-10 7l49 405h407v-163h-251l-10 -80q10 2 22 2 h31q121 0 191.5 -64t70.5 -189z"/>
<glyph glyph-name="six" horiz-adv-x="686" unicode="6" d="M467 255q0 26 -9.5 48t-26 39t-39.5 26.5t-49 9.5q-27 0 -49.5 -9.5t-39.5 -26.5t-26.5 -39t-9.5 -48q0 -25 9.5 -47.5t26.5 -39t39.5 -26t49.5 -9.5q26 0 49 9.5t39.5 26t26 39t9.5 47.5zM651 262q0 -60 -21.5 -111.5t-61.5 -89.5t-97.5 -59.5t-128.5 -21.5 q-65 0 -121.5 20.5t-98.5 58t-66 89.5t-24 115q0 72 30 139.5t86 139.5l163 212h212l-210 -260l2 -2q20 11 42 17.5t48 6.5q57 0 102.5 -18t77.5 -51.5t49 -80.5t17 -104z"/>
<glyph glyph-name="seven" horiz-adv-x="605" unicode="7" d="M273 0h-215l270 588h-297v166h572z"/>
<glyph glyph-name="eight" horiz-adv-x="651" unicode="8" d="M423 230q0 19 -7 36t-20 29.5t-30 20t-38 7.5q-20 0 -37.5 -7.5t-30 -20t-19.5 -29.5t-7 -36q0 -39 26.5 -66t67.5 -27q42 0 68.5 27t26.5 66zM419 543q0 37 -24.5 62.5t-66.5 25.5q-41 0 -66 -25.5t-25 -62.5t25.5 -62.5t65.5 -25.5q41 0 66 25.5t25 62.5zM611 199 q0 -51 -20.5 -92t-57.5 -69t-89 -43t-116 -15t-116 15t-89 43t-57.5 69t-20.5 92q0 67 31 115t95 73v2q-54 23 -82.5 69t-28.5 102q0 47 19.5 86.5t54.5 68t84.5 44t109.5 15.5t109.5 -15.5t84.5 -44t54.5 -68t19.5 -86.5q0 -56 -28.5 -102t-82.5 -69v-2q64 -25 95 -73 t31 -115z"/>
<glyph glyph-name="nine" horiz-adv-x="686" unicode="9" d="M469 499q0 25 -9.5 47.5t-26.5 39t-39.5 26t-49.5 9.5q-26 0 -49 -9.5t-39.5 -26t-26 -39t-9.5 -47.5t9 -47.5t25.5 -39.5t39 -26.5t50.5 -9.5t51 9.5t39.5 26.5t25.5 39.5t9 47.5zM655 491q0 -72 -27.5 -135.5t-82.5 -135.5l-169 -220h-212l207 256l-2 2 q-18 -10 -36 -14t-44 -4q-55 0 -101.5 18t-80 51t-52.5 79.5t-19 103.5q0 62 22.5 113.5t63.5 89t99 58.5t129 21q65 0 121 -20.5t97 -58t64 -89.5t23 -115z"/>
<glyph glyph-name="colon" horiz-adv-x="342" unicode=":" d="M276 85q0 -22 -8 -41t-22.5 -33.5t-33.5 -22.5t-41 -8t-41 8t-33 22.5t-22.5 33.5t-8.5 41t8.5 41t22.5 33.5t33 22.5t41 8t41 -8t33.5 -22.5t22.5 -33.5t8 -41zM276 425q0 -22 -8 -41t-22.5 -33t-33.5 -22.5t-41 -8.5t-41 8.5t-33 22.5t-22.5 33t-8.5 41t8.5 41 t22.5 33.5t33 22.5t41 8t41 -8t33.5 -22.5t22.5 -33.5t8 -41z"/>
<glyph glyph-name="semicolon" horiz-adv-x="342" unicode=";" d="M60 111q0 21 7.5 39t21 31t31.5 20.5t39 7.5q26 0 47.5 -10t36.5 -27.5t23 -40t8 -48.5q0 -37 -13 -74.5t-35.5 -72t-52.5 -65.5t-64 -54l-62 49q35 32 63.5 74t38.5 80q-40 2 -64.5 27.5t-24.5 63.5zM276 425q0 -22 -8 -41t-22.5 -33t-33.5 -22.5t-41 -8.5t-41 8.5 t-33 22.5t-22.5 33t-8.5 41t8.5 41t22.5 33.5t33 22.5t41 8t41 -8t33.5 -22.5t22.5 -33.5t8 -41z"/>
<glyph glyph-name="less" horiz-adv-x="605" unicode="&lt;" d="M306 382l233 -162l-90 -122l-393 267v30l393 263l90 -121z"/>
<glyph glyph-name="equal" horiz-adv-x="686" unicode="=" d="M87 182v150h512v-150h-512zM87 422v150h512v-150h-512z"/>
<glyph glyph-name="greater" horiz-adv-x="605" unicode="&gt;" d="M156 98l-90 122l233 162l-233 155l90 121l393 -263v-30z"/>
<glyph glyph-name="question" horiz-adv-x="587" unicode="?" d="M386 91q0 -23 -8.5 -43t-23.5 -35t-35.5 -24t-43.5 -9t-43.5 9t-35.5 24t-23.5 35t-8.5 43t8.5 43.5t23.5 35.5t35.5 23.5t43.5 8.5t43.5 -8.5t35.5 -23.5t23.5 -35.5t8.5 -43.5zM540 540q0 -42 -13.5 -77.5t-37.5 -63.5t-56.5 -47t-71.5 -29v-66h-179v184h24q30 0 57 6 t47.5 18.5t32.5 31t12 43.5q0 31 -20 53t-52 22q-37 0 -55.5 -21t-18.5 -55h-191q0 56 18.5 100t51.5 74t79.5 45.5t102.5 15.5q57 0 106 -18t85.5 -49.5t57.5 -74t21 -92.5z"/>
<glyph glyph-name="at" horiz-adv-x="895" unicode="@" d="M518 385q0 29 -19 50t-51 21q-22 0 -39.5 -8t-29.5 -21.5t-18.5 -30.5t-6.5 -35q0 -35 21.5 -54t52.5 -19q42 0 66 29t24 68zM855 420q0 -49 -15 -93.5t-42 -77.5t-64 -52.5t-80 -19.5q-44 0 -76 19.5t-43 60.5h-1q-24 -34 -59 -54t-86 -20q-30 0 -58.5 11.5t-50.5 33 t-35 52.5t-13 69q0 46 16.5 84.5t44.5 67t65 44.5t77 16q36 0 61 -15t40 -38h1l7 41h125l-31 -197q-3 -16 -3 -32q0 -15 4.5 -27t14 -19.5t25.5 -7.5q24 0 42.5 12.5t31 33.5t19.5 49.5t7 60.5q0 54 -23 104t-64 88.5t-99 62t-128 23.5q-79 0 -143 -26t-108 -71.5 t-68 -108.5t-24 -137q0 -66 24.5 -122t68.5 -96t106 -62.5t138 -22.5q82 0 146 20.5t107 47.5v-80q-42 -25 -106.5 -43.5t-149.5 -18.5q-78 0 -152 24t-131.5 71.5t-92 118t-34.5 163.5t33.5 170t90.5 132t132 85t158 30q89 0 162 -27.5t124.5 -75.5t80 -112.5t28.5 -138.5z "/>
<glyph glyph-name="A" horiz-adv-x="781" unicode="A" d="M391 497h-2l-81 -216h162zM573 0l-48 131h-274l-49 -131h-206l310 754h174l304 -754h-211z"/>
<glyph glyph-name="B" horiz-adv-x="650" unicode="B" d="M435 230q0 38 -24.5 60t-74.5 22h-76v-162h65q52 0 81 21t29 59zM399 531q0 32 -20.5 52.5t-65.5 20.5h-53v-146h56q41 0 62 20.5t21 52.5zM623 220q0 -48 -16 -88.5t-47.5 -70t-77.5 -45.5t-107 -16h-311v754h280q117 0 175.5 -51t58.5 -145q0 -51 -27.5 -91t-75.5 -63 v-2q28 -4 54.5 -19.5t47.5 -39.5t33.5 -55.5t12.5 -67.5z"/>
<glyph glyph-name="C" horiz-adv-x="640" unicode="C" d="M608 16q-47 -17 -87.5 -26t-79.5 -9q-99 0 -175 31t-128 84.5t-78.5 126t-26.5 155.5t27 155.5t78.5 126t126.5 84t171 30.5q45 0 87.5 -9.5t84.5 -25.5v-217l-2 -2q-32 37 -76.5 55t-93.5 18q-46 0 -83.5 -15t-63.5 -43t-40.5 -68t-14.5 -89q0 -48 15 -88t42 -68.5 t65.5 -44.5t84.5 -16q22 0 45 5t45 14t41 22t34 29l2 -2v-213z"/>
<glyph glyph-name="D" horiz-adv-x="753" unicode="D" d="M521 377q0 96 -55 153.5t-157 57.5h-49v-422h49q50 0 89 15t66.5 42.5t42 66.5t14.5 87zM725 377q0 -77 -30.5 -145.5t-83.5 -120t-124 -81.5t-152 -30h-271v754h271q82 0 153 -30t123.5 -82t83 -120t30.5 -145z"/>
<glyph glyph-name="E" horiz-adv-x="547" unicode="E" d="M64 0v754h429v-166h-233v-126h221v-156h-221v-140h233v-166h-429z"/>
<glyph glyph-name="F" horiz-adv-x="538" unicode="F" d="M260 588v-137h215v-166h-215v-285h-196v754h433v-166h-237z"/>
<glyph glyph-name="G" horiz-adv-x="839" unicode="G" d="M809 421q-1 -41 -3 -79.5t-9.5 -74.5t-22 -71.5t-39.5 -70.5q-56 -78 -134.5 -111.5t-173.5 -33.5q-88 0 -161 32t-126 86t-82.5 125.5t-29.5 149.5q0 85 30 158t83.5 127t128 85t164.5 31q119 0 211.5 -50.5t146.5 -160.5l-172 -73q-37 62 -81.5 87.5t-108.5 25.5 q-44 0 -80.5 -17.5t-62.5 -48.5t-40.5 -72t-14.5 -88q0 -45 14.5 -86t40.5 -72t62 -49.5t79 -18.5q33 0 62.5 7.5t52 22.5t36.5 36.5t17 49.5h-170v154h383z"/>
<glyph glyph-name="H" horiz-adv-x="799" unicode="H" d="M543 0v309h-283v-309h-196v754h196v-291h283v291h196v-754h-196z"/>
<glyph glyph-name="I" horiz-adv-x="318" unicode="I" d="M64 0v754h196v-754h-196z"/>
<glyph glyph-name="J" horiz-adv-x="406" unicode="J" d="M370 198q0 -57 -18.5 -98t-50.5 -68t-75.5 -39.5t-94.5 -12.5q-35 0 -64.5 5.5t-49.5 14.5v171q22 -11 43.5 -16.5t40.5 -5.5q38 0 55.5 17.5t17.5 57.5v530h196v-556z"/>
<glyph glyph-name="K" horiz-adv-x="725" unicode="K" d="M486 0l-224 327h-2v-327h-196v754h196v-311h2l224 311h229l-280 -357l291 -397h-240z"/>
<glyph glyph-name="L" horiz-adv-x="505" unicode="L" d="M64 0v754h196v-588h235v-166h-431z"/>
<glyph glyph-name="M" horiz-adv-x="983" unicode="M" d="M768 0l-55 434h-2l-181 -434h-78l-173 434h-2l-63 -434h-195l128 754h193l153 -403l162 403h195l114 -754h-196z"/>
<glyph glyph-name="N" horiz-adv-x="865" unicode="N" d="M618 0l-359 452h-2v-452h-193v754h183l359 -449h2v449h193v-754h-183z"/>
<glyph glyph-name="O" d="M638 377q0 48 -15 89.5t-42 71.5t-65 47.5t-85 17.5q-46 0 -83.5 -16.5t-63.5 -46.5t-40.5 -71.5t-14.5 -90.5q0 -48 15 -89.5t42 -72t65.5 -48t84.5 -17.5t83.5 17t63.5 47t40.5 71.5t14.5 90.5zM839 377q0 -83 -29 -155.5t-82 -126t-127.5 -84.5t-164.5 -31 q-91 0 -166 31t-129 85t-83.5 126.5t-29.5 155.5t29 155.5t82 126t127.5 84t164.5 30.5q91 0 166 -31t129 -84.5t83.5 -126t29.5 -155.5z" unicode="O"/>
<glyph glyph-name="P" horiz-adv-x="661" unicode="P" d="M430 502q0 47 -30 70.5t-102 23.5h-38v-188h38q72 0 102 23.5t30 70.5zM625 502q0 -58 -18.5 -104.5t-53 -79.5t-84 -50.5t-111.5 -17.5h-98v-250h-196v754h294q62 0 111.5 -17.5t84 -50.5t53 -79.5t18.5 -104.5z"/>
<glyph glyph-name="Q" d="M638 377q0 48 -15 89.5t-42 71.5t-65 47.5t-85 17.5q-46 0 -83.5 -16.5t-63.5 -46.5t-40.5 -71.5t-14.5 -90.5q0 -48 15 -89.5t42 -72t65.5 -48t84.5 -17.5q39 0 72 12l-6 7q-6 7 -16.5 18t-23.5 24.5t-27 28.5q-33 34 -73 77h206l48 -51q22 50 22 110zM839 377 q0 -73 -22 -137.5t-64 -115.5l138 -144h-207l-46 48q-43 -23 -94 -35.5t-108 -12.5q-91 0 -166 31t-129 85t-83.5 126.5t-29.5 155.5t29 155.5t82 126t127.5 84t164.5 30.5q91 0 166 -31t129 -84.5t83.5 -126t29.5 -155.5z" unicode="Q"/>
<glyph glyph-name="R" horiz-adv-x="668" unicode="R" d="M415 510q0 47 -29 70.5t-93 23.5h-33v-188h29q65 0 95.5 24t30.5 70zM462 0l-199 290h-3v-290h-196v754h283q132 0 202 -63t70 -169q0 -33 -11 -66.5t-31.5 -62.5t-50 -50.5t-66.5 -32.5l231 -310h-229z"/>
<glyph glyph-name="S" horiz-adv-x="595" unicode="S" d="M566 241q0 -60 -19.5 -108t-57 -82t-92 -52.5t-123.5 -18.5q-70 0 -136 18t-132 65l80 157q29 -19 53 -33t45 -22t41.5 -12t41.5 -4q51 0 75.5 20t24.5 52q0 24 -22.5 43.5t-76.5 39.5l-53 20q-92 33 -129 84.5t-37 119.5q0 51 18.5 95.5t53 78t82.5 53t106 19.5 q73 0 133 -17.5t102 -46.5l-75 -159q-84 53 -145 53q-38 0 -59.5 -17.5t-21.5 -43.5q0 -12 5 -22t17 -19t32.5 -18.5t51.5 -20.5l59 -22q82 -31 120 -79t38 -121z"/>
<glyph glyph-name="T" horiz-adv-x="563" unicode="T" d="M373 588v-588h-196v588h-162v166h520v-166h-162z"/>
<glyph glyph-name="U" horiz-adv-x="773" unicode="U" d="M718 301q0 -73 -20 -133t-61 -103t-102.5 -66.5t-145.5 -23.5t-146 23.5t-102.5 66t-60.5 103t-20 133.5v453h196v-417q0 -55 7.5 -91.5t24 -58.5t43 -31.5t63.5 -9.5q36 0 60.5 9.5t39.5 31.5t21.5 58.5t6.5 91.5v417h196v-453z"/>
<glyph glyph-name="V" horiz-adv-x="761" unicode="V" d="M434 0h-112l-337 754h216l181 -450h2l182 450h210z"/>
<glyph glyph-name="W" horiz-adv-x="1072" unicode="W" d="M853 0h-200l-113 437h-2l-129 -437h-199l-225 754h204l131 -487h2l139 487h156l129 -487h2l142 487h204z"/>
<glyph glyph-name="X" horiz-adv-x="750" unicode="X" d="M517 0l-147 232h-2l-153 -232h-224l270 379l-263 375h236l140 -227h1l147 227h232l-272 -375l264 -379h-229z"/>
<glyph glyph-name="Y" horiz-adv-x="716" unicode="Y" d="M457 299v-299h-196v299l-278 455h232l144 -269h1l142 269h231z"/>
<glyph glyph-name="Z" horiz-adv-x="707" unicode="Z" d="M341 166h316v-166h-646l357 588h-296v166h624z"/>
<glyph glyph-name="bracketleft" horiz-adv-x="380" unicode="[" d="M52 -240v1030h276v-146h-110v-738h110v-146h-276z"/>
<glyph glyph-name="backslash" horiz-adv-x="495" unicode="\" d="M387 -264l-422 1018h143l422 -1018h-143z"/>
<glyph glyph-name="bracketright" horiz-adv-x="380" unicode="]" d="M52 -240v146h110v738h-110v146h276v-1030h-276z"/>
<glyph glyph-name="underscore" horiz-adv-x="500" unicode="_" d="M50 -188v150h400v-150h-400z"/>
<glyph glyph-name="grave" horiz-adv-x="342" unicode="`" d="M177 604l-161 179h204l94 -179h-137z"/>
<glyph glyph-name="a" horiz-adv-x="674" unicode="a" d="M444 256q0 24 -8.5 46t-24 39t-37.5 27t-50 10t-50.5 -10t-38.5 -27t-25 -39t-9 -46t9 -46t25 -38.5t38.5 -26.5t50.5 -10t50 10t37.5 26.5t24 38.5t8.5 46zM438 0v52h-2q-20 -29 -61.5 -49t-98.5 -20q-45 0 -89.5 18.5t-79 54t-56 86.5t-21.5 115q0 55 20 104.5t54.5 87 t81 59.5t98.5 22q103 0 152 -63h2v46h182v-513h-182z"/>
<glyph glyph-name="b" horiz-adv-x="662" unicode="b" d="M469 256q0 24 -9 46t-25 39t-38.5 27t-50.5 10t-50 -10t-37.5 -27t-24 -39t-8.5 -46t8.5 -46t24 -38.5t37.5 -26.5t50 -10t50.5 10t38.5 26.5t25 38.5t9 46zM640 267q0 -64 -21 -116.5t-55.5 -90t-78.5 -57.5t-91 -20q-57 0 -97 18.5t-63 50.5h-2v-52h-182v830h182v-363 h2q26 30 68.5 46.5t93.5 16.5q52 0 96.5 -20.5t77.5 -56t51.5 -83.5t18.5 -103z"/>
<glyph glyph-name="c" horiz-adv-x="471" unicode="c" d="M439 12q-30 -14 -60.5 -21.5t-71.5 -7.5q-60 0 -112.5 19.5t-90.5 55t-60 86t-22 112.5q0 61 21 111.5t59 86.5t91 56t117 20q39 0 71 -8t58 -22v-166q-21 17 -52.5 30.5t-63.5 13.5q-58 0 -94 -30t-36 -87q0 -28 10 -50.5t28 -38t42.5 -24t52.5 -8.5q34 0 64 11t49 27 v-166z"/>
<glyph glyph-name="d" horiz-adv-x="682" unicode="d" d="M450 256q0 21 -9 41.5t-24.5 37t-37 27t-46.5 10.5q-28 0 -49.5 -9.5t-36 -25t-22 -36.5t-7.5 -45q0 -49 29.5 -82t85.5 -33t86.5 33t30.5 82zM446 0v65h-2q-24 -38 -66.5 -60t-93.5 -22q-54 0 -100 20t-80.5 55.5t-54 84.5t-19.5 106q0 55 19 106t52.5 90t81 62 t104.5 23q45 0 86.5 -16.5t70.5 -50.5h2v367h182v-830h-182z"/>
<glyph glyph-name="e" horiz-adv-x="608" unicode="e" d="M414 318q-7 39 -35.5 61.5t-66.5 22.5q-45 0 -72 -22t-38 -62h212zM200 219q5 -54 38.5 -76.5t77.5 -22.5q38 0 62.5 13.5t38.5 33.5h163q-11 -45 -36.5 -79.5t-61 -58t-77.5 -35t-86 -11.5q-64 0 -118 17.5t-94 51.5t-62.5 85t-22.5 117q0 64 21 115t58.5 87t89.5 55 t115 19q67 0 120 -20t89.5 -59.5t54.5 -94.5t18 -123v-14h-388z"/>
<glyph glyph-name="f" horiz-adv-x="393" unicode="f" d="M260 363v-363h-182v363h-64v150h64v104q0 57 18 99t48.5 69.5t71.5 41t86 13.5q21 0 43.5 -4t41.5 -14v-159q-14 9 -29 14t-33 5q-35 0 -50 -20.5t-15 -65.5v-83h127v-150h-127z"/>
<glyph glyph-name="g" horiz-adv-x="674" unicode="g" d="M444 256q0 24 -8.5 46t-24 39t-37.5 27t-50 10t-50.5 -10t-38.5 -27t-25 -39t-9 -46t9 -46t25 -38.5t38.5 -26.5t50.5 -10t50 10t37.5 26.5t24 38.5t8.5 46zM620 45q0 -79 -21.5 -137t-61 -96.5t-94.5 -57t-121 -18.5q-54 0 -101.5 11.5t-84 36t-61 63.5t-33.5 93h185 q8 -31 35.5 -46.5t68.5 -15.5q51 0 79 36t28 113v25h-2q-20 -29 -61.5 -49t-98.5 -20q-45 0 -89.5 18.5t-79 54t-56 86.5t-21.5 115q0 55 20 104.5t54.5 87t81 59.5t98.5 22q103 0 152 -63h2v46h182v-468z"/>
<glyph glyph-name="h" horiz-adv-x="661" unicode="h" d="M419 0v263q0 23 -2.5 44.5t-11.5 39t-26.5 28t-47.5 10.5q-27 0 -44.5 -10.5t-27 -28t-13.5 -39t-4 -44.5v-263h-182v830h182v-382h2q32 42 71 62t93 20q49 0 85 -15.5t60 -44t36 -68t12 -88.5v-314h-182z"/>
<glyph glyph-name="i" horiz-adv-x="302" unicode="i" d="M60 0v513h182v-513h-182zM248 695q0 -20 -7.5 -37.5t-21 -31t-31 -21t-37.5 -7.5t-37.5 7.5t-31 21t-21 31t-7.5 37.5t7.5 37.5t21 31t31 21t37.5 7.5t37.5 -7.5t31 -21t21 -31t7.5 -37.5z"/>
<glyph glyph-name="j" horiz-adv-x="302" unicode="j" d="M242 -35q0 -53 -17.5 -95.5t-48 -72t-71 -45.5t-87.5 -16q-21 0 -43.5 4t-41.5 14v157q16 -7 31 -12t33 -5q35 0 49 21t14 65v533h182v-548zM248 695q0 -20 -7.5 -37.5t-21 -31t-31 -21t-37.5 -7.5t-37.5 7.5t-31 21t-21 31t-7.5 37.5t7.5 37.5t21 31t31 21t37.5 7.5 t37.5 -7.5t31 -21t21 -31t7.5 -37.5z"/>
<glyph glyph-name="k" horiz-adv-x="618" unicode="k" d="M405 0l-162 209h-1v-209h-182v830h182v-502l162 185h216l-230 -237l237 -276h-222z"/>
<glyph glyph-name="l" horiz-adv-x="302" unicode="l" d="M60 0v830h182v-830h-182z"/>
<glyph glyph-name="m" horiz-adv-x="989" unicode="m" d="M748 0v264q0 60 -13.5 90.5t-61.5 30.5q-53 0 -70 -30.5t-17 -90.5v-264h-182v264q0 31 -3 54.5t-11.5 39t-24.5 23.5t-42 8t-42 -8t-24.5 -23.5t-11.5 -39t-3 -54.5v-264h-182v513h182v-64h2q32 43 72 62t90 19q56 0 98.5 -23.5t70.5 -74.5q26 48 73.5 73t100.5 25 q49 0 83.5 -15t56 -42t31.5 -64.5t10 -81.5v-327h-182z"/>
<glyph glyph-name="n" horiz-adv-x="639" unicode="n" d="M409 0v250v41q0 24 -7 45t-24 35t-51 14q-28 0 -46 -9.5t-29 -26t-15.5 -38t-4.5 -45.5v-266h-182v513h182v-66h2q27 42 73 62.5t102 20.5q92 0 137 -56.5t45 -156.5v-317h-182z"/>
<glyph glyph-name="o" horiz-adv-x="627" unicode="o" d="M434 256q0 52 -32 87t-88 35t-88.5 -35t-32.5 -87q0 -51 31 -86t88 -35q58 0 90 35t32 86zM605 256q0 -58 -20.5 -107.5t-58.5 -86.5t-92 -58t-122 -21t-121.5 21t-91 58t-57.5 86.5t-20 107.5q0 62 20.5 112.5t58.5 86.5t92 55.5t121 19.5q69 0 123 -21t91.5 -58t57 -87 t19.5 -108z"/>
<glyph glyph-name="p" horiz-adv-x="662" unicode="p" d="M469 256q0 24 -9 46t-25 39t-38.5 27t-50.5 10t-50 -10t-37.5 -27t-24 -39t-8.5 -46t8.5 -46t24 -38.5t37.5 -26.5t50 -10t50.5 10t38.5 26.5t25 38.5t9 46zM640 267q0 -64 -21 -116.5t-55.5 -90t-78.5 -57.5t-91 -20q-57 0 -97 18.5t-63 50.5h-2v-308h-182v769h182v-46 h2q26 30 68.5 46.5t93.5 16.5q52 0 96.5 -20.5t77.5 -56t51.5 -83.5t18.5 -103z"/>
<glyph glyph-name="q" horiz-adv-x="682" unicode="q" d="M450 256q0 21 -9 41.5t-24.5 37t-37 27t-46.5 10.5q-28 0 -49.5 -9.5t-36 -25t-22 -36.5t-7.5 -45q0 -49 29.5 -82t85.5 -33t86.5 33t30.5 82zM446 -256v321h-2q-24 -38 -66.5 -60t-93.5 -22t-97 19t-81 53.5t-55.5 84t-20.5 109.5q0 55 19 106t52.5 90t81 62t104.5 23 q45 0 86.5 -16.5t70.5 -50.5h2v50h182v-769h-182z"/>
<glyph glyph-name="r" horiz-adv-x="453" unicode="r" d="M435 343q-20 8 -40 12.5t-44 4.5q-35 0 -58 -10.5t-36.5 -30t-19 -48t-5.5 -64.5v-207h-182v513h182v-84h4q24 45 66.5 69t99.5 24q8 0 16.5 -0.5t16.5 -1.5v-177z"/>
<glyph glyph-name="s" horiz-adv-x="477" unicode="s" d="M453 169q0 -44 -18 -78.5t-48.5 -58.5t-71 -36.5t-86.5 -12.5q-63 0 -120.5 15t-104.5 44l66 125q14 -10 33 -18.5t39.5 -15t41 -10t37.5 -3.5q57 0 57 35q0 17 -17.5 26t-43.5 17t-56.5 17.5t-56.5 26.5t-43.5 44.5t-17.5 71.5q0 39 16.5 70.5t45 54t68.5 35t86 12.5 q55 0 95 -9.5t80 -27.5l-60 -122q-23 12 -49 20t-49 8q-28 0 -44 -10.5t-16 -27.5q0 -14 17.5 -22.5t44 -16t57 -16.5t57 -25.5t44 -43t17.5 -68.5z"/>
<glyph glyph-name="t" horiz-adv-x="370" unicode="t" d="M259 363v-363h-182v363h-59v150h59v154h182v-154h103v-150h-103z"/>
<glyph glyph-name="u" horiz-adv-x="648" unicode="u" d="M597 232q0 -63 -20 -110t-56.5 -78t-86.5 -46t-110 -15q-61 0 -111 15t-86 46t-56 78t-20 110v281h182v-257q0 -28 3.5 -51t13.5 -39.5t28 -25.5t46 -9t46 9t28 25.5t13.5 39.5t3.5 51v257h182v-281z"/>
<glyph glyph-name="v" horiz-adv-x="583" unicode="v" d="M350 0h-116l-251 513h202l112 -275h2l110 275h191z"/>
<glyph glyph-name="w" horiz-adv-x="843" unicode="w" d="M664 0h-140l-102 277l-98 -277h-145l-196 513h194l85 -278h1l100 278h118l99 -278h1l87 278h192z"/>
<glyph glyph-name="x" horiz-adv-x="603" unicode="x" d="M391 0l-94 138h-2l-96 -138h-202l203 256l-203 257h214l95 -138h2l96 138h202l-203 -256l203 -257h-215z"/>
<glyph glyph-name="y" horiz-adv-x="630" unicode="y" d="M251 -256h-189l161 324l-240 445h212l127 -267h1l123 267h199z"/>
<glyph glyph-name="z" horiz-adv-x="559" unicode="z" d="M308 150h220v-150h-520l245 363h-213v150h512z"/>
<glyph glyph-name="braceleft" horiz-adv-x="352" unicode="{" d="M314 -241q-104 0 -163 48.5t-59 136.5v170q0 44 -19.5 66.5t-50.5 22.5v144q31 0 50.5 22.5t19.5 66.5v170q0 87 59 135.5t163 48.5v-147q-29 0 -42.5 -19.5t-13.5 -70.5v-171q0 -91 -96 -106v-2q96 -15 96 -106v-171q0 -51 13.5 -70.5t42.5 -20.5v-147z"/>
<glyph glyph-name="bar" horiz-adv-x="319" unicode="|" d="M85 -264v1018h150v-1018h-150z"/>
<glyph glyph-name="braceright" horiz-adv-x="352" unicode="}" d="M328 203q-31 0 -50.5 -22.5t-19.5 -66.5v-170q0 -88 -59 -136.5t-163 -48.5v147q29 1 42.5 20.5t13.5 70.5v171q0 91 96 106v2q-96 15 -96 106v171q0 51 -13.5 70.5t-42.5 19.5v147q104 0 163 -48.5t59 -135.5v-170q0 -44 19.5 -66.5t50.5 -22.5v-144z"/>
<glyph glyph-name="asciitilde" horiz-adv-x="549" unicode="~" d="M487 458q0 -86 -37 -123.5t-101 -37.5q-19 0 -38.5 6t-38 13.5t-35.5 13.5t-32 6q-19 0 -27.5 -10.5t-8.5 -27.5h-104q0 85 37 122.5t101 37.5q19 0 38.5 -6t38 -13.5t36 -13.5t32.5 -6q19 0 27.5 10.5t8.5 28.5h103z"/>
<glyph glyph-name="exclamdown" horiz-adv-x="380" unicode="¡" d="M103 -243v488h176v-488h-176zM299 420q0 -23 -8.5 -43.5t-23.5 -35.5t-35.5 -23.5t-43.5 -8.5t-43.5 8.5t-35.5 23.5t-23.5 35.5t-8.5 43.5t8.5 43t23.5 35t35.5 24t43.5 9t43.5 -9t35.5 -24t23.5 -35t8.5 -43z"/>
<glyph glyph-name="cent" horiz-adv-x="516" unicode="¢" d="M462 138q-23 -11 -45.5 -18t-49.5 -9v-101h-113v107q-46 11 -84 34t-66 57t-43.5 78t-15.5 96q0 51 15 95t43 78.5t67.5 58.5t87.5 34v95h113v-89q26 -4 49 -11t42 -17v-166q-21 17 -52.5 30.5t-63.5 13.5q-58 0 -94 -30t-36 -87q0 -28 10 -50.5t28 -38t42.5 -24 t52.5 -8.5q34 0 64 11t49 27v-166z"/>
<glyph glyph-name="sterling" horiz-adv-x="645" unicode="£" d="M646 47q-40 -36 -83.5 -51.5t-92.5 -15.5q-44 0 -72.5 5.5t-55.5 12.5t-59 12.5t-83 5.5q-22 0 -54 -7.5t-67 -22.5l-63 152q39 21 67 40t45.5 37.5t26 38.5t9.5 44h-138v94h116q-5 11 -12.5 25.5t-16.5 31.5q-14 27 -22 50t-8 56q0 43 20.5 82.5t56 70t83 48.5t101.5 18 q65 0 112.5 -16t80 -46t50 -71.5t20.5 -92.5v-14h-178v14q0 30 -20.5 50t-61.5 20q-39 0 -63 -21.5t-24 -52.5q0 -15 1.5 -26t5 -21.5t9.5 -22t15 -26.5q12 -18 20.5 -31.5t14.5 -24.5h151v-94h-133q-2 -22 -8.5 -39t-17.5 -32t-27.5 -29.5t-39.5 -30.5q43 0 68 -4.5t44 -10 t37 -10t46 -4.5q76 0 141 54z"/>
<glyph glyph-name="currency" horiz-adv-x="568" unicode="¤" d="M459 520l-14 119h-3l-43 -119h-39l-40 119h-3l-16 -119h-68l41 234h63l43 -110l46 110h65l36 -234h-68zM213 596q0 -38 -24 -60t-68 -22q-22 0 -42.5 6t-42.5 23l27 53q20 -14 32 -19t24 -5q26 0 26 18q0 11 -27 21l-15 6q-29 11 -41 27t-12 38q0 32 22.5 55t59.5 23 q45 0 76 -22l-25 -54q-30 17 -47 17q-20 0 -20 -14q0 -7 6 -10.5t23 -9.5l17 -7q51 -19 51 -64z"/>
<glyph glyph-name="yen" horiz-adv-x="746" unicode="¥" d="M535 396h141v-114h-200v-64h200v-114h-200v-104h-196v104h-200v114h200v64h-200v114h141l-219 358h232l144 -269h1l142 269h231z"/>
<glyph glyph-name="section" horiz-adv-x="570" unicode="§" d="M367 274q0 32 -20.5 53.5t-55.5 21.5t-56 -21.5t-21 -53.5t20 -53.5t55 -21.5q36 0 57 21.5t21 53.5zM532 305q0 -62 -27.5 -104t-72.5 -71q41 -20 63 -58t22 -100q0 -39 -18.5 -75.5t-52 -64.5t-80.5 -45t-104 -17q-66 0 -128.5 18t-118.5 53l73 141q43 -29 85.5 -44 t80.5 -15q41 0 60 14.5t19 40.5q0 21 -21.5 35.5t-53.5 28t-69 29t-69 38.5t-53.5 57t-21.5 84q0 57 27.5 99t81.5 68q-41 22 -69.5 56.5t-28.5 91.5q0 45 17.5 83t49 66t75.5 44t96 16q64 0 114 -13.5t91 -37.5l-67 -140q-68 40 -122 40q-33 0 -51.5 -13.5t-18.5 -35.5 q0 -20 21.5 -34t54 -27t70.5 -28.5t70.5 -38.5t54 -57t21.5 -84z"/>
<glyph glyph-name="dieresis" horiz-adv-x="544" unicode="¨" d="M243 695q0 -20 -7.5 -37.5t-21 -31t-31 -21t-37.5 -7.5t-37.5 7.5t-31 21t-21 31t-7.5 37.5t7.5 37.5t21 31t31 21t37.5 7.5t37.5 -7.5t31 -21t21 -31t7.5 -37.5zM495 695q0 -20 -7.5 -37.5t-21 -31t-31 -21t-37.5 -7.5t-37.5 7.5t-31 21t-21 31t-7.5 37.5t7.5 37.5 t21 31t31 21t37.5 7.5t37.5 -7.5t31 -21t21 -31t7.5 -37.5z"/>
<glyph glyph-name="copyright" d="M554 184q-50 -19 -91 -19q-55 0 -97 17t-70.5 46.5t-43 69t-14.5 85.5t15 85.5t43.5 69t69.5 46.5t94 17q24 0 47.5 -5.5t46.5 -14.5v-119l-1 -1q-17 20 -41.5 30t-51.5 10q-51 0 -81 -32t-30 -86t31 -86.5t83 -32.5q24 0 49 10.5t41 27.5l1 -1v-117zM783 377 q0 72 -25.5 134.5t-72 109t-111.5 73t-143 26.5t-142 -26.5t-110 -73t-71 -108.5t-25 -134t25.5 -134.5t72 -109t111.5 -73.5t143 -27t142 26.5t110 73t71 109t25 134.5zM839 377q0 -83 -29 -155.5t-82 -126t-127.5 -84.5t-164.5 -31q-91 0 -166 31t-129 85t-83.5 126.5 t-29.5 155.5t29 155.5t82 126t127.5 84t164.5 30.5q91 0 166 -31t129 -84.5t83.5 -126t29.5 -155.5z" unicode="©"/>
<glyph glyph-name="ordfeminine" horiz-adv-x="547" unicode="ª" d="M356 551q0 18 -6.5 35t-18.5 30t-29 21t-38 8t-38 -8t-29.5 -21t-19 -30t-6.5 -35q0 -37 25.5 -64t67.5 -27t67 27t25 64zM356 345v42h-1q-17 -23 -50.5 -39.5t-79.5 -16.5q-37 0 -72.5 15t-64 43.5t-46 70t-17.5 93.5q0 44 16.5 84t44.5 70.5t66 48.5t80 18 q81 0 123 -51h1v38h147v-416h-147z"/>
<glyph glyph-name="guillemotleft" horiz-adv-x="593" unicode="«" d="M198 14l-172 246l172 246l100 -69l-126 -177l129 -174zM447 14l-172 246l172 246l100 -69l-126 -177l129 -174z"/>
<glyph glyph-name="logicalnot" horiz-adv-x="352" unicode="¬" d="M328 302q-31 0 -50.5 -22.5t-19.5 -66.5v-170q0 -88 -59 -136.5t-163 -48.5v147q29 1 42.5 20.5t13.5 70.5v171q0 91 96 106v2q-96 15 -96 106v171q0 51 -13.5 70.5t-42.5 19.5v147q104 0 163 -48.5t59 -135.5v-170q0 -44 19.5 -66.5t50.5 -22.5v-144z"/>
<glyph glyph-name="minus" horiz-adv-x="686" unicode="­" d="M87 303v150h512v-150h-512z"/>
<glyph glyph-name="registered" d="M483 455q0 52 -68 52h-18v-103h16q70 0 70 51zM508 175l-109 159h-2v-159h-107v415h155q72 0 111 -34.5t39 -93.5q0 -37 -23.5 -71t-64.5 -46l127 -170h-126zM783 377q0 72 -25.5 134.5t-72 109t-111.5 73t-143 26.5t-142 -26.5t-110 -73t-71 -108.5t-25 -134 t25.5 -134.5t72 -109t111.5 -73.5t143 -27t142 26.5t110 73t71 109t25 134.5zM839 377q0 -83 -29 -155.5t-82 -126t-127.5 -84.5t-164.5 -31q-91 0 -166 31t-129 85t-83.5 126.5t-29.5 155.5t29 155.5t82 126t127.5 84t164.5 30.5q91 0 166 -31t129 -84.5t83.5 -126 t29.5 -155.5z" unicode="®"/>
<glyph glyph-name="macron" horiz-adv-x="603" unicode="¯" d="M75 632v121h452v-121h-452z"/>
<glyph glyph-name="degree" horiz-adv-x="400" unicode="°" d="M260 624q0 24 -17.5 42t-43.5 18q-24 0 -42 -18t-17 -42q0 -25 17.5 -42.5t42.5 -17.5t42.5 17.5t17.5 42.5zM350 623q0 -31 -12 -58t-32.5 -47t-48 -32t-58.5 -12t-58.5 12t-47.5 32t-31.5 47t-11.5 63q0 28 11 54.5t31.5 47t48 32.5t58.5 12t58.5 -12t48 -32.5 t32.5 -48t12 -58.5z"/>
<glyph glyph-name="plusminus" horiz-adv-x="500" unicode="±" d="M50 302v150h400v-150h-400z"/>
<glyph glyph-name="acute" horiz-adv-x="342" unicode="´" d="M173 604h-137l94 179h204z"/>
<glyph glyph-name="mu" horiz-adv-x="736" unicode="µ" d="M728 513v-150h-103v-363h-182v363h-183v-363h-182v363h-64v150h64v82q0 56 18 101t53 77t86.5 49.5t117.5 17.5t117 -17.5t85.5 -49.5t52 -78t17.5 -102v-80h103zM443 593q0 42 -23.5 67t-67.5 25t-68 -25.5t-24 -69.5v-77h183v80z"/>
<glyph glyph-name="paragraph" horiz-adv-x="691" unicode="¶" d="M519 0v651h-89v-651h-102v250q-62 0 -111.5 17.5t-84 50.5t-53 79.5t-18.5 104.5t18.5 104.5t53 79.5t84 50.5t111.5 17.5h294v-754h-103z"/>
<glyph glyph-name="cedilla" horiz-adv-x="252" unicode="¸" d="M73 -252l-91 56l130 158l112 -71z"/>
<glyph glyph-name="ordmasculine" horiz-adv-x="523" unicode="º" d="M354 553q0 39 -24.5 65.5t-66.5 26.5q-43 0 -68 -26.5t-25 -65.5q0 -40 24 -66.5t66 -26.5q45 0 69.5 26.5t24.5 66.5zM498 553q0 -48 -16.5 -89t-47.5 -70.5t-75 -46t-99 -16.5q-54 0 -97.5 16.5t-74 46t-47 70.5t-16.5 89q0 51 17 92t48 69.5t75 44t98 15.5 q56 0 99.5 -16.5t73.5 -45.5t46 -70t16 -89z"/>
<glyph glyph-name="guillemotright" horiz-adv-x="593" unicode="»" d="M146 14l-103 72l129 174l-126 177l100 69l172 -246zM395 14l-103 72l129 174l-126 177l100 69l172 -246z"/>
<glyph glyph-name="questiondown" horiz-adv-x="485" unicode="¿" d="M533 -29q0 -56 -18.5 -100t-51.5 -74t-79.5 -45.5t-102.5 -15.5q-57 0 -106 18t-85.5 49.5t-57.5 74t-21 92.5q0 42 13.5 77.5t37.5 63.5t56.5 47t71.5 29v66h179v-184h-24q-30 0 -57 -6t-47.5 -18.5t-32.5 -31t-12 -43.5q0 -31 20 -53t52 -22q37 0 55.5 21t18.5 55h191z M387 419q0 -23 -8.5 -43.5t-23.5 -35.5t-35.5 -23.5t-43.5 -8.5t-43.5 8.5t-35.5 23.5t-23.5 35.5t-8.5 43.5t8.5 43t23.5 35t35.5 24t43.5 9t43.5 -9t35.5 -24t23.5 -35t8.5 -43z"/>
<glyph glyph-name="Agrave" horiz-adv-x="781" unicode="À" d="M343 827l-161 179h204l94 -179h-137zM391 497h-2l-81 -216h162zM573 0l-48 131h-274l-49 -131h-206l310 754h174l304 -754h-211z"/>
<glyph glyph-name="Aacute" horiz-adv-x="781" unicode="Á" d="M447 827h-137l94 179h204zM391 497h-2l-81 -216h162zM573 0l-48 131h-274l-49 -131h-206l310 754h174l304 -754h-211z"/>
<glyph glyph-name="Acircumflex" horiz-adv-x="781" unicode="Â" d="M460 827l-71 87l-72 -87h-162l157 188h158l157 -188h-167zM391 497h-2l-81 -216h162zM573 0l-48 131h-274l-49 -131h-206l310 754h174l304 -754h-211z"/>
<glyph glyph-name="Atilde" horiz-adv-x="781" unicode="Ã" d="M623 1011q0 -94 -40.5 -135.5t-111.5 -41.5q-21 0 -42 6.5t-41.5 15t-39 15t-35.5 6.5q-21 0 -30.5 -11.5t-9.5 -30.5h-114q0 93 41 134.5t111 41.5q21 0 42.5 -6.5t41.5 -15t39.5 -15t35.5 -6.5q21 0 30.5 11.5t9.5 31.5h113zM391 497h-2l-81 -216h162zM573 0l-48 131 h-274l-49 -131h-206l310 754h174l304 -754h-211z"/>
<glyph glyph-name="Adieresis" horiz-adv-x="781" unicode="Ä" d="M361 918q0 -20 -7.5 -37.5t-21 -31t-31 -21t-37.5 -7.5t-37.5 7.5t-31 21t-21 31t-7.5 37.5t7.5 37.5t21 31t31 21t37.5 7.5t37.5 -7.5t31 -21t21 -31t7.5 -37.5zM613 918q0 -20 -7.5 -37.5t-21 -31t-31 -21t-37.5 -7.5t-37.5 7.5t-31 21t-21 31t-7.5 37.5t7.5 37.5 t21 31t31 21t37.5 7.5t37.5 -7.5t31 -21t21 -31t7.5 -37.5zM391 497h-2l-81 -216h162zM573 0l-48 131h-274l-49 -131h-206l310 754h174l304 -754h-211z"/>
<glyph glyph-name="Aring" horiz-adv-x="781" unicode="Å" d="M391 497h-2l-81 -216h162zM444 848q0 22 -14 37t-37 15t-37.5 -15t-14.5 -37t13.5 -36.5t37.5 -14.5t38 14.5t14 36.5zM573 0l-48 131h-274l-49 -131h-206l309 752q-43 34 -43 96q0 57 35.5 90t95.5 33q63 0 96.5 -34.5t33.5 -88.5q0 -61 -43 -95l304 -753h-211z"/>
<glyph glyph-name="AE" horiz-adv-x="1024" unicode="Æ" d="M541 497h-2l-145 -216h147v216zM541 0v131h-265l-102 -131h-229l573 754h452v-166h-233v-126h221v-156h-221v-140h233v-166h-429z"/>
<glyph glyph-name="Ccedilla" horiz-adv-x="640" unicode="Ç" d="M331 -267l-91 56l130 158l112 -71zM608 16q-47 -17 -87.5 -26t-79.5 -9q-99 0 -175 31t-128 84.5t-78.5 126t-26.5 155.5t27 155.5t78.5 126t126.5 84t171 30.5q45 0 87.5 -9.5t84.5 -25.5v-217l-2 -2q-32 37 -76.5 55t-93.5 18q-46 0 -83.5 -15t-63.5 -43t-40.5 -68 t-14.5 -89q0 -48 15 -88t42 -68.5t65.5 -44.5t84.5 -16q22 0 45 5t45 14t41 22t34 29l2 -2v-213z"/>
<glyph glyph-name="Egrave" horiz-adv-x="547" unicode="È" d="M249 812l-161 179h204l94 -179h-137zM64 0v754h429v-166h-233v-126h221v-156h-221v-140h233v-166h-429z"/>
<glyph glyph-name="Eacute" horiz-adv-x="547" unicode="É" d="M319 812h-137l94 179h204zM64 0v754h429v-166h-233v-126h221v-156h-221v-140h233v-166h-429z"/>
<glyph glyph-name="Ecircumflex" horiz-adv-x="547" unicode="Ê" d="M347 812l-71 87l-72 -87h-162l157 188h158l157 -188h-167zM64 0v754h429v-166h-233v-126h221v-156h-221v-140h233v-166h-429z"/>
<glyph glyph-name="Edieresis" horiz-adv-x="547" unicode="Ë" d="M243 903q0 -20 -7.5 -37.5t-21 -31t-31 -21t-37.5 -7.5t-37.5 7.5t-31 21t-21 31t-7.5 37.5t7.5 37.5t21 31t31 21t37.5 7.5t37.5 -7.5t31 -21t21 -31t7.5 -37.5zM495 903q0 -20 -7.5 -37.5t-21 -31t-31 -21t-37.5 -7.5t-37.5 7.5t-31 21t-21 31t-7.5 37.5t7.5 37.5 t21 31t31 21t37.5 7.5t37.5 -7.5t31 -21t21 -31t7.5 -37.5zM64 0v754h429v-166h-233v-126h221v-156h-221v-140h233v-166h-429z"/>
<glyph glyph-name="Igrave" horiz-adv-x="318" unicode="Ì" d="M106 812l-161 179h204l94 -179h-137zM64 0v754h196v-754h-196z"/>
<glyph glyph-name="Iacute" horiz-adv-x="318" unicode="Í" d="M221 812h-137l94 179h204zM64 0v754h196v-754h-196z"/>
<glyph glyph-name="Icircumflex" horiz-adv-x="318" unicode="Î" d="M231 812l-71 87l-72 -87h-162l157 188h158l157 -188h-167zM64 0v754h196v-754h-196z"/>
<glyph glyph-name="Idieresis" horiz-adv-x="318" unicode="Ï" d="M129 903q0 -20 -7.5 -37.5t-21 -31t-31 -21t-37.5 -7.5t-37.5 7.5t-31 21t-21 31t-7.5 37.5t7.5 37.5t21 31t31 21t37.5 7.5t37.5 -7.5t31 -21t21 -31t7.5 -37.5zM381 903q0 -20 -7.5 -37.5t-21 -31t-31 -21t-37.5 -7.5t-37.5 7.5t-31 21t-21 31t-7.5 37.5t7.5 37.5 t21 31t31 21t37.5 7.5t37.5 -7.5t31 -21t21 -31t7.5 -37.5zM64 0v754h196v-754h-196z"/>
<glyph glyph-name="Eth" horiz-adv-x="753" unicode="Ð" d="M521 377q0 96 -55 153.5t-157 57.5h-49v-133h110v-154h-110v-135h49q50 0 89 15t66.5 42.5t42 66.5t14.5 87zM725 377q0 -77 -30.5 -145.5t-83.5 -120t-124 -81.5t-152 -30h-271v301h-84v154h84v299h271q82 0 153 -30t123.5 -82t83 -120t30.5 -145z"/>
<glyph glyph-name="Ntilde" horiz-adv-x="865" unicode="Ñ" d="M665 996q0 -94 -40.5 -135.5t-111.5 -41.5q-21 0 -42 6.5t-41.5 15t-39 15t-35.5 6.5q-21 0 -30.5 -11.5t-9.5 -30.5h-114q0 93 41 134.5t111 41.5q21 0 42.5 -6.5t41.5 -15t39.5 -15t35.5 -6.5q21 0 30.5 11.5t9.5 31.5h113zM618 0l-359 452h-2v-452h-193v754h183 l359 -449h2v449h193v-754h-183z"/>
<glyph glyph-name="Ograve" d="M354 827l-161 179h204l94 -179h-137zM638 377q0 48 -15 89.5t-42 71.5t-65 47.5t-85 17.5q-46 0 -83.5 -16.5t-63.5 -46.5t-40.5 -71.5t-14.5 -90.5q0 -48 15 -89.5t42 -72t65.5 -48t84.5 -17.5t83.5 17t63.5 47t40.5 71.5t14.5 90.5zM839 377q0 -83 -29 -155.5t-82 -126 t-127.5 -84.5t-164.5 -31q-91 0 -166 31t-129 85t-83.5 126.5t-29.5 155.5t29 155.5t82 126t127.5 84t164.5 30.5q91 0 166 -31t129 -84.5t83.5 -126t29.5 -155.5z" unicode="Ò"/>
<glyph glyph-name="Oacute" d="M494 827h-137l94 179h204zM638 377q0 48 -15 89.5t-42 71.5t-65 47.5t-85 17.5q-46 0 -83.5 -16.5t-63.5 -46.5t-40.5 -71.5t-14.5 -90.5q0 -48 15 -89.5t42 -72t65.5 -48t84.5 -17.5t83.5 17t63.5 47t40.5 71.5t14.5 90.5zM839 377q0 -83 -29 -155.5t-82 -126 t-127.5 -84.5t-164.5 -31q-91 0 -166 31t-129 85t-83.5 126.5t-29.5 155.5t29 155.5t82 126t127.5 84t164.5 30.5q91 0 166 -31t129 -84.5t83.5 -126t29.5 -155.5z" unicode="Ó"/>
<glyph glyph-name="Ocircumflex" d="M640 377q0 48 -15 89.5t-42 71.5t-65 47.5t-85 17.5q-46 0 -83.5 -16.5t-63.5 -46.5t-40.5 -71.5t-14.5 -90.5q0 -48 15 -89.5t42 -72t65.5 -48t84.5 -17.5t83.5 17t63.5 47t40.5 71.5t14.5 90.5zM841 377q0 -83 -29 -155.5t-82 -126t-127.5 -84.5t-164.5 -31 q-91 0 -166 31t-129 85t-83.5 126.5t-29.5 155.5t29 155.5t82 126t127.5 84t164.5 30.5q91 0 166 -31t129 -84.5t83.5 -126t29.5 -155.5zM501 827l-71 87l-72 -87h-162l157 188h158l157 -188h-167z" unicode="Ô"/>
<glyph glyph-name="Otilde" d="M665 1011q0 -94 -40.5 -135.5t-111.5 -41.5q-21 0 -42 6.5t-41.5 15t-39 15t-35.5 6.5q-21 0 -30.5 -11.5t-9.5 -30.5h-114q0 93 41 134.5t111 41.5q21 0 42.5 -6.5t41.5 -15t39.5 -15t35.5 -6.5q21 0 30.5 11.5t9.5 31.5h113zM638 377q0 48 -15 89.5t-42 71.5t-65 47.5 t-85 17.5q-46 0 -83.5 -16.5t-63.5 -46.5t-40.5 -71.5t-14.5 -90.5q0 -48 15 -89.5t42 -72t65.5 -48t84.5 -17.5t83.5 17t63.5 47t40.5 71.5t14.5 90.5zM839 377q0 -83 -29 -155.5t-82 -126t-127.5 -84.5t-164.5 -31q-91 0 -166 31t-129 85t-83.5 126.5t-29.5 155.5 t29 155.5t82 126t127.5 84t164.5 30.5q91 0 166 -31t129 -84.5t83.5 -126t29.5 -155.5z" unicode="Õ"/>
<glyph glyph-name="Odieresis" d="M403 918q0 -20 -7.5 -37.5t-21 -31t-31 -21t-37.5 -7.5t-37.5 7.5t-31 21t-21 31t-7.5 37.5t7.5 37.5t21 31t31 21t37.5 7.5t37.5 -7.5t31 -21t21 -31t7.5 -37.5zM655 918q0 -20 -7.5 -37.5t-21 -31t-31 -21t-37.5 -7.5t-37.5 7.5t-31 21t-21 31t-7.5 37.5t7.5 37.5 t21 31t31 21t37.5 7.5t37.5 -7.5t31 -21t21 -31t7.5 -37.5zM638 377q0 48 -15 89.5t-42 71.5t-65 47.5t-85 17.5q-46 0 -83.5 -16.5t-63.5 -46.5t-40.5 -71.5t-14.5 -90.5q0 -48 15 -89.5t42 -72t65.5 -48t84.5 -17.5t83.5 17t63.5 47t40.5 71.5t14.5 90.5zM839 377 q0 -83 -29 -155.5t-82 -126t-127.5 -84.5t-164.5 -31q-91 0 -166 31t-129 85t-83.5 126.5t-29.5 155.5t29 155.5t82 126t127.5 84t164.5 30.5q91 0 166 -31t129 -84.5t83.5 -126t29.5 -155.5z" unicode="Ö"/>
<glyph glyph-name="multiply" horiz-adv-x="686" unicode="×" d="M448 378l129 -129l-106 -106l-129 129l-128 -128l-106 106l128 128l-128 128l106 106l128 -128l128 128l106 -106z"/>
<glyph glyph-name="Oslash" d="M638 377q0 60 -25 112q-77 -87 -139 -156q-26 -29 -51 -57t-44.5 -50t-31.5 -36l-12 -14q45 -25 101 -25q46 0 83.5 17t63.5 47t40.5 71.5t14.5 90.5zM538 574q-23 14 -49.5 21.5t-57.5 7.5q-46 0 -83.5 -16.5t-63.5 -46.5t-40.5 -71.5t-14.5 -90.5q0 -66 28 -120z M839 377q0 -83 -29 -155.5t-82 -126t-127.5 -84.5t-164.5 -31q-64 0 -119.5 15.5t-103.5 43.5q-17 -20 -33.5 -38t-29.5 -32q-15 -17 -27 -31l-84 75l87 98q-47 54 -72.5 121.5t-25.5 145.5q0 83 29 155.5t82 126t127.5 84t164.5 30.5q66 0 123.5 -16.5t105.5 -46.5l87 98 l84 -75l-85 -96q45 -52 69 -118.5t24 -142.5z" unicode="Ø"/>
<glyph glyph-name="Ugrave" horiz-adv-x="773" unicode="Ù" d="M355 812l-161 179h204l94 -179h-137zM718 301q0 -73 -20 -133t-61 -103t-102.5 -66.5t-145.5 -23.5t-146 23.5t-102.5 66t-60.5 103t-20 133.5v453h196v-417q0 -55 7.5 -91.5t24 -58.5t43 -31.5t63.5 -9.5q36 0 60.5 9.5t39.5 31.5t21.5 58.5t6.5 91.5v417h196v-453z"/>
<glyph glyph-name="Uacute" horiz-adv-x="773" unicode="Ú" d="M420 812h-137l94 179h204zM718 301q0 -73 -20 -133t-61 -103t-102.5 -66.5t-145.5 -23.5t-146 23.5t-102.5 66t-60.5 103t-20 133.5v453h196v-417q0 -55 7.5 -91.5t24 -58.5t43 -31.5t63.5 -9.5q36 0 60.5 9.5t39.5 31.5t21.5 58.5t6.5 91.5v417h196v-453z"/>
<glyph glyph-name="Ucircumflex" horiz-adv-x="773" unicode="Û" d="M459 812l-71 87l-72 -87h-162l157 188h158l157 -188h-167zM718 301q0 -73 -20 -133t-61 -103t-102.5 -66.5t-145.5 -23.5t-146 23.5t-102.5 66t-60.5 103t-20 133.5v453h196v-417q0 -55 7.5 -91.5t24 -58.5t43 -31.5t63.5 -9.5q36 0 60.5 9.5t39.5 31.5t21.5 58.5 t6.5 91.5v417h196v-453z"/>
<glyph glyph-name="Udieresis" horiz-adv-x="773" unicode="Ü" d="M359 903q0 -20 -7.5 -37.5t-21 -31t-31 -21t-37.5 -7.5t-37.5 7.5t-31 21t-21 31t-7.5 37.5t7.5 37.5t21 31t31 21t37.5 7.5t37.5 -7.5t31 -21t21 -31t7.5 -37.5zM611 903q0 -20 -7.5 -37.5t-21 -31t-31 -21t-37.5 -7.5t-37.5 7.5t-31 21t-21 31t-7.5 37.5t7.5 37.5 t21 31t31 21t37.5 7.5t37.5 -7.5t31 -21t21 -31t7.5 -37.5zM718 301q0 -73 -20 -133t-61 -103t-102.5 -66.5t-145.5 -23.5t-146 23.5t-102.5 66t-60.5 103t-20 133.5v453h196v-417q0 -55 7.5 -91.5t24 -58.5t43 -31.5t63.5 -9.5q36 0 60.5 9.5t39.5 31.5t21.5 58.5t6.5 91.5 v417h196v-453z"/>
<glyph glyph-name="Yacute" horiz-adv-x="716" unicode="Ý" d="M407 812h-137l94 179h204zM457 299v-299h-196v299l-278 455h232l144 -269h1l142 269h231z"/>
<glyph glyph-name="Thorn" horiz-adv-x="661" unicode="Þ" d="M430 377q0 47 -30 70.5t-102 23.5h-38v-188h38q72 0 102 23.5t30 70.5zM625 377q0 -58 -18.5 -104.5t-53 -79.5t-84 -50.5t-111.5 -17.5h-98v-125h-196v754h196v-125h98q62 0 111.5 -17.5t84 -50.5t53 -79.5t18.5 -104.5z"/>
<glyph glyph-name="germandbls" horiz-adv-x="660" unicode="ß" d="M646 169q0 -42 -16.5 -76.5t-46 -58.5t-70.5 -37.5t-91 -13.5q-31 0 -59 3t-57 11l34 136q39 -13 74 -13q57 0 57 35q0 16 -13.5 28t-33.5 23.5t-43 25.5t-43 34t-33.5 48t-13.5 69q0 35 12 62t43 56q21 21 34 35t19.5 25.5t8.5 22t2 23.5q0 35 -24.5 55.5t-59.5 20.5 q-27 0 -43.5 -10t-25.5 -27t-12 -39t-3 -46v-561h-182v589q0 123 66.5 187t201.5 64q57 0 104 -16t81 -45t53 -69.5t19 -90.5q0 -26 -3.5 -46.5t-11 -38.5t-20 -33.5t-31.5 -32.5q-18 -16 -28.5 -26.5t-16.5 -19t-7.5 -16t-1.5 -17.5q0 -13 13.5 -23t33.5 -21t43.5 -25 t43.5 -34t33.5 -48.5t13.5 -68.5z"/>
<glyph glyph-name="agrave" horiz-adv-x="674" unicode="à" d="M288 604l-161 179h204l94 -179h-137zM444 256q0 24 -8.5 46t-24 39t-37.5 27t-50 10t-50.5 -10t-38.5 -27t-25 -39t-9 -46t9 -46t25 -38.5t38.5 -26.5t50.5 -10t50 10t37.5 26.5t24 38.5t8.5 46zM438 0v52h-2q-20 -29 -61.5 -49t-98.5 -20q-45 0 -89.5 18.5t-79 54 t-56 86.5t-21.5 115q0 55 20 104.5t54.5 87t81 59.5t98.5 22q103 0 152 -63h2v46h182v-513h-182z"/>
<glyph glyph-name="aacute" horiz-adv-x="674" unicode="á" d="M360 604h-137l94 179h204zM444 256q0 24 -8.5 46t-24 39t-37.5 27t-50 10t-50.5 -10t-38.5 -27t-25 -39t-9 -46t9 -46t25 -38.5t38.5 -26.5t50.5 -10t50 10t37.5 26.5t24 38.5t8.5 46zM438 0v52h-2q-20 -29 -61.5 -49t-98.5 -20q-45 0 -89.5 18.5t-79 54t-56 86.5 t-21.5 115q0 55 20 104.5t54.5 87t81 59.5t98.5 22q103 0 152 -63h2v46h182v-513h-182z"/>
<glyph glyph-name="acircumflex" horiz-adv-x="674" unicode="â" d="M416 604l-71 87l-72 -87h-162l157 188h158l157 -188h-167zM444 256q0 24 -8.5 46t-24 39t-37.5 27t-50 10t-50.5 -10t-38.5 -27t-25 -39t-9 -46t9 -46t25 -38.5t38.5 -26.5t50.5 -10t50 10t37.5 26.5t24 38.5t8.5 46zM438 0v52h-2q-20 -29 -61.5 -49t-98.5 -20 q-45 0 -89.5 18.5t-79 54t-56 86.5t-21.5 115q0 55 20 104.5t54.5 87t81 59.5t98.5 22q103 0 152 -63h2v46h182v-513h-182z"/>
<glyph glyph-name="atilde" horiz-adv-x="674" unicode="ã" d="M574 788q0 -94 -40.5 -135.5t-111.5 -41.5q-21 0 -42 6.5t-41.5 15t-39 15t-35.5 6.5q-21 0 -30.5 -11.5t-9.5 -30.5h-114q0 93 41 134.5t111 41.5q21 0 42.5 -6.5t41.5 -15t39.5 -15t35.5 -6.5q21 0 30.5 11.5t9.5 31.5h113zM444 256q0 24 -8.5 46t-24 39t-37.5 27 t-50 10t-50.5 -10t-38.5 -27t-25 -39t-9 -46t9 -46t25 -38.5t38.5 -26.5t50.5 -10t50 10t37.5 26.5t24 38.5t8.5 46zM438 0v52h-2q-20 -29 -61.5 -49t-98.5 -20q-45 0 -89.5 18.5t-79 54t-56 86.5t-21.5 115q0 55 20 104.5t54.5 87t81 59.5t98.5 22q103 0 152 -63h2v46h182 v-513h-182z"/>
<glyph glyph-name="adieresis" horiz-adv-x="674" unicode="ä" d="M316 693q0 -20 -7.5 -37.5t-21 -31t-31 -21t-37.5 -7.5t-37.5 7.5t-31 21t-21 31t-7.5 37.5t7.5 37.5t21 31t31 21t37.5 7.5t37.5 -7.5t31 -21t21 -31t7.5 -37.5zM568 693q0 -20 -7.5 -37.5t-21 -31t-31 -21t-37.5 -7.5t-37.5 7.5t-31 21t-21 31t-7.5 37.5t7.5 37.5 t21 31t31 21t37.5 7.5t37.5 -7.5t31 -21t21 -31t7.5 -37.5zM444 256q0 24 -8.5 46t-24 39t-37.5 27t-50 10t-50.5 -10t-38.5 -27t-25 -39t-9 -46t9 -46t25 -38.5t38.5 -26.5t50.5 -10t50 10t37.5 26.5t24 38.5t8.5 46zM438 0v52h-2q-20 -29 -61.5 -49t-98.5 -20 q-45 0 -89.5 18.5t-79 54t-56 86.5t-21.5 115q0 55 20 104.5t54.5 87t81 59.5t98.5 22q103 0 152 -63h2v46h182v-513h-182z"/>
<glyph glyph-name="aring" horiz-adv-x="674" unicode="å" d="M396 699q0 22 -14 37t-37 15t-37.5 -15t-14.5 -37t13.5 -36.5t37.5 -14.5t38 14.5t14 36.5zM475 699q0 -54 -35 -88.5t-96 -34.5q-62 0 -96 34.5t-34 88.5q0 57 35.5 90t95.5 33q63 0 96.5 -34.5t33.5 -88.5zM444 256q0 24 -8.5 46t-24 39t-37.5 27t-50 10t-50.5 -10 t-38.5 -27t-25 -39t-9 -46t9 -46t25 -38.5t38.5 -26.5t50.5 -10t50 10t37.5 26.5t24 38.5t8.5 46zM438 0v52h-2q-20 -29 -61.5 -49t-98.5 -20q-45 0 -89.5 18.5t-79 54t-56 86.5t-21.5 115q0 55 20 104.5t54.5 87t81 59.5t98.5 22q103 0 152 -63h2v46h182v-513h-182z"/>
<glyph glyph-name="ae" horiz-adv-x="971" unicode="æ" d="M346 162q0 24 -19.5 40t-59.5 16q-35 0 -55.5 -14.5t-20.5 -40.5q0 -25 21 -40t61 -15q35 0 54 15.5t19 38.5zM777 318q-7 39 -35.5 61.5t-66.5 22.5q-45 0 -72 -22t-38 -62h212zM563 219q5 -54 38.5 -76.5t77.5 -22.5q38 0 62.5 13.5t38.5 33.5h163q-11 -45 -36.5 -79.5 t-61 -58t-77.5 -35t-86 -11.5q-78 0 -136.5 25.5t-93.5 75.5h-4q-75 -101 -217 -101q-37 0 -74.5 10t-68 30t-49.5 51.5t-19 73.5q0 44 15.5 76t43 53t65.5 31.5t83 10.5q38 0 69 -6t66 -20v9q0 40 -23 62q-28 30 -92 30q-92 0 -170 -29v141q38 11 84.5 17.5t106.5 6.5 q66 0 115 -23.5t76 -64.5h3q34 43 86 65.5t121 22.5q67 0 120 -20t89.5 -59.5t54.5 -94.5t18 -123v-14h-388z"/>
<glyph glyph-name="ccedilla" horiz-adv-x="471" unicode="ç" d="M229 -257l-91 56l130 158l112 -71zM439 12q-30 -14 -60.5 -21.5t-71.5 -7.5q-60 0 -112.5 19.5t-90.5 55t-60 86t-22 112.5q0 61 21 111.5t59 86.5t91 56t117 20q39 0 71 -8t58 -22v-166q-21 17 -52.5 30.5t-63.5 13.5q-58 0 -94 -30t-36 -87q0 -28 10 -50.5t28 -38 t42.5 -24t52.5 -8.5q34 0 64 11t49 27v-166z"/>
<glyph glyph-name="egrave" horiz-adv-x="608" unicode="è" d="M236 604l-161 179h204l94 -179h-137zM414 318q-7 39 -35.5 61.5t-66.5 22.5q-45 0 -72 -22t-38 -62h212zM200 219q5 -54 38.5 -76.5t77.5 -22.5q38 0 62.5 13.5t38.5 33.5h163q-11 -45 -36.5 -79.5t-61 -58t-77.5 -35t-86 -11.5q-64 0 -118 17.5t-94 51.5t-62.5 85 t-22.5 117q0 64 21 115t58.5 87t89.5 55t115 19q67 0 120 -20t89.5 -59.5t54.5 -94.5t18 -123v-14h-388z"/>
<glyph glyph-name="eacute" horiz-adv-x="608" unicode="é" d="M350 604h-137l94 179h204zM414 318q-7 39 -35.5 61.5t-66.5 22.5q-45 0 -72 -22t-38 -62h212zM200 219q5 -54 38.5 -76.5t77.5 -22.5q38 0 62.5 13.5t38.5 33.5h163q-11 -45 -36.5 -79.5t-61 -58t-77.5 -35t-86 -11.5q-64 0 -118 17.5t-94 51.5t-62.5 85t-22.5 117 q0 64 21 115t58.5 87t89.5 55t115 19q67 0 120 -20t89.5 -59.5t54.5 -94.5t18 -123v-14h-388z"/>
<glyph glyph-name="ecircumflex" horiz-adv-x="608" unicode="ê" d="M375 604l-71 87l-72 -87h-162l157 188h158l157 -188h-167zM414 318q-7 39 -35.5 61.5t-66.5 22.5q-45 0 -72 -22t-38 -62h212zM200 219q5 -54 38.5 -76.5t77.5 -22.5q38 0 62.5 13.5t38.5 33.5h163q-11 -45 -36.5 -79.5t-61 -58t-77.5 -35t-86 -11.5q-64 0 -118 17.5 t-94 51.5t-62.5 85t-22.5 117q0 64 21 115t58.5 87t89.5 55t115 19q67 0 120 -20t89.5 -59.5t54.5 -94.5t18 -123v-14h-388z"/>
<glyph glyph-name="edieresis" horiz-adv-x="608" unicode="ë" d="M278 692q0 -20 -7.5 -37.5t-21 -31t-31 -21t-37.5 -7.5t-37.5 7.5t-31 21t-21 31t-7.5 37.5t7.5 37.5t21 31t31 21t37.5 7.5t37.5 -7.5t31 -21t21 -31t7.5 -37.5zM530 692q0 -20 -7.5 -37.5t-21 -31t-31 -21t-37.5 -7.5t-37.5 7.5t-31 21t-21 31t-7.5 37.5t7.5 37.5 t21 31t31 21t37.5 7.5t37.5 -7.5t31 -21t21 -31t7.5 -37.5zM414 318q-7 39 -35.5 61.5t-66.5 22.5q-45 0 -72 -22t-38 -62h212zM200 219q5 -54 38.5 -76.5t77.5 -22.5q38 0 62.5 13.5t38.5 33.5h163q-11 -45 -36.5 -79.5t-61 -58t-77.5 -35t-86 -11.5q-64 0 -118 17.5 t-94 51.5t-62.5 85t-22.5 117q0 64 21 115t58.5 87t89.5 55t115 19q67 0 120 -20t89.5 -59.5t54.5 -94.5t18 -123v-14h-388z"/>
<glyph glyph-name="igrave" horiz-adv-x="302" unicode="ì" d="M97 604l-161 179h204l94 -179h-137zM60 0v513h182v-513h-182z"/>
<glyph glyph-name="iacute" horiz-adv-x="302" unicode="í" d="M208 604h-137l94 179h204zM60 0v513h182v-513h-182z"/>
<glyph glyph-name="icircumflex" horiz-adv-x="302" unicode="î" d="M220 604l-71 87l-72 -87h-162l157 188h158l157 -188h-167zM60 0v513h182v-513h-182z"/>
<glyph glyph-name="idieresis" horiz-adv-x="302" unicode="ï" d="M125 695q0 -20 -7.5 -37.5t-21 -31t-31 -21t-37.5 -7.5t-37.5 7.5t-31 21t-21 31t-7.5 37.5t7.5 37.5t21 31t31 21t37.5 7.5t37.5 -7.5t31 -21t21 -31t7.5 -37.5zM377 695q0 -20 -7.5 -37.5t-21 -31t-31 -21t-37.5 -7.5t-37.5 7.5t-31 21t-21 31t-7.5 37.5t7.5 37.5 t21 31t31 21t37.5 7.5t37.5 -7.5t31 -21t21 -31t7.5 -37.5zM60 0v513h182v-513h-182z"/>
<glyph glyph-name="eth" horiz-adv-x="627" unicode="ð" d="M434 242q0 50 -32 83t-88 33t-88.5 -33t-32.5 -83q0 -49 31 -82t88 -33q58 0 90 33t32 82zM605 301q0 -69 -18 -127t-55 -100.5t-91.5 -66.5t-128.5 -24q-68 0 -121.5 19.5t-91 54t-57.5 81.5t-20 102q0 56 21 104t58 83t87 55t108 20q35 0 68.5 -12t50.5 -29l2 2 q-43 82 -105 140l-111 -51l-31 68l74 34q-45 29 -103 50l66 126q111 -32 196 -102l104 48l31 -68q-21 -9 -38 -17q-14 -7 -26 -12.5t-13 -5.5q68 -74 106 -168.5t38 -203.5z"/>
<glyph glyph-name="ntilde" horiz-adv-x="639" unicode="ñ" d="M552 788q0 -94 -40.5 -135.5t-111.5 -41.5q-21 0 -42 6.5t-41.5 15t-39 15t-35.5 6.5q-21 0 -30.5 -11.5t-9.5 -30.5h-114q0 93 41 134.5t111 41.5q21 0 42.5 -6.5t41.5 -15t39.5 -15t35.5 -6.5q21 0 30.5 11.5t9.5 31.5h113zM409 0v250v41q0 24 -7 45t-24 35t-51 14 q-28 0 -46 -9.5t-29 -26t-15.5 -38t-4.5 -45.5v-266h-182v513h182v-66h2q27 42 73 62.5t102 20.5q92 0 137 -56.5t45 -156.5v-317h-182z"/>
<glyph glyph-name="ograve" horiz-adv-x="627" unicode="ò" d="M242 604l-161 179h204l94 -179h-137zM434 256q0 52 -32 87t-88 35t-88.5 -35t-32.5 -87q0 -51 31 -86t88 -35q58 0 90 35t32 86zM605 256q0 -58 -20.5 -107.5t-58.5 -86.5t-92 -58t-122 -21t-121.5 21t-91 58t-57.5 86.5t-20 107.5q0 62 20.5 112.5t58.5 86.5t92 55.5 t121 19.5q69 0 123 -21t91.5 -58t57 -87t19.5 -108z"/>
<glyph glyph-name="oacute" horiz-adv-x="627" unicode="ó" d="M362 604h-137l94 179h204zM434 256q0 52 -32 87t-88 35t-88.5 -35t-32.5 -87q0 -51 31 -86t88 -35q58 0 90 35t32 86zM605 256q0 -58 -20.5 -107.5t-58.5 -86.5t-92 -58t-122 -21t-121.5 21t-91 58t-57.5 86.5t-20 107.5q0 62 20.5 112.5t58.5 86.5t92 55.5t121 19.5 q69 0 123 -21t91.5 -58t57 -87t19.5 -108z"/>
<glyph glyph-name="ocircumflex" horiz-adv-x="627" unicode="ô" d="M383 604l-71 87l-72 -87h-162l157 188h158l157 -188h-167zM434 256q0 52 -32 87t-88 35t-88.5 -35t-32.5 -87q0 -51 31 -86t88 -35q58 0 90 35t32 86zM605 256q0 -58 -20.5 -107.5t-58.5 -86.5t-92 -58t-122 -21t-121.5 21t-91 58t-57.5 86.5t-20 107.5q0 62 20.5 112.5 t58.5 86.5t92 55.5t121 19.5q69 0 123 -21t91.5 -58t57 -87t19.5 -108z"/>
<glyph glyph-name="otilde" horiz-adv-x="627" unicode="õ" d="M551 788q0 -94 -40.5 -135.5t-111.5 -41.5q-21 0 -42 6.5t-41.5 15t-39 15t-35.5 6.5q-21 0 -30.5 -11.5t-9.5 -30.5h-114q0 93 41 134.5t111 41.5q21 0 42.5 -6.5t41.5 -15t39.5 -15t35.5 -6.5q21 0 30.5 11.5t9.5 31.5h113zM434 256q0 52 -32 87t-88 35t-88.5 -35 t-32.5 -87q0 -51 31 -86t88 -35q58 0 90 35t32 86zM605 256q0 -58 -20.5 -107.5t-58.5 -86.5t-92 -58t-122 -21t-121.5 21t-91 58t-57.5 86.5t-20 107.5q0 62 20.5 112.5t58.5 86.5t92 55.5t121 19.5q69 0 123 -21t91.5 -58t57 -87t19.5 -108z"/>
<glyph glyph-name="odieresis" horiz-adv-x="627" unicode="ö" d="M288 695q0 -20 -7.5 -37.5t-21 -31t-31 -21t-37.5 -7.5t-37.5 7.5t-31 21t-21 31t-7.5 37.5t7.5 37.5t21 31t31 21t37.5 7.5t37.5 -7.5t31 -21t21 -31t7.5 -37.5zM540 695q0 -20 -7.5 -37.5t-21 -31t-31 -21t-37.5 -7.5t-37.5 7.5t-31 21t-21 31t-7.5 37.5t7.5 37.5 t21 31t31 21t37.5 7.5t37.5 -7.5t31 -21t21 -31t7.5 -37.5zM434 256q0 52 -32 87t-88 35t-88.5 -35t-32.5 -87q0 -51 31 -86t88 -35q58 0 90 35t32 86zM605 256q0 -58 -20.5 -107.5t-58.5 -86.5t-92 -58t-122 -21t-121.5 21t-91 58t-57.5 86.5t-20 107.5q0 62 20.5 112.5 t58.5 86.5t92 55.5t121 19.5q69 0 123 -21t91.5 -58t57 -87t19.5 -108z"/>
<glyph glyph-name="divide" horiz-adv-x="686" unicode="÷" d="M429 161q0 -36 -25 -61t-61 -25t-61 25t-25 61t25 61t61 25t61 -25t25 -61zM87 302v150h512v-150h-512zM429 593q0 -36 -25 -61t-61 -25t-61 25t-25 61t25 61t61 25t61 -25t25 -61z"/>
<glyph glyph-name="oslash" horiz-adv-x="627" unicode="ø" d="M434 256q0 34 -14 60l-153 -174q20 -7 45 -7q58 0 90 35t32 86zM361 370q-22 8 -47 8q-56 0 -88.5 -35t-32.5 -87q0 -34 14 -62zM605 256q0 -58 -20.5 -107.5t-58.5 -86.5t-92 -58t-122 -21q-45 0 -83 9t-70 26l-56 -63l-59 53l51 58q-35 37 -54 85t-19 105 q0 62 20.5 112.5t58.5 86.5t92 55.5t121 19.5q46 0 85 -9.5t71 -26.5l51 58l60 -52l-47 -54q35 -37 53 -85t18 -105z"/>
<glyph glyph-name="ugrave" horiz-adv-x="648" unicode="ù" d="M292 604l-161 179h204l94 -179h-137zM597 232q0 -63 -20 -110t-56.5 -78t-86.5 -46t-110 -15q-61 0 -111 15t-86 46t-56 78t-20 110v281h182v-257q0 -28 3.5 -51t13.5 -39.5t28 -25.5t46 -9t46 9t28 25.5t13.5 39.5t3.5 51v257h182v-281z"/>
<glyph glyph-name="uacute" horiz-adv-x="648" unicode="ú" d="M354 604h-137l94 179h204zM597 232q0 -63 -20 -110t-56.5 -78t-86.5 -46t-110 -15q-61 0 -111 15t-86 46t-56 78t-20 110v281h182v-257q0 -28 3.5 -51t13.5 -39.5t28 -25.5t46 -9t46 9t28 25.5t13.5 39.5t3.5 51v257h182v-281z"/>
<glyph glyph-name="ucircumflex" horiz-adv-x="648" unicode="û" d="M390 604l-71 87l-72 -87h-162l157 188h158l157 -188h-167zM597 232q0 -63 -20 -110t-56.5 -78t-86.5 -46t-110 -15q-61 0 -111 15t-86 46t-56 78t-20 110v281h182v-257q0 -28 3.5 -51t13.5 -39.5t28 -25.5t46 -9t46 9t28 25.5t13.5 39.5t3.5 51v257h182v-281z"/>
<glyph glyph-name="udieresis" horiz-adv-x="648" unicode="ü" d="M293 695q0 -20 -7.5 -37.5t-21 -31t-31 -21t-37.5 -7.5t-37.5 7.5t-31 21t-21 31t-7.5 37.5t7.5 37.5t21 31t31 21t37.5 7.5t37.5 -7.5t31 -21t21 -31t7.5 -37.5zM545 695q0 -20 -7.5 -37.5t-21 -31t-31 -21t-37.5 -7.5t-37.5 7.5t-31 21t-21 31t-7.5 37.5t7.5 37.5 t21 31t31 21t37.5 7.5t37.5 -7.5t31 -21t21 -31t7.5 -37.5zM597 232q0 -63 -20 -110t-56.5 -78t-86.5 -46t-110 -15q-61 0 -111 15t-86 46t-56 78t-20 110v281h182v-257q0 -28 3.5 -51t13.5 -39.5t28 -25.5t46 -9t46 9t28 25.5t13.5 39.5t3.5 51v257h182v-281z"/>
<glyph glyph-name="yacute" horiz-adv-x="630" unicode="ý" d="M338 604h-137l94 179h204zM251 -256h-189l161 324l-240 445h212l127 -267h1l123 267h199z"/>
<glyph glyph-name="thorn" horiz-adv-x="662" unicode="þ" d="M469 256q0 24 -9 46t-25 39t-38.5 27t-50.5 10t-50 -10t-37.5 -27t-24 -39t-8.5 -46t8.5 -46t24 -38.5t37.5 -26.5t50 -10t50.5 10t38.5 26.5t25 38.5t9 46zM640 267q0 -64 -21 -116.5t-55.5 -90t-78.5 -57.5t-91 -20q-57 0 -97 18.5t-63 50.5h-2v-308h-182v1085h182 v-362h2q26 30 68.5 46.5t93.5 16.5q52 0 96.5 -20.5t77.5 -56t51.5 -83.5t18.5 -103z"/>
<glyph glyph-name="OE" horiz-adv-x="977" unicode="Œ" d="M493 588h-49q-102 0 -157 -57.5t-55 -153.5q0 -48 14.5 -87t42 -66.5t67 -42.5t88.5 -15h49v422zM418 0q-81 0 -152 30t-124 81.5t-83.5 120t-30.5 145.5t30.5 145t83 120t123.5 82t153 30h505v-166h-233v-126h221v-156h-221v-140h233v-166h-505z"/>
<glyph glyph-name="oe" horiz-adv-x="1011" unicode="œ" d="M434 256q0 52 -32 87t-88 35t-88.5 -35t-32.5 -87q0 -51 31 -86t88 -35q58 0 90 35t32 86zM817 315q-6 35 -31.5 55.5t-60.5 20.5q-40 0 -64.5 -20t-34.5 -56h191zM625 219q5 -54 34.5 -75.5t69.5 -21.5q34 0 56.5 12.5t34.5 32.5h163q-11 -45 -36.5 -79t-59 -57.5 t-74 -35.5t-81.5 -12q-61 0 -118.5 23t-98.5 69q-38 -43 -92.5 -67.5t-120.5 -24.5q-64 0 -116 21t-88.5 58t-56 86.5t-19.5 107.5q0 61 20 111.5t57 86.5t89 56t116 20q68 0 122 -24.5t91 -67.5q38 45 91.5 68.5t110.5 23.5q64 0 115 -21t86.5 -60.5t53 -94.5t17.5 -121 v-14h-366z"/>
<glyph glyph-name="Scaron" horiz-adv-x="595" unicode="Š" d="M384 827h-158l-157 188h167l71 -87l72 87h162zM566 241q0 -60 -19.5 -108t-57 -82t-92 -52.5t-123.5 -18.5q-70 0 -136 18t-132 65l80 157q29 -19 53 -33t45 -22t41.5 -12t41.5 -4q51 0 75.5 20t24.5 52q0 24 -22.5 43.5t-76.5 39.5l-53 20q-92 33 -129 84.5t-37 119.5 q0 51 18.5 95.5t53 78t82.5 53t106 19.5q73 0 133 -17.5t102 -46.5l-75 -159q-84 53 -145 53q-38 0 -59.5 -17.5t-21.5 -43.5q0 -12 5 -22t17 -19t32.5 -18.5t51.5 -20.5l59 -22q82 -31 120 -79t38 -121z"/>
<glyph glyph-name="scaron" horiz-adv-x="477" unicode="š" d="M330 604h-158l-157 188h167l71 -87l72 87h162zM453 169q0 -44 -18 -78.5t-48.5 -58.5t-71 -36.5t-86.5 -12.5q-63 0 -120.5 15t-104.5 44l66 125q14 -10 33 -18.5t39.5 -15t41 -10t37.5 -3.5q57 0 57 35q0 17 -17.5 26t-43.5 17t-56.5 17.5t-56.5 26.5t-43.5 44.5 t-17.5 71.5q0 39 16.5 70.5t45 54t68.5 35t86 12.5q55 0 95 -9.5t80 -27.5l-60 -122q-23 12 -49 20t-49 8q-28 0 -44 -10.5t-16 -27.5q0 -14 17.5 -22.5t44 -16t57 -16.5t57 -25.5t44 -43t17.5 -68.5z"/>
<glyph glyph-name="Ydieresis" horiz-adv-x="716" unicode="Ÿ" d="M329 903q0 -20 -7.5 -37.5t-21 -31t-31 -21t-37.5 -7.5t-37.5 7.5t-31 21t-21 31t-7.5 37.5t7.5 37.5t21 31t31 21t37.5 7.5t37.5 -7.5t31 -21t21 -31t7.5 -37.5zM581 903q0 -20 -7.5 -37.5t-21 -31t-31 -21t-37.5 -7.5t-37.5 7.5t-31 21t-21 31t-7.5 37.5t7.5 37.5 t21 31t31 21t37.5 7.5t37.5 -7.5t31 -21t21 -31t7.5 -37.5zM457 299v-299h-196v299l-278 455h232l144 -269h1l142 269h231z"/>
<glyph glyph-name="circumflex" horiz-adv-x="550" unicode="ˆ" d="M334 604l-71 87l-72 -87h-162l157 188h158l157 -188h-167z"/>
<glyph glyph-name="tilde" horiz-adv-x="509" unicode="˜" d="M488 788q0 -94 -40.5 -135.5t-111.5 -41.5q-21 0 -42 6.5t-41.5 15t-39 15t-35.5 6.5q-21 0 -30.5 -11.5t-9.5 -30.5h-114q0 93 41 134.5t111 41.5q21 0 42.5 -6.5t41.5 -15t39.5 -15t35.5 -6.5q21 0 30.5 11.5t9.5 31.5h113z"/>
<glyph glyph-name="endash" horiz-adv-x="500" unicode="–" d="M50 246v150h400v-150h-400z"/>
<glyph glyph-name="emdash" horiz-adv-x="750" unicode="—" d="M50 246v150h650v-150h-650z"/>
<glyph glyph-name="quoteleft" horiz-adv-x="312" unicode="‘" d="M252 484q0 -21 -7.5 -39t-21 -31t-31.5 -20.5t-39 -7.5q-26 0 -47.5 10t-36.5 27.5t-23 40.5t-8 48q0 37 13 74.5t35.5 72t52.5 65.5t64 54l62 -49q-35 -32 -63.5 -74t-38.5 -80q40 -2 64.5 -27.5t24.5 -63.5z"/>
<glyph glyph-name="quotesinglbase" horiz-adv-x="312" unicode="‚" d="M60 111q0 21 7.5 39t21 31t31.5 20.5t39 7.5q26 0 47.5 -10t36.5 -27.5t23 -40t8 -48.5q0 -37 -13 -74.5t-35.5 -72t-52.5 -65.5t-64 -54l-62 49q35 32 63.5 74t38.5 80q-40 2 -64.5 27.5t-24.5 63.5z"/>
<glyph glyph-name="quotedblleft" horiz-adv-x="579" unicode="“" d="M252 484q0 -21 -7.5 -39t-21 -31t-31.5 -20.5t-39 -7.5q-26 0 -47.5 10t-36.5 27.5t-23 40.5t-8 48q0 37 13 74.5t35.5 72t52.5 65.5t64 54l62 -49q-35 -32 -63.5 -74t-38.5 -80q40 -2 64.5 -27.5t24.5 -63.5zM519 484q0 -21 -7.5 -39t-21 -31t-31.5 -20.5t-39 -7.5 q-26 0 -47.5 10t-36.5 27.5t-23 40.5t-8 48q0 37 13 74.5t35.5 72t52.5 65.5t64 54l62 -49q-35 -32 -63.5 -74t-38.5 -80q40 -2 64.5 -27.5t24.5 -63.5z"/>
<glyph glyph-name="quotedblright" horiz-adv-x="579" unicode="”" d="M327 675q0 21 7.5 39t21 31t31.5 20.5t39 7.5q26 0 47.5 -10t36.5 -27.5t23 -40t8 -48.5q0 -37 -13 -74.5t-35.5 -72t-52.5 -65.5t-64 -54l-62 49q35 32 63.5 74t38.5 80q-40 2 -64.5 27.5t-24.5 63.5zM60 675q0 21 7.5 39t21 31t31.5 20.5t39 7.5q26 0 47.5 -10 t36.5 -27.5t23 -40t8 -48.5q0 -37 -13 -74.5t-35.5 -72t-52.5 -65.5t-64 -54l-62 49q35 32 63.5 74t38.5 80q-40 2 -64.5 27.5t-24.5 63.5z"/>
<glyph glyph-name="dagger" horiz-adv-x="607" unicode="†" d="M386 376v-556h-166v556h-176v144h176v234h166v-234h177v-144h-177z"/>
<glyph glyph-name="daggerdbl" horiz-adv-x="607" unicode="‡" d="M386 55v-235h-166v235h-177v144h177v176h-176v144h176v235h166v-235h177v-144h-177v-176h176v-144h-176z"/>
<glyph glyph-name="ellipsis" horiz-adv-x="960" unicode="…" d="M265 85q0 -22 -8 -41t-22.5 -33.5t-33.5 -22.5t-41 -8t-41 8t-33 22.5t-22.5 33.5t-8.5 41t8.5 41t22.5 33.5t33 22.5t41 8t41 -8t33.5 -22.5t22.5 -33.5t8 -41zM585 85q0 -22 -8 -41t-22.5 -33.5t-33.5 -22.5t-41 -8t-41 8t-33 22.5t-22.5 33.5t-8.5 41t8.5 41 t22.5 33.5t33 22.5t41 8t41 -8t33.5 -22.5t22.5 -33.5t8 -41zM905 85q0 -22 -8 -41t-22.5 -33.5t-33.5 -22.5t-41 -8t-41 8t-33 22.5t-22.5 33.5t-8.5 41t8.5 41t22.5 33.5t33 22.5t41 8t41 -8t33.5 -22.5t22.5 -33.5t8 -41z"/>
<glyph glyph-name="perthousand" horiz-adv-x="1265" unicode="‰" d="M713 188q0 40 -18 69t-47 29q-30 0 -48 -28t-18 -69q0 -40 18 -69t47 -29q30 0 48 27.5t18 69.5zM1122 188q0 40 -18 69t-47 29q-30 0 -48 -28t-18 -69q0 -40 18 -69t47 -29q30 0 48 27.5t18 69.5zM274 565q0 40 -18 69t-47 29q-30 0 -48.5 -27.5t-18.5 -69.5 q0 -40 18.5 -69t47.5 -29t47.5 28t18.5 69zM827 188q0 -43 -13 -79t-37 -62.5t-57 -41.5t-74 -15q-40 0 -73 15t-56.5 41.5t-36 63t-12.5 79.5t13 79t37 62.5t57.5 41.5t73.5 15q41 0 73.5 -15t56 -41.5t36 -63t12.5 -79.5zM1236 188q0 -43 -13 -79t-37 -62.5t-57 -41.5 t-74 -15q-40 0 -73 15t-56.5 41.5t-36 63t-12.5 79.5t13 79t37 62.5t57.5 41.5t73.5 15q41 0 73.5 -15t56 -41.5t36 -63t12.5 -79.5zM262 0h-107l438 754h107zM388 565q0 -43 -13 -79t-37 -62.5t-57 -41.5t-74 -15q-40 0 -73 15t-56.5 41.5t-36 63t-12.5 79.5t13 79t37 62.5 t57.5 41.5t73.5 15q41 0 73.5 -15t56 -41.5t36 -63t12.5 -79.5z"/>
<glyph glyph-name="guilsinglleft" horiz-adv-x="344" unicode="‹" d="M198 14l-172 246l172 246l100 -69l-126 -177l129 -174z"/>
<glyph glyph-name="guilsinglright" horiz-adv-x="344" unicode="›" d="M146 14l-103 72l129 174l-126 177l100 69l172 -246z"/>
<glyph glyph-name="trademark" horiz-adv-x="565" unicode="™" d="M430 520l-14 119h-3l-43 -119h-39l-40 119h-3l-16 -119h-68l41 234h63l43 -110l46 110h65l36 -234h-68zM144 693v-173h-66v173h-49v61h164v-61h-49z"/>
</font>
</defs>
</svg>
