<?xml version="1.0" encoding="UTF-8" standalone="no"?>
<!DOCTYPE svg  PUBLIC '-//W3C//DTD SVG 1.1//EN'  'http://www.w3.org/Graphics/SVG/1.1/DTD/svg11.dtd'>
<svg xmlns="http://www.w3.org/2000/svg">
<defs>
<font id="LuzSans-HeavyItalic" horiz-adv-x="868">
<font-face slope="-12" underline-position="-9" font-weight="400" descent="-200" panose-1="2 0 6 3 4 0 0 9 0 3" units-per-em="1000" unicode-range="U+0020-2122" bbox="-144 -273 1190 1004" x-height="503" underline-thickness="124" font-family="LuzSans" ascent="800" font-style="italic" cap-height="754"/>
<missing-glyph horiz-adv-x="1000"/>
<glyph glyph-name=".notdef" horiz-adv-x="1000"/>
<glyph glyph-name=".null" horiz-adv-x="0"/>
<glyph glyph-name="nonmarkingreturn" horiz-adv-x="1000"/>
<glyph glyph-name="space" horiz-adv-x="259" unicode=" "/>
<glyph glyph-name="space" horiz-adv-x="259" unicode=" "/>
<glyph glyph-name="exclam" horiz-adv-x="345" unicode="!" d="M216 87q0 -20 -8.5 -39t-23.5 -33.5t-34 -23t-40 -8.5q-35 0 -56.5 22t-21.5 54q0 21 8.5 40t23 33.5t34 23t40.5 8.5q35 0 56.5 -22.5t21.5 -54.5zM226 236h-152l82 518h152z"/>
<glyph glyph-name="quotedbl" horiz-adv-x="473" unicode='&quot;' d="M124 449l-98 2l163 305l142 -2zM349 449l-98 2l162 305l142 -2z"/>
<glyph glyph-name="numbersign" horiz-adv-x="711" unicode="#" d="M300 451l-25 -161h140l25 161h-140zM664 451h-117l-25 -161h115l-16 -99h-114l-30 -191h-108l30 191h-139l-30 -191h-108l30 191h-118l17 99h116l26 161h-114l16 100h114l31 203h108l-32 -203h140l32 203h107l-32 -203h117z"/>
<glyph glyph-name="dollar" horiz-adv-x="596" unicode="$" d="M486 573q-34 29 -66 44t-67 15q-52 0 -79.5 -26.5t-27.5 -62.5q0 -25 20.5 -43.5t51 -36t66 -36.5t66 -45.5t51 -63t20.5 -88.5q0 -49 -17 -90.5t-47.5 -73t-73.5 -52t-96 -27.5l-17 -109h-95l17 107q-63 5 -117 29t-98 65l87 124q43 -38 87.5 -60t91.5 -22q56 0 85 27.5 t29 67.5q0 28 -20 47.5t-50 37t-65 35.5t-65 43t-50 60.5t-20 87.5q0 50 18 91t48.5 71.5t72 50t89.5 26.5l17 106h96l-16 -104q51 -5 88.5 -23t70.5 -44z"/>
<glyph glyph-name="percent" horiz-adv-x="799" unicode="%" d="M666 212q0 36 -18.5 59.5t-49.5 23.5q-21 0 -39 -10.5t-31.5 -28.5t-21.5 -43t-8 -54q0 -38 18.5 -60.5t48.5 -22.5q22 0 40.5 11t32 29.5t21 43t7.5 52.5zM298 595q0 36 -19 59t-49 23q-21 0 -39.5 -10.5t-32 -28.5t-21.5 -43t-8 -54q0 -38 18.5 -60.5t49.5 -22.5 q21 0 39.5 11t32 30t21.5 43.5t8 52.5zM760 220q0 -47 -15.5 -89t-42.5 -73t-64.5 -49t-81.5 -18q-32 0 -59.5 10.5t-48 31t-32 50t-11.5 67.5q0 48 15.5 90t43 73t65 49t80.5 18q34 0 61.5 -11.5t47.5 -32.5t31 -50.5t11 -65.5zM162 -3l-91 3l560 758l91 -3zM390 603 q0 -47 -15 -89t-42 -73.5t-64.5 -49.5t-82.5 -18q-31 0 -59 10.5t-48 31t-32 50.5t-12 68q0 48 15.5 90t43.5 73t65.5 49t80.5 18q68 0 109 -44t41 -116z"/>
<glyph glyph-name="ampersand" horiz-adv-x="758" unicode="&amp;" d="M285 336q-109 -54 -109 -129q0 -44 29.5 -70.5t78.5 -26.5q29 0 61 14.5t61 38.5zM465 590q0 32 -17 51.5t-46 19.5q-20 0 -37 -7.5t-29.5 -19.5t-19.5 -28t-7 -34q0 -33 10.5 -56t28.5 -46q54 23 85.5 56.5t31.5 63.5zM709 298q-29 -37 -62.5 -76t-65.5 -69l112 -153 h-165l-54 72q-31 -22 -58 -39t-53.5 -28.5t-53.5 -17t-58 -5.5q-45 0 -86.5 13t-73.5 37.5t-51 60t-19 81.5q0 86 52 144t149 102q-15 22 -24.5 39t-15.5 33t-8 32.5t-2 38.5q0 42 17.5 80t48.5 66.5t73.5 45.5t91.5 17q42 0 75.5 -12.5t57.5 -34.5t37 -52t13 -66 q0 -132 -179 -215l105 -148q28 28 58 62t53 65z"/>
<glyph glyph-name="quotesingle" horiz-adv-x="249" unicode="&apos;" d="M124 449l-98 2l163 305l142 -2z"/>
<glyph glyph-name="parenleft" horiz-adv-x="340" unicode="(" d="M409 710q-122 -129 -180.5 -259t-58.5 -250q0 -53 6 -98t18 -85.5t30.5 -79.5t44.5 -80l-105 -75q-62 73 -96 176t-34 240q0 77 22 158.5t61 159.5t92 148.5t115 124.5z"/>
<glyph glyph-name="parenright" horiz-adv-x="355" unicode=")" d="M283 378q0 -80 -22 -162.5t-60.5 -160.5t-91.5 -147.5t-115 -124.5l-88 80q121 128 181.5 261t60.5 249q0 50 -5 93.5t-16.5 85t-30 81.5t-46.5 83l103 74q62 -74 96 -176t34 -236z"/>
<glyph glyph-name="asterisk" horiz-adv-x="434" unicode="*" d="M322 561l78 -76l-54 -55l-77 78l-28 -106l-74 20l30 106l-106 -29l-20 73l106 28l-78 77l54 54l77 -78l28 107l74 -21l-30 -106l107 30l19 -74z"/>
<glyph glyph-name="plus" horiz-adv-x="665" unicode="+" d="M573 317h-191l-30 -191h-124l31 191h-191l20 123h190l31 191h123l-30 -191h190z"/>
<glyph glyph-name="comma" horiz-adv-x="286" unicode="," d="M30 78q0 20 8 37t21.5 29.5t31 20t36.5 7.5q39 0 60.5 -26t21.5 -63q0 -39 -18 -78.5t-45.5 -75.5t-61 -65.5t-64.5 -48.5l-44 41q37 29 72 71t50 87q-29 0 -48.5 17.5t-19.5 46.5z"/>
<glyph glyph-name="hyphen" horiz-adv-x="430" unicode="-" d="M360 258h-310l19 124h311z"/>
<glyph glyph-name="period" horiz-adv-x="286" unicode="." d="M194 81q0 -19 -8 -36.5t-22 -31t-32.5 -22t-38.5 -8.5q-33 0 -53.5 20t-20.5 53q0 20 8.5 37.5t22.5 31.5t32.5 22t37.5 8q35 0 54.5 -22t19.5 -52z"/>
<glyph glyph-name="slash" horiz-adv-x="560" unicode="/" d="M-17 -238l-116 5l604 992l116 -5z"/>
<glyph glyph-name="zero" horiz-adv-x="679" unicode="0" d="M496 457q0 39 -8 71t-23 55.5t-36 36.5t-46 13q-40 0 -76 -24.5t-63.5 -69t-44 -106.5t-16.5 -136q0 -85 32 -131.5t80 -46.5q41 0 77 27.5t64 74t44 107.5t16 129zM649 463q0 -96 -27 -183t-76.5 -153t-119 -105t-153.5 -39q-50 0 -94.5 17.5t-77.5 54t-52.5 94.5 t-19.5 139q0 101 29 189.5t80 153.5t119.5 102.5t147.5 37.5q117 0 180.5 -82t63.5 -226z"/>
<glyph glyph-name="one" horiz-adv-x="425" unicode="1" d="M244 0h-159l99 618h-111l27 136h263z"/>
<glyph glyph-name="two" horiz-adv-x="657" unicode="2" d="M620 561q0 -74 -35.5 -135.5t-107.5 -126.5l-179 -166h262l-22 -133h-561l-1 2l346 322q40 37 67 68t43.5 57t23.5 49.5t7 45.5q0 42 -25 67t-73 25q-52 0 -87.5 -32.5t-44.5 -90.5l-2 -12h-159l2 12q9 60 35.5 107.5t66.5 81t91.5 51.5t109.5 18q55 0 100 -15.5 t76.5 -43.5t49 -66.5t17.5 -84.5z"/>
<glyph glyph-name="three" horiz-adv-x="631" unicode="3" d="M588 586q0 -59 -33 -106.5t-99 -76.5v-1q51 -23 76 -64t25 -96q0 -51 -22.5 -98t-62.5 -83t-95.5 -57t-120.5 -21q-57 0 -104 19t-79.5 51t-45.5 69.5t-13 70.5q0 14 2 28l2 11h154l-1 -11v-10q0 -39 23 -66.5t74 -27.5q59 0 95.5 39t36.5 100q0 40 -27.5 66t-79.5 26 h-22l16 102h23q56 1 90 32.5t34 81.5q0 34 -22 56.5t-61 22.5q-47 0 -76.5 -25t-36.5 -63l-2 -12h-145l2 12q8 50 30.5 89.5t58 68t84 43.5t107.5 15q45 0 84.5 -14t68.5 -38.5t45.5 -58.5t16.5 -74z"/>
<glyph glyph-name="four" horiz-adv-x="661" unicode="4" d="M402 539l-220 -247v-1h183l40 248h-3zM588 167h-94l-27 -167h-148l27 167h-349l14 94l440 500h137l-75 -470h95z"/>
<glyph glyph-name="five" horiz-adv-x="609" unicode="5" d="M550 620h-264l-32 -117q28 5 66 5q54 0 95 -17t69.5 -46t43 -69t14.5 -87q0 -67 -25 -123t-69.5 -96.5t-106 -63.5t-134.5 -23q-69 0 -128.5 22t-103.5 65l50 127q49 -43 94 -61.5t93 -18.5q36 0 66.5 11.5t53 31.5t35 49t12.5 63q0 54 -39.5 91.5t-120.5 37.5 q-37 0 -69 -7t-63 -19l-8 5l102 374h391z"/>
<glyph glyph-name="six" horiz-adv-x="671" unicode="6" d="M468 274q0 54 -33.5 90.5t-93.5 36.5q-36 0 -68 -13.5t-56 -37t-37.5 -54t-13.5 -64.5q0 -25 9 -47.5t26 -40t40.5 -27.5t51.5 -10q36 0 67.5 14t55.5 37.5t38 53.5t14 62zM620 292q0 -63 -26 -119t-72.5 -98.5t-109 -67t-136.5 -24.5q-57 0 -105 17.5t-82.5 49t-54 74.5 t-19.5 94q0 74 34 142t99 139l233 256l176 -5l-237 -250l1 -2q21 8 41 12t48 4q48 0 87 -17t66.5 -47t42 -70.5t14.5 -87.5z"/>
<glyph glyph-name="seven" horiz-adv-x="596" unicode="7" d="M167 -1l-170 4l408 615h-340l22 136h566z"/>
<glyph glyph-name="eight" horiz-adv-x="617" unicode="8" d="M400 241q0 38 -27 65.5t-71 27.5q-26 0 -50 -10.5t-42.5 -27.5t-29.5 -40t-11 -49q0 -43 26.5 -69.5t70.5 -26.5q28 0 52.5 11t42.5 29t28.5 41.5t10.5 48.5zM444 567q0 35 -24 60.5t-67 25.5q-27 0 -49.5 -10t-39 -26.5t-26 -38t-9.5 -44.5q0 -19 7 -35t19.5 -28 t29.5 -18.5t36 -6.5q26 0 48.5 10t39 26.5t26 38.5t9.5 46zM592 585q0 -32 -10.5 -61.5t-29 -55t-44 -46t-55.5 -33.5l-1 -1q96 -49 96 -152q0 -57 -22.5 -103.5t-63 -80t-96 -51.5t-120.5 -18q-51 0 -93.5 13t-74 37.5t-49 59.5t-17.5 78q0 78 42.5 133.5t114.5 84.5l1 1 q-40 21 -63 60.5t-23 87.5q0 50 22 92.5t60 74t90 49t112 17.5q53 0 95 -14.5t70.5 -40t43.5 -59t15 -72.5z"/>
<glyph glyph-name="nine" horiz-adv-x="666" unicode="9" d="M501 521q0 25 -9 47.5t-25.5 40t-40 27.5t-52.5 10q-36 0 -67.5 -14t-55.5 -38t-38 -54.5t-14 -63.5q0 -27 10 -50t27.5 -39t40.5 -25t50 -9q35 0 66.5 13.5t55.5 36.5t38 53.5t14 64.5zM651 530q0 -77 -36 -144t-108 -145l-221 -242l-176 4l235 247l-1 2q-19 -8 -37 -12 t-44 -4q-46 0 -85.5 18t-69 48.5t-46 70.5t-16.5 84q0 71 28 129t75 99t110.5 63.5t133.5 22.5q63 0 111 -19t80.5 -52t49.5 -77t17 -93z"/>
<glyph glyph-name="colon" horiz-adv-x="305" unicode=":" d="M198 81q0 -19 -8 -36.5t-22 -31t-32.5 -22t-38.5 -8.5q-33 0 -53.5 20t-20.5 53q0 20 8.5 37.5t22.5 31.5t32.5 22t37.5 8q35 0 54.5 -22t19.5 -52zM257 441q0 -19 -8 -36.5t-22 -31.5t-32.5 -22.5t-38.5 -8.5q-33 0 -53.5 20.5t-20.5 53.5q0 20 8.5 37.5t22.5 31.5 t32.5 22t37.5 8q35 0 54.5 -22t19.5 -52z"/>
<glyph glyph-name="semicolon" horiz-adv-x="333" unicode=";" d="M30 78q0 20 8 37t21.5 29.5t31 20t36.5 7.5q39 0 60.5 -26t21.5 -63q0 -39 -18 -78.5t-45.5 -75.5t-61 -65.5t-64.5 -48.5l-44 41q37 29 72 71t50 87q-29 0 -48.5 17.5t-19.5 46.5zM257.5 402.5q-8.5 -17.5 -22 -31t-32 -22t-38.5 -8.5q-33 0 -53.5 21.5t-20.5 52.5v3 q0 19 9 36.5t23 31t32 21.5t37 8q35 0 54.5 -22.5t19.5 -51.5q0 -21 -8.5 -38.5z"/>
<glyph glyph-name="less" horiz-adv-x="614" unicode="&lt;" d="M279 376l233 -161l-83 -100l-360 253l3 23l435 247l62 -101z"/>
<glyph glyph-name="equal" horiz-adv-x="665" unicode="=" d="M555 205h-504l19 123h505zM590 427h-504l20 124h504z"/>
<glyph glyph-name="greater" horiz-adv-x="606" unicode="&gt;" d="M556 368l-439 -251l-59 103l290 166l-236 158l86 97l361 -250z"/>
<glyph glyph-name="question" horiz-adv-x="569" unicode="?" d="M308 86q0 -19 -8.5 -38t-23 -33t-34 -23t-40.5 -9q-34 0 -56 21t-22 56q0 20 9 39t24 33.5t34 23t39 8.5q36 0 57 -23.5t21 -54.5zM559 563q0 -42 -16 -82.5t-46 -73.5t-73 -57t-97 -33l-13 -84h-151l29 183h25q41 0 75 11t58.5 29.5t38 44t13.5 53.5q0 39 -22 63t-62 24 t-66 -20.5t-37 -52.5l-148 14q20 89 89.5 139t178.5 50q50 0 91 -16.5t70.5 -45t46 -66t16.5 -80.5z"/>
<glyph glyph-name="at" horiz-adv-x="886" unicode="@" d="M527 392q0 34 -23.5 58t-59.5 24q-25 0 -45 -9.5t-34.5 -25t-22.5 -36.5t-8 -44q0 -39 25 -62t62 -23q24 0 43.5 9.5t33.5 26t21.5 38t7.5 44.5zM847 420q0 -49 -14.5 -93t-40 -76.5t-60.5 -51.5t-76 -19q-45 0 -76 20.5t-41 60.5h-2q-22 -32 -58.5 -54t-87.5 -22 q-31 0 -60 11.5t-51 33t-35 52t-13 67.5q0 46 16.5 85.5t44.5 68t65 44.5t77 16t68 -17.5t43 -43.5h1l10 48h104l-36 -202q-3 -14 -3 -27q0 -20 9 -42.5t43 -22.5q25 0 45 13t33.5 35.5t20.5 53t7 64.5q0 56 -23.5 107.5t-65.5 90.5t-101 62.5t-130 23.5q-80 0 -144.5 -26.5 t-110.5 -73.5t-70.5 -110.5t-24.5 -138.5q0 -67 25 -124t70.5 -98.5t109 -64.5t139.5 -23q75 0 135.5 19t102.5 45v-72q-40 -23 -102.5 -39.5t-138.5 -16.5q-78 0 -151.5 24t-130.5 71.5t-91.5 117.5t-34.5 161q0 93 33.5 169t90 130.5t131 84.5t157.5 30q87 0 159.5 -27 t124 -74.5t80 -111.5t28.5 -138z"/>
<glyph glyph-name="A" horiz-adv-x="757" unicode="A" d="M414 542h-2l-142 -258h198zM528 0l-35 160h-289l-88 -160h-167l430 760h131l186 -760h-168z"/>
<glyph glyph-name="B" horiz-adv-x="636" unicode="B" d="M432 240q0 85 -125 85h-86l-32 -202h75q89 0 128.5 32.5t39.5 84.5zM436 556q0 34 -27.5 54t-92.5 20h-47l-29 -184h51q77 0 111 29.5t34 80.5zM590 239q0 -48 -19 -91t-57.5 -76t-95.5 -52.5t-133 -19.5h-274l119 754h240q103 0 159.5 -44.5t56.5 -119.5 q0 -69 -32 -114.5t-94 -74.5v-2q63 -14 96.5 -57.5t33.5 -102.5z"/>
<glyph glyph-name="C" horiz-adv-x="672" unicode="C" d="M653 557l-3 -2q-35 35 -77 52.5t-99 17.5q-58 0 -110 -22.5t-90.5 -61.5t-61 -91t-22.5 -110q0 -48 15.5 -87t43 -67t64.5 -43t80 -15q53 0 107.5 19.5t94.5 57.5l1 -2l-30 -173q-100 -47 -206 -47q-71 0 -132 24t-106 68t-70.5 105t-25.5 136q0 102 37.5 186t100 144 t143 92.5t166.5 32.5q69 0 119 -13t92 -38z"/>
<glyph glyph-name="D" horiz-adv-x="733" unicode="D" d="M548 419q0 44 -14.5 81t-41 63t-63.5 40.5t-83 14.5h-79l-77 -483h93q58 0 106.5 22t84 60t55 90t19.5 112zM704 433q0 -90 -32 -169t-89.5 -137.5t-137 -92.5t-174.5 -34h-260l119 754h225q78 0 142.5 -25t110 -68.5t71 -102t25.5 -125.5z"/>
<glyph glyph-name="E" horiz-adv-x="538" unicode="E" d="M520 618h-253l-26 -166h242l-21 -130h-241l-31 -187h253l-21 -135h-411l119 754h411z"/>
<glyph glyph-name="F" horiz-adv-x="523" unicode="F" d="M509 618h-242l-27 -174h223l-19 -129h-224l-51 -315h-158l119 754h400z"/>
<glyph glyph-name="G" horiz-adv-x="857" unicode="G" d="M826 406q-4 -87 -34 -163.5t-85 -134.5t-134 -91.5t-180 -33.5q-79 0 -146.5 26.5t-116.5 72t-76.5 108t-27.5 134.5q0 94 32 175.5t91.5 142t143.5 95t189 34.5q60 0 112 -14.5t94.5 -40.5t74 -62t49.5 -80l-136 -56q-35 56 -88 85t-124 29q-62 0 -112 -23.5 t-85.5 -63.5t-55 -93t-19.5 -112q0 -47 15.5 -87t44 -69.5t67.5 -46t85 -16.5q47 0 83.5 11.5t64 32t47.5 49.5t34 65h-184l20 127h357z"/>
<glyph glyph-name="H" horiz-adv-x="779" unicode="H" d="M655 0h-158l52 329h-327l-53 -329h-158l119 754h158l-47 -299h328l47 299h158z"/>
<glyph glyph-name="I" horiz-adv-x="294" unicode="I" d="M169 0h-158l119 754h159z"/>
<glyph glyph-name="J" horiz-adv-x="423" unicode="J" d="M330 196q-17 -101 -75.5 -157t-153.5 -56q-42 0 -74 9.5t-51 25.5l32 134q17 -15 39.5 -24t43.5 -9q37 0 56.5 22.5t27.5 72.5l92 540h158z"/>
<glyph glyph-name="K" horiz-adv-x="686" unicode="K" d="M376 390l261 -390h-196l-212 335l-8 -5l-52 -330h-158l119 754h159l-51 -321h2l302 321h188z"/>
<glyph glyph-name="L" horiz-adv-x="482" unicode="L" d="M406 0h-395l119 754h159l-99 -619h237z"/>
<glyph glyph-name="M" horiz-adv-x="969" unicode="M" d="M731 0l2 482h-2l-278 -488h-59l-118 488h-2l-157 -482h-156l256 760h144l109 -475h2l264 475h147l6 -760h-158z"/>
<glyph glyph-name="N" horiz-adv-x="854" unicode="N" d="M733 -6h-122l-360 510h-2l-80 -504h-158l119 756h132l351 -510h2l80 508h158z"/>
<glyph glyph-name="O" d="M676 417q0 48 -15.5 88t-43.5 68t-67 43.5t-87 15.5q-59 0 -109.5 -23t-87 -63.5t-57 -94t-20.5 -115.5q0 -48 15 -88t43 -68t67.5 -43.5t87.5 -15.5q59 0 109.5 23t87 63t57 94t20.5 116zM840 431q0 -95 -34 -177t-94 -142t-142 -94.5t-178 -34.5q-78 0 -145 25.5 t-116 70.5t-77 107t-28 136q0 94 33.5 176t93 142.5t141.5 95.5t179 35q78 0 145.5 -25.5t116.5 -71t77 -107.5t28 -136z" unicode="O"/>
<glyph glyph-name="P" horiz-adv-x="620" unicode="P" d="M451 531q0 45 -32 69t-95 24h-56l-34 -218h49q86 0 127 31t41 94zM618 551q0 -58 -20 -108.5t-58 -87t-93 -57.5t-126 -21h-108l-44 -277h-158l119 754h243q55 0 100 -15t77.5 -42t50 -64.5t17.5 -81.5z"/>
<glyph glyph-name="Q" d="M676 417q0 48 -15.5 88t-43.5 68t-67 43.5t-87 15.5q-59 0 -109.5 -23t-87 -63.5t-57 -94t-20.5 -115.5q0 -48 15 -88t43 -68t67.5 -43.5t87.5 -15.5q29 0 55.5 7.5t49.5 19.5l-131 167h167l70 -89q29 38 46 87.5t17 103.5zM840 431q0 -97 -35.5 -180.5t-97.5 -143.5 l97 -121h-167l-38 47q-46 -24 -98 -37t-109 -13q-78 0 -145 25.5t-116 70.5t-77 107t-28 136q0 94 33.5 176t93 142.5t141.5 95.5t179 35q78 0 145.5 -25.5t116.5 -71t77 -107.5t28 -136z" unicode="Q"/>
<glyph glyph-name="R" horiz-adv-x="634" unicode="R" d="M439 540q0 46 -31.5 71t-102.5 25h-35l-35 -224h41q80 0 121.5 34t41.5 94zM600 563q0 -43 -13.5 -82.5t-40 -72t-66.5 -56t-94 -34.5l187 -318h-176l-171 307h-8l-49 -307h-158l119 754h233q117 0 177 -52.5t60 -138.5z"/>
<glyph glyph-name="S" horiz-adv-x="581" unicode="S" d="M486 574q-69 58 -134 58q-52 0 -79 -26.5t-27 -62.5q0 -25 20.5 -43.5t50.5 -36t66 -36.5t66 -45.5t50.5 -63t20.5 -88.5q0 -55 -21.5 -101t-59.5 -78t-91.5 -50t-117.5 -18q-75 0 -139 24.5t-115 71.5l87 122q44 -38 89.5 -59t90.5 -21q56 0 84.5 27.5t28.5 67.5 q0 28 -20 47.5t-50 37t-65 35.5t-65 43t-50 60.5t-20 87.5q0 56 22.5 101.5t61.5 77t90.5 48.5t108.5 17q67 0 113.5 -19.5t87.5 -50.5z"/>
<glyph glyph-name="T" horiz-adv-x="529" unicode="T" d="M551 618h-170l-98 -618h-158l98 618h-171l21 136h500z"/>
<glyph glyph-name="U" horiz-adv-x="738" unicode="U" d="M668 318q-26 -168 -112.5 -251.5t-244.5 -83.5q-67 0 -118.5 17.5t-86 48.5t-52.5 73t-18 91q0 26 3 51.5t8 54.5l68 435h159l-65 -411q-3 -24 -6.5 -50t-3.5 -49q0 -57 32.5 -89.5t98.5 -32.5q47 0 78.5 15.5t52.5 44t33 69.5t20 91l64 412h158z"/>
<glyph glyph-name="V" horiz-adv-x="732" unicode="V" d="M359 -6h-114l-190 760h171l118 -511h2l271 511h178z"/>
<glyph glyph-name="W" horiz-adv-x="1100" unicode="W" d="M799 -6h-149l-82 501h-2l-253 -501h-149l-109 760h165l63 -527h2l266 536h117l87 -536h2l238 527h164z"/>
<glyph glyph-name="X" horiz-adv-x="724" unicode="X" d="M448 380l184 -380h-177l-118 259h-2l-198 -259h-184l313 380l-182 374h180l110 -252h2l196 252h187z"/>
<glyph glyph-name="Y" horiz-adv-x="695" unicode="Y" d="M414 304l-48 -304h-159l48 304l-200 450h183l116 -298h2l209 298h190z"/>
<glyph glyph-name="Z" horiz-adv-x="670" unicode="Z" d="M233 135h349l-21 -135h-616l480 618h-326l21 136h593z"/>
<glyph glyph-name="bracketleft" horiz-adv-x="342" unicode="[" d="M376 660h-113l-121 -765h113l-19 -121h-249l159 1006h249z"/>
<glyph glyph-name="backslash" horiz-adv-x="750" unicode="\" d="M586 -238l-530 992l116 5l530 -992z"/>
<glyph glyph-name="bracketright" horiz-adv-x="342" unicode="]" d="M170 -226h-248l19 121h112l122 765h-113l19 120h249z"/>
<glyph glyph-name="underscore" horiz-adv-x="500" unicode="_" d="M362 -188h-400l20 124h399z"/>
<glyph glyph-name="grave" horiz-adv-x="292" unicode="`" d="M191 591l-130 173h173l70 -173h-113z"/>
<glyph glyph-name="a" horiz-adv-x="625" unicode="a" d="M445 277q0 50 -33.5 83t-87.5 33q-35 0 -63.5 -14t-49 -37t-32 -52t-11.5 -60q0 -58 34.5 -89.5t86.5 -31.5q34 0 62.5 14t49.5 37t32.5 53.5t11.5 63.5zM544 0h-147l8 57h-2q-28 -32 -70.5 -52t-96.5 -20q-40 0 -78.5 16.5t-67.5 46.5t-47 72.5t-18 95.5q0 63 23 118.5 t62.5 96t93.5 64t117 23.5q50 0 85.5 -20t58.5 -54h3l9 59h147z"/>
<glyph glyph-name="b" horiz-adv-x="640" unicode="b" d="M473 272q0 55 -32.5 88t-86.5 33q-34 0 -63 -13.5t-50 -36.5t-32.5 -53t-11.5 -63q0 -25 9 -46.5t24.5 -37.5t37.5 -25t48 -9q35 0 64 14t49.5 36.5t32 52t11.5 60.5zM617 288q0 -65 -22.5 -120.5t-62 -96t-94 -63.5t-118.5 -23q-49 0 -85 19.5t-59 53.5h-2l-9 -58h-147 l132 828h147l-61 -382h2q29 32 71.5 52t97.5 20q43 0 81.5 -16.5t67 -46.5t45 -72.5t16.5 -94.5z"/>
<glyph glyph-name="c" horiz-adv-x="476" unicode="c" d="M454 358q-23 18 -52 30t-74 12q-32 0 -61.5 -12.5t-52 -35t-36 -53.5t-13.5 -67q0 -64 38 -97t96 -33q33 0 64.5 12t57.5 32l-23 -125q-35 -19 -71 -27.5t-72 -8.5q-48 0 -90 16t-73 46t-49 72t-18 93q0 62 23 117.5t64.5 97.5t99 66.5t126.5 24.5q42 0 77.5 -10.5 t60.5 -26.5z"/>
<glyph glyph-name="d" horiz-adv-x="632" unicode="d" d="M451 277q0 50 -32.5 81t-83.5 31q-34 0 -63 -14t-50 -37t-33 -52.5t-12 -61.5q0 -49 30.5 -80t84.5 -31q35 0 64 13.5t50 36t33 52t12 62.5zM551 0h-148l10 64h-2q-31 -40 -76 -59.5t-94 -19.5q-47 0 -86.5 17.5t-68.5 48t-45 72t-16 89.5q0 67 23.5 123.5t63.5 97 t92.5 63t110.5 22.5q47 0 90.5 -18.5t68.5 -55.5h2l60 383h147z"/>
<glyph glyph-name="e" horiz-adv-x="591" unicode="e" d="M430 310q-5 48 -34.5 75t-74.5 27q-51 0 -86 -27t-50 -75h245zM569 294q0 -16 -2 -33t-5 -34h-390v-11q0 -23 7.5 -45.5t24.5 -39t40.5 -25.5t50.5 -9q39 0 64.5 14t48.5 38l133 -7q-38 -75 -103.5 -116t-160.5 -41q-52 0 -97.5 16.5t-80 47t-54.5 73t-20 93.5 q0 61 20 116t58 96.5t95 66t130 24.5q53 0 97 -17t76 -47t50 -71t18 -89z"/>
<glyph glyph-name="f" horiz-adv-x="375" unicode="f" d="M430 695q-12 5 -25.5 10t-29.5 5q-35 0 -55 -22.5t-28 -72.5l-18 -112h125l-19 -123h-125l-60 -380h-148l60 380h-61l20 123h61l18 110q8 56 29.5 98t53 70.5t71.5 43t85 14.5q17 0 34.5 -3.5t31.5 -11.5z"/>
<glyph glyph-name="g" horiz-adv-x="623" unicode="g" d="M445 277q0 50 -33.5 83t-87.5 33q-35 0 -63.5 -14t-49 -37t-32 -52t-11.5 -60q0 -57 34 -89t86 -32q34 0 63 13.5t50 36.5t32.5 53.5t11.5 64.5zM550 44q-25 -162 -105.5 -233t-217.5 -71q-55 0 -100 15t-77 41t-49 62.5t-16 79.5h147q5 -39 37 -59t74 -20 q35 0 61.5 10.5t46 33.5t32.5 59t21 88l-2 1q-29 -32 -65.5 -49t-90.5 -17q-44 0 -84 16t-70.5 46t-48.5 72.5t-18 95.5q0 65 23 120t63 96t94 64t116 23q50 0 87.5 -19.5t57.5 -54.5h2l9 59h147z"/>
<glyph glyph-name="h" horiz-adv-x="597" unicode="h" d="M509 0h-147l41 263q5 31 5 55q0 28 -10 54.5t-63 26.5q-48 0 -83.5 -36.5t-46.5 -105.5l-40 -257h-148l131 828h147l-61 -393h2q33 42 77.5 62.5t98.5 20.5q50 0 82.5 -16.5t49 -45t18.5 -53t2 -35.5q0 -31 -7 -66z"/>
<glyph glyph-name="i" horiz-adv-x="259" unicode="i" d="M168 0h-148l80 503h147zM286 692q0 -20 -7.5 -37t-20.5 -30t-30 -20t-37 -7q-29 0 -48.5 19t-19.5 49q0 20 8 36.5t21 29.5t30.5 20t36.5 7q29 0 48 -19t19 -48z"/>
<glyph glyph-name="j" horiz-adv-x="258" unicode="j" d="M158 -52q-17 -103 -75 -155.5t-152 -52.5q-23 0 -42 4t-33 11l23 132q18 -8 30.5 -11t23.5 -3q32 0 52.5 20.5t29.5 74.5l84 535h146zM286 692q0 -20 -7.5 -37t-21 -30t-30.5 -20t-37 -7q-29 0 -48.5 19t-19.5 49q0 20 8 36.5t21.5 29.5t31 20t36.5 7q29 0 48 -19t19 -48 z"/>
<glyph glyph-name="k" horiz-adv-x="567" unicode="k" d="M335 273l199 -273h-180l-145 221l-8 -7l-33 -214h-150l131 825h148l-80 -507l201 185h183z"/>
<glyph glyph-name="l" horiz-adv-x="259" unicode="l" d="M168 0h-148l131 826h148z"/>
<glyph glyph-name="m" horiz-adv-x="903" unicode="m" d="M815 0h-147l41 259q4 24 5.5 39.5t1.5 22.5q0 17 -4.5 34.5t-19 30.5t-43.5 13q-54 0 -80.5 -37t-37.5 -110l-40 -252h-148l41 256q5 31 6 47t1 21q0 20 -5.5 37.5t-21 29t-44.5 11.5q-48 0 -75.5 -37.5t-39.5 -116.5l-40 -248h-147l79 503h148l-10 -63h2q31 36 72 57 t92 21q60 0 95.5 -25.5t50.5 -67.5q29 42 77 67.5t106 25.5q45 0 74.5 -13.5t45.5 -39.5t18.5 -50.5t2.5 -37.5q0 -27 -5 -58z"/>
<glyph glyph-name="n" horiz-adv-x="597" unicode="n" d="M509 0h-148l42 263q5 31 5 55q0 28 -10 54.5t-63 26.5q-50 0 -84.5 -37t-44.5 -105l-41 -257h-147l79 503h148l-11 -68h3q65 83 174 83q50 0 82 -16t49 -44.5t19 -53t2 -34.5q0 -31 -7 -66z"/>
<glyph glyph-name="o" horiz-adv-x="601" unicode="o" d="M437 272q0 25 -9 47t-25 38.5t-38 26t-47 9.5q-34 0 -62 -12.5t-47.5 -34.5t-30 -52t-10.5 -65q0 -25 9 -47t25 -38t37.5 -25.5t46.5 -9.5q34 0 61.5 12.5t47.5 34t31 51.5t11 65zM580 289q0 -64 -20.5 -119.5t-60 -96.5t-96.5 -64.5t-129 -23.5q-53 0 -98.5 17.5t-79 48 t-52.5 72t-19 90.5q0 64 20.5 119.5t60 97t96 65t128.5 23.5q53 0 98.5 -17.5t79.5 -48t53 -72.5t19 -91z"/>
<glyph glyph-name="p" horiz-adv-x="637" unicode="p" d="M472 272q0 55 -33 88t-87 33q-34 0 -63 -13.5t-49.5 -36.5t-32 -53t-11.5 -63q0 -25 9 -46.5t24.5 -37.5t37.5 -25t48 -9q35 0 64 14t49.5 36.5t32 52t11.5 60.5zM616 288q0 -65 -22 -120.5t-61 -96t-92.5 -63.5t-117.5 -23q-47 0 -87.5 20.5t-61.5 52.5h-2l-51 -320 h-146l122 765h148l-10 -57h2q29 32 71.5 52t97.5 20q43 0 81.5 -16.5t67 -46.5t45 -72.5t16.5 -94.5z"/>
<glyph glyph-name="q" horiz-adv-x="631" unicode="q" d="M451 276q0 49 -32.5 81t-83.5 32q-34 0 -63 -14t-50 -37t-33 -53t-12 -62q0 -48 30.5 -79t84.5 -31q36 0 65 13.5t50 36t32.5 52t11.5 61.5zM509 -261h-147l51 325h-2q-30 -41 -76.5 -60t-93.5 -19t-86.5 17.5t-68.5 48t-45 72t-16 89.5q0 67 23.5 123.5t63.5 97t92.5 63 t110.5 22.5q47 0 91 -19t67 -57h2l9 61h148z"/>
<glyph glyph-name="r" horiz-adv-x="419" unicode="r" d="M410 369q-12 4 -28 6.5t-38 2.5q-60 0 -95 -37.5t-49 -122.5l-35 -218h-147l79 503h148l-12 -79h2q29 43 71.5 64.5t91.5 21.5h7q6 0 12.5 -0.5t12 -1t6.5 -0.5z"/>
<glyph glyph-name="s" horiz-adv-x="448" unicode="s" d="M374 375q-19 15 -43 25t-49 10q-32 0 -53 -15.5t-21 -35.5q0 -17 15.5 -27.5t38.5 -18.5t49.5 -17t49.5 -24t38.5 -38.5t15.5 -61.5q0 -37 -17.5 -71t-48 -60t-73 -41t-93.5 -15q-59 0 -112.5 20t-87.5 55l77 95q21 -25 59 -42t74 -17q38 0 57.5 17.5t19.5 37.5 q0 19 -15 30t-38 20t-49 19t-49 26t-38 40t-15 62t17 69t47 53.5t70.5 35t86.5 12.5q47 0 86 -12.5t70 -34.5z"/>
<glyph glyph-name="t" horiz-adv-x="343" unicode="t" d="M355 380h-98l-59 -380h-148l60 380h-57l19 123h57l26 157h147l-25 -157h98z"/>
<glyph glyph-name="u" horiz-adv-x="600" unicode="u" d="M542 210q-17 -111 -83 -169t-192 -58q-67 0 -112.5 18t-71.5 49.5t-31.5 64.5t-5.5 56q0 25 4 52l44 280h148l-44 -282q-3 -17 -3 -32q0 -86 91 -86q25 0 43.5 7t32 23.5t22.5 43t15 65.5l42 261h147z"/>
<glyph glyph-name="v" horiz-adv-x="580" unicode="v" d="M449 503h166l-332 -509h-91l-173 509h165l86 -311z"/>
<glyph glyph-name="w" horiz-adv-x="835" unicode="w" d="M586 -6h-105l-69 310l-165 -310h-109l-119 509h156l58 -306h1l166 312h88l67 -312h1l155 306h155z"/>
<glyph glyph-name="x" horiz-adv-x="568" unicode="x" d="M363 254l152 -254h-167l-80 156h-2l-139 -156h-168l243 253l-146 250h166l75 -152h2l134 152h168z"/>
<glyph glyph-name="y" horiz-adv-x="606" unicode="y" d="M129 -261h-156l213 318l-167 446h165l103 -300h2l188 300h162z"/>
<glyph glyph-name="z" horiz-adv-x="536" unicode="z" d="M228 122h255l-19 -122h-496l336 380h-243l20 123h483z"/>
<glyph glyph-name="braceleft" horiz-adv-x="338" unicode="{" d="M366 660q-35 0 -54 -21t-27 -75l-27 -172q-8 -50 -34.5 -77.5t-72.5 -36.5l-1 -2q44 -9 59 -32t15 -53q0 -13 -3 -29l-27 -171q-3 -22 -3 -39q0 -24 9 -41t44 -17l-19 -122q-97 0 -137 40t-40 100q0 18 3 39l28 176q2 12 2 22q0 26 -13 46t-45 20l20 123q32 0 55 23.5 t29 65.5l28 177q14 87 73.5 132t156.5 45z"/>
<glyph glyph-name="bar" horiz-adv-x="513" unicode="|" d="M194 -238v997h125v-997h-125z"/>
<glyph glyph-name="braceright" horiz-adv-x="353" unicode="}" d="M298 215q-32 0 -55 -23t-30 -65l-27 -176q-14 -88 -73 -133.5t-157 -45.5l19 122q35 0 53.5 21.5t27.5 75.5l27 171q8 50 34 77.5t73 36.5v2q-43 9 -58 32.5t-15 52.5q0 13 2 29l27 172q3 22 3 39q0 24 -9 40.5t-44 16.5l19 121q98 0 137.5 -39t39.5 -99q0 -18 -3 -39 l-28 -177q-2 -12 -2 -22q0 -26 13 -46.5t45 -20.5z"/>
<glyph glyph-name="asciitilde" horiz-adv-x="452" unicode="~" d="M431 448q-11 -74 -48 -107.5t-96 -33.5q-18 0 -36 6t-35 13.5t-33.5 13.5t-31.5 6q-19 0 -30 -10.5t-14 -28.5h-87q11 75 49 107.5t95 32.5q18 0 36 -6t35.5 -13.5t33.5 -13.5t31 -6q19 0 30 11t14 29h87z"/>
<glyph glyph-name="exclamdown" horiz-adv-x="344" unicode="¡" d="M151 -253h-151l81 516h152zM275 441q0 -20 -8.5 -39t-23.5 -34t-34.5 -24t-40.5 -9q-35 0 -56 22.5t-21 54.5q0 20 8.5 39t23.5 33.5t34 23.5t40 9q35 0 56.5 -22t21.5 -54z"/>
<glyph glyph-name="cent" horiz-adv-x="544" unicode="¢" d="M497 490q-23 18 -52.5 30.5t-74.5 12.5q-32 0 -61 -13t-51.5 -35.5t-36 -53.5t-13.5 -67q0 -64 38 -97t96 -33q33 0 64 12t57 32l-22 -125q-26 -14 -53.5 -23t-56.5 -11l-18 -108h-95l18 113q-37 9 -68 28t-53.5 47.5t-35 65t-12.5 79.5q0 55 18.5 105.5t52 90.5 t80.5 67.5t104 37.5l15 98h95l-14 -95q29 -3 55.5 -12t45.5 -22z"/>
<glyph glyph-name="sterling" horiz-adv-x="676" unicode="£" d="M474 541v8q0 44 -21.5 69t-66.5 25q-49 0 -80 -29.5t-31 -77.5q0 -27 6 -48.5t15 -41t18.5 -39t15.5 -42.5h143l-12 -82h-126q-8 -38 -35 -76t-82 -70q35 0 59.5 -4t45 -9.5t39.5 -9.5t42 -4q42 0 77 20.5t62 54.5l69 -99q-38 -51 -90 -77t-121 -26q-37 0 -66.5 6 t-56.5 12.5t-54 12.5t-59 6q-36 0 -64.5 -7t-63.5 -22l-33 118q165 79 180 174h-136l13 82h117q-5 19 -13 36.5t-16 38.5t-13.5 47t-5.5 61q0 47 20 88t55 71t83 47t105 17q117 0 173.5 -55t56.5 -149q0 -13 -1 -26h-148z"/>
<glyph glyph-name="yen" horiz-adv-x="725" unicode="¥" d="M488 385h152l-16 -96h-200l-11 -67h201l-15 -96h-201l-20 -126h-158l20 126h-202l15 96h202l10 67h-201l15 96h153l-164 369h183l116 -298h1l210 298h189z"/>
<glyph glyph-name="section" horiz-adv-x="519" unicode="§" d="M334 294q0 30 -19 51t-51 21q-22 0 -40.5 -8.5t-32.5 -22.5t-22 -33t-8 -39q0 -32 21 -52t49 -20q21 0 39.5 8.5t33 23t22.5 33t8 38.5zM455 606q-31 22 -61 33.5t-63 11.5q-42 0 -67 -19.5t-25 -51.5q0 -22 17.5 -37.5t44 -30t57 -29.5t57 -36t44 -49.5t17.5 -70.5 q0 -72 -41.5 -123t-107.5 -77q33 -19 56 -55t23 -83q0 -42 -19.5 -80t-53 -66t-78 -44.5t-94.5 -16.5q-66 0 -117.5 19t-100.5 51l63 111q39 -29 74.5 -44t77.5 -15q48 0 74 20.5t26 57.5q0 24 -17.5 40.5t-44.5 30.5t-57.5 28.5t-57.5 35t-44.5 49.5t-17.5 71q0 33 11.5 64 t31.5 56.5t47 44.5t58 30q-31 18 -53 51.5t-22 75.5q0 47 18 86t49 67t72.5 43.5t89.5 15.5q66 0 111 -15.5t82 -38.5z"/>
<glyph glyph-name="dieresis" horiz-adv-x="550" unicode="¨" d="M277 692q0 -20 -7.5 -37t-21 -30t-30.5 -20t-37 -7q-28 0 -48 19t-20 49q0 20 8 36.5t21.5 29.5t31 20t36.5 7q29 0 48 -19t19 -48zM536 692q0 -20 -7.5 -37t-20.5 -30t-30 -20t-37 -7q-28 0 -48 19t-20 49q0 20 8 36.5t21.5 29.5t31 20t36.5 7q29 0 47.5 -19t18.5 -48z "/>
<glyph glyph-name="copyright" horiz-adv-x="850" unicode="©" d="M557 188q-27 -14 -53.5 -21.5t-53.5 -7.5q-53 0 -95 17.5t-71.5 47.5t-45 70.5t-15.5 86.5t16 86.5t45 70.5t70.5 47.5t93.5 17.5q29 0 57 -8t52 -22v-100l-1 -1q-19 22 -47.5 34.5t-59.5 12.5q-60 0 -97 -38t-37 -100q0 -30 10 -55.5t28 -44t43 -29t55 -10.5 q28 0 58 12.5t47 32.5h1v-99zM776 377q0 72 -26.5 134.5t-73 109.5t-111 74t-141.5 27t-141 -27t-110.5 -73.5t-72.5 -109.5t-26 -135t26.5 -135t73 -110t111.5 -74t141 -27q77 0 141 27t110.5 73.5t72.5 109.5t26 136zM827 377q0 -82 -29.5 -154t-82.5 -125t-126.5 -84 t-161.5 -31t-162.5 31t-127.5 84.5t-83 125.5t-30 154t29.5 153.5t82.5 125t126.5 84t161.5 30.5t162 -31t127.5 -84t83.5 -125t30 -154z"/>
<glyph glyph-name="ordfeminine" horiz-adv-x="394" unicode="ª" d="M313 628q0 29 -19.5 48t-50.5 19q-21 0 -37.5 -8t-28 -21t-18 -30t-6.5 -35q0 -33 20 -51.5t50 -18.5q20 0 36.5 8t28.5 21.5t18.5 31t6.5 36.5zM377 463h-92l5 33h-1q-17 -19 -42 -31t-57 -12q-24 0 -47 10t-41 28t-28.5 43.5t-10.5 57.5q0 38 14 71t38 57.5t56.5 38.5 t69.5 14q29 0 50 -12t35 -32h2l5 35h92z"/>
<glyph glyph-name="guillemotleft" horiz-adv-x="535" unicode="«" d="M149 255l100 -166l-93 -61l-129 227l201 226l72 -58zM365 255l100 -166l-93 -61l-129 227l201 226l72 -58z"/>
<glyph glyph-name="logicalnot" horiz-adv-x="353" unicode="¬" d="M298 313q-32 0 -55 -23.5t-30 -65.5l-27 -177q-14 -88 -73 -132.5t-157 -44.5l19 121q35 0 53.5 21t27.5 75l27 172q8 50 34 77.5t73 36.5v3q-43 9 -58 32t-15 52q0 13 2 29l27 172q3 22 3 39q0 24 -9 40.5t-44 16.5l19 122q98 0 137.5 -39.5t39.5 -99.5q0 -18 -3 -39 l-28 -177q-2 -12 -2 -22q0 -26 13 -46t45 -20z"/>
<glyph glyph-name="minus" horiz-adv-x="594" unicode="­" d="M539 194h-512l20 124h512z"/>
<glyph glyph-name="registered" horiz-adv-x="850" unicode="®" d="M480 462q0 31 -19 45.5t-61 14.5h-17v-119h20q77 0 77 59zM504 168l-119 173h-2v-173h-90v425h132q72 0 110.5 -34t38.5 -92q0 -41 -26 -74.5t-72 -42.5l132 -182h-104zM776 377q0 72 -26.5 134.5t-73 109.5t-111 74t-141.5 27t-141 -27t-110.5 -73.5t-72.5 -109.5 t-26 -135t26.5 -135t73 -110t111.5 -74t141 -27q77 0 141 27t110.5 73.5t72.5 109.5t26 136zM827 377q0 -82 -29.5 -154t-82.5 -125t-126.5 -84t-161.5 -31t-162.5 31t-127.5 84.5t-83 125.5t-30 154t29.5 153.5t82.5 125t126.5 84t161.5 30.5t162 -31t127.5 -84t83.5 -125 t30 -154z"/>
<glyph glyph-name="macron" horiz-adv-x="502" unicode="¯" d="M494 632h-415l17 100h415z"/>
<glyph glyph-name="degree" horiz-adv-x="352" unicode="°" d="M300 632q0 28 -20.5 49t-52.5 21q-42 0 -66 -28t-24 -64q0 -29 20.5 -49t52.5 -20q42 0 66 27t24 64zM375 641q0 -36 -12 -67t-34 -54t-54 -36t-71 -13q-30 0 -55.5 10t-44.5 27.5t-30 41t-11 51.5q0 36 12 67t34 54t54 36t71 13q30 0 55.5 -10t44.5 -27.5t30 -41 t11 -51.5z"/>
<glyph glyph-name="plusminus" horiz-adv-x="517" unicode="±" d="M449 315h-400l19 123h400z"/>
<glyph glyph-name="acute" horiz-adv-x="292" unicode="´" d="M162 591h-113l117 173h173z"/>
<glyph glyph-name="mu" horiz-adv-x="684" unicode="µ" d="M484 608q2 13 2 25q0 30 -17.5 54.5t-65.5 24.5q-47 0 -76 -27t-36 -75l-17 -107h194zM713 503l-20 -123h-98l-60 -380h-147l60 380h-193l-60 -380h-148l60 380h-61l20 123h61l16 99q17 108 82 170.5t186 62.5q127 0 176 -54.5t49 -127.5q0 -21 -4 -45l-17 -105h98z"/>
<glyph glyph-name="paragraph" horiz-adv-x="615" unicode="¶" d="M483 0h-88l105 665h-90l-105 -665h-88l43 277q-107 3 -159 56.5t-52 153.5q0 54 22 102t61.5 85t94 58.5t120.5 21.5h256z"/>
<glyph glyph-name="cedilla" horiz-adv-x="255" unicode="¸" d="M-8 -230l-59 41l144 154l76 -55z"/>
<glyph glyph-name="ordmasculine" horiz-adv-x="394" unicode="º" d="M310 626q0 29 -20 49t-49 20q-39 0 -62.5 -27t-23.5 -67q0 -29 19.5 -50t48.5 -21q39 0 63 27t24 69zM399 636q0 -38 -12.5 -71.5t-36 -58t-57.5 -39t-78 -14.5q-31 0 -58.5 10.5t-47.5 29t-31.5 43.5t-11.5 54q0 38 12.5 71.5t36 58.5t58 39t77.5 14q32 0 59 -10.5 t47 -28.5t31.5 -43t11.5 -55z"/>
<glyph glyph-name="guillemotright" horiz-adv-x="515" unicode="»" d="M79 28l-75 61l154 166l-98 168l91 58l130 -226zM296 28l-75 61l153 166l-98 168l91 58l130 -226z"/>
<glyph glyph-name="questiondown" horiz-adv-x="502" unicode="¿" d="M180 -273q-50 0 -91 16.5t-70.5 45t-45.5 66t-16 80.5q0 42 16 82t46 73t72.5 57t96.5 33l13 84h151l-29 -183h-25q-41 0 -75 -10.5t-58.5 -29.5t-38 -44t-13.5 -53q0 -39 21.5 -63t62.5 -24q40 0 66 20t37 52l147 -14q-20 -89 -89 -138.5t-178 -49.5zM391 437 q0 -20 -9 -39t-24 -33.5t-34 -23t-39 -8.5q-36 0 -57 23.5t-21 54.5q0 20 8.5 38.5t23 33t34 23.5t40.5 9q34 0 56 -21.5t22 -56.5z"/>
<glyph glyph-name="Agrave" horiz-adv-x="757" unicode="À" d="M399 825l-130 173h174l70 -173h-114zM414 542h-2l-142 -258h198zM528 0l-35 160h-289l-88 -160h-167l430 760h131l186 -760h-168z"/>
<glyph glyph-name="Aacute" horiz-adv-x="757" unicode="Á" d="M499 825h-113l116 173h174zM414 542h-2l-142 -258h198zM528 0l-35 160h-289l-88 -160h-167l430 760h131l186 -760h-168z"/>
<glyph glyph-name="Acircumflex" horiz-adv-x="757" unicode="Â" d="M536 821l-62 97l-95 -97h-132l174 181h135l116 -181h-136zM414 542h-2l-142 -258h198zM528 0l-35 160h-289l-88 -160h-167l430 760h131l186 -760h-168z"/>
<glyph glyph-name="Atilde" horiz-adv-x="757" unicode="Ã" d="M698 989q-12 -82 -52.5 -117.5t-103.5 -35.5q-19 0 -38.5 6.5t-38.5 14.5t-36.5 14.5t-33.5 6.5q-20 0 -31.5 -11t-14.5 -30h-96q12 81 53 116.5t104 35.5q20 0 39 -6.5t37.5 -15t36 -15t33.5 -6.5q20 0 31.5 11.5t14.5 31.5h96zM414 542h-2l-142 -258h198zM528 0 l-35 160h-289l-88 -160h-167l430 760h131l186 -760h-168z"/>
<glyph glyph-name="Adieresis" horiz-adv-x="757" unicode="Ä" d="M427 923q0 -20 -7.5 -37.5t-21 -30t-30.5 -20t-37 -7.5q-28 0 -48 19.5t-20 49.5q0 20 8 36.5t21.5 29.5t31 20t36.5 7q29 0 48 -19t19 -48zM686 923q0 -20 -7.5 -37.5t-20.5 -30t-30 -20t-37 -7.5q-28 0 -48 19.5t-20 49.5q0 20 8 36.5t21.5 29.5t31 20t36.5 7 q29 0 47.5 -19t18.5 -48zM414 542h-2l-142 -258h198zM528 0l-35 160h-289l-88 -160h-167l430 760h131l186 -760h-168z"/>
<glyph glyph-name="Aring" horiz-adv-x="757" unicode="Å" d="M414 542h-2l-142 -258h198zM499 854q0 17 -12 30t-29 13q-24 0 -38.5 -16.5t-14.5 -42.5q0 -17 11.5 -30t28.5 -13q25 0 39.5 16.5t14.5 42.5zM528 0l-35 160h-289l-88 -160h-167l426 753q-19 11 -30.5 31.5t-11.5 45.5q0 55 34 92.5t97 37.5q23 0 42 -7.5t33.5 -21 t22.5 -31t8 -38.5q0 -35 -16 -64t-43 -44l185 -754h-168z"/>
<glyph glyph-name="AE" horiz-adv-x="1085" unicode="Æ" d="M647 555l-236 -271h190l48 271h-2zM1068 618h-253l-27 -166h242l-20 -130h-241l-31 -187h253l-21 -135h-414l25 160h-281l-149 -160h-196l688 754h446z"/>
<glyph glyph-name="Ccedilla" horiz-adv-x="672" unicode="Ç" d="M268 -245l-59 41l144 154l76 -55zM653 557l-3 -2q-35 35 -77 52.5t-99 17.5q-58 0 -110 -22.5t-90.5 -61.5t-61 -91t-22.5 -110q0 -48 15.5 -87t43 -67t64.5 -43t80 -15q53 0 107.5 19.5t94.5 57.5l1 -2l-30 -173q-100 -47 -206 -47q-71 0 -132 24t-106 68t-70.5 105 t-25.5 136q0 102 37.5 186t100 144t143 92.5t166.5 32.5q69 0 119 -13t92 -38z"/>
<glyph glyph-name="Egrave" horiz-adv-x="538" unicode="È" d="M314 810l-130 173h174l70 -173h-114zM520 618h-253l-26 -166h242l-21 -130h-241l-31 -187h253l-21 -135h-411l119 754h411z"/>
<glyph glyph-name="Eacute" horiz-adv-x="538" unicode="É" d="M378 810h-114l117 173h174zM520 618h-253l-26 -166h242l-21 -130h-241l-31 -187h253l-21 -135h-411l119 754h411z"/>
<glyph glyph-name="Ecircumflex" horiz-adv-x="538" unicode="Ê" d="M417 810l-62 97l-95 -97h-133l175 180h134l116 -180h-135zM520 618h-253l-26 -166h242l-21 -130h-241l-31 -187h253l-21 -135h-411l119 754h411z"/>
<glyph glyph-name="Edieresis" horiz-adv-x="538" unicode="Ë" d="M305 911q0 -20 -7.5 -37t-21 -30t-30.5 -20t-37 -7q-28 0 -47.5 19t-19.5 49q0 20 8 36.5t21 29.5t30.5 20t36.5 7q29 0 48 -19t19 -48zM565 911q0 -20 -7.5 -37t-21 -30t-30.5 -20t-37 -7q-28 0 -48 19t-20 49q0 20 8 36.5t21.5 29.5t31 20t36.5 7q29 0 48 -19t19 -48z M520 618h-253l-26 -166h242l-21 -130h-241l-31 -187h253l-21 -135h-411l119 754h411z"/>
<glyph glyph-name="Igrave" horiz-adv-x="294" unicode="Ì" d="M180 810l-130 173h174l70 -173h-114zM169 0h-158l119 754h159z"/>
<glyph glyph-name="Iacute" horiz-adv-x="294" unicode="Í" d="M249 810h-113l116 173h174zM169 0h-158l119 754h159z"/>
<glyph glyph-name="Icircumflex" horiz-adv-x="294" unicode="Î" d="M296 810l-62 97l-95 -97h-133l175 180h135l116 -180h-136zM169 0h-158l119 754h159z"/>
<glyph glyph-name="Idieresis" horiz-adv-x="294" unicode="Ï" d="M188 911q0 -20 -7.5 -37t-21 -30t-30.5 -20t-37 -7q-28 0 -48 19t-20 49q0 20 8 36.5t21.5 29.5t31 20t36.5 7q29 0 48 -19t19 -48zM447 911q0 -20 -7.5 -37t-20.5 -30t-30 -20t-37 -7q-28 0 -48 19t-20 49q0 20 8 36.5t21.5 29.5t31 20t36.5 7q29 0 47.5 -19t18.5 -48z M169 0h-158l119 754h159z"/>
<glyph glyph-name="Eth" horiz-adv-x="733" unicode="Ð" d="M548 419q0 44 -14.5 81t-41 63t-63.5 40.5t-83 14.5h-79l-28 -177h125l-20 -127h-125l-29 -179h93q58 0 106.5 22t84 60t55 90t19.5 112zM704 433q0 -90 -32 -169t-89.5 -137.5t-137 -92.5t-174.5 -34h-260l50 314h-84l20 127h84l49 313h225q78 0 142.5 -25t110 -68.5 t71 -102t25.5 -125.5z"/>
<glyph glyph-name="Ntilde" horiz-adv-x="852" unicode="Ñ" d="M740 978q-12 -82 -53 -117.5t-104 -35.5q-19 0 -38.5 6.5t-38.5 14.5t-36.5 14.5t-33.5 6.5q-20 0 -31.5 -11.5t-14.5 -30.5h-95q12 81 53 117t104 36q20 0 39 -6.5t37.5 -15t36 -15t33.5 -6.5q20 0 31.5 11.5t14.5 31.5h96zM733 -6h-122l-360 510h-2l-80 -504h-158 l119 756h132l351 -510h2l80 508h158z"/>
<glyph glyph-name="Ograve" d="M420 823l-129 174h173l70 -174h-114zM676 417q0 48 -15.5 88t-43.5 68t-67 43.5t-87 15.5q-59 0 -109.5 -23t-87 -63.5t-57 -94t-20.5 -115.5q0 -48 15 -88t43 -68t67.5 -43.5t87.5 -15.5q59 0 109.5 23t87 63t57 94t20.5 116zM840 431q0 -95 -34 -177t-94 -142 t-142 -94.5t-178 -34.5q-78 0 -145 25.5t-116 70.5t-77 107t-28 136q0 94 33.5 176t93 142.5t141.5 95.5t179 35q78 0 145.5 -25.5t116.5 -71t77 -107.5t28 -136z" unicode="Ò"/>
<glyph glyph-name="Oacute" d="M545 823h-113l116 174h174zM676 417q0 48 -15.5 88t-43.5 68t-67 43.5t-87 15.5q-59 0 -109.5 -23t-87 -63.5t-57 -94t-20.5 -115.5q0 -48 15 -88t43 -68t67.5 -43.5t87.5 -15.5q59 0 109.5 23t87 63t57 94t20.5 116zM840 431q0 -95 -34 -177t-94 -142t-142 -94.5 t-178 -34.5q-78 0 -145 25.5t-116 70.5t-77 107t-28 136q0 94 33.5 176t93 142.5t141.5 95.5t179 35q78 0 145.5 -25.5t116.5 -71t77 -107.5t28 -136z" unicode="Ó"/>
<glyph glyph-name="Ocircumflex" d="M676 417q0 48 -15.5 88t-44 68t-67.5 43.5t-87 15.5q-59 0 -109.5 -23t-87 -63.5t-57 -94t-20.5 -115.5q0 -48 15.5 -88t43.5 -68t67.5 -43.5t87.5 -15.5q59 0 109.5 23t87 63t57 94t20.5 116zM839 431q0 -95 -34 -177t-94 -142t-142 -94.5t-178 -34.5q-78 0 -145 25.5 t-116 70.5t-76.5 107t-27.5 136q0 94 33.5 176t93 142.5t141.5 95.5t179 35q78 0 145 -25.5t116 -71t77 -107.5t28 -136zM573 821l-62 97l-95 -97h-133l175 181h134l116 -181h-135z" unicode="Ô"/>
<glyph glyph-name="Otilde" d="M719 989q-12 -82 -52.5 -117.5t-103.5 -35.5q-19 0 -38.5 6.5t-38.5 14.5t-36.5 14.5t-33.5 6.5q-20 0 -31.5 -11t-14.5 -30h-95q12 81 52.5 116.5t103.5 35.5q20 0 39.5 -6.5t38 -15t36 -15t33.5 -6.5q20 0 31.5 11.5t14.5 31.5h95zM676 417q0 48 -15.5 88t-43.5 68 t-67 43.5t-87 15.5q-59 0 -109.5 -23t-87 -63.5t-57 -94t-20.5 -115.5q0 -48 15 -88t43 -68t67.5 -43.5t87.5 -15.5q59 0 109.5 23t87 63t57 94t20.5 116zM840 431q0 -95 -34 -177t-94 -142t-142 -94.5t-178 -34.5q-78 0 -145 25.5t-116 70.5t-77 107t-28 136q0 94 33.5 176 t93 142.5t141.5 95.5t179 35q78 0 145.5 -25.5t116.5 -71t77 -107.5t28 -136z" unicode="Õ"/>
<glyph glyph-name="Odieresis" d="M466 923q0 -20 -7.5 -37.5t-21 -30t-30.5 -20t-37 -7.5q-28 0 -48 19.5t-20 49.5q0 20 8 36.5t21.5 29.5t31 20t36.5 7q29 0 48 -19t19 -48zM725 923q0 -20 -7.5 -37.5t-20.5 -30t-30 -20t-37 -7.5q-28 0 -48 19.5t-20 49.5q0 20 8 36.5t21 29.5t30.5 20t36.5 7 q29 0 48 -19t19 -48zM676 417q0 48 -15.5 88t-43.5 68t-67 43.5t-87 15.5q-59 0 -109.5 -23t-87 -63.5t-57 -94t-20.5 -115.5q0 -48 15 -88t43 -68t67.5 -43.5t87.5 -15.5q59 0 109.5 23t87 63t57 94t20.5 116zM840 431q0 -95 -34 -177t-94 -142t-142 -94.5t-178 -34.5 q-78 0 -145 25.5t-116 70.5t-77 107t-28 136q0 94 33.5 176t93 142.5t141.5 95.5t179 35q78 0 145.5 -25.5t116.5 -71t77 -107.5t28 -136z" unicode="Ö"/>
<glyph glyph-name="multiply" horiz-adv-x="665" unicode="×" d="M417 379l114 -136l-101 -87l-115 135l-155 -134l-74 87l156 135l-113 134l101 88l114 -135l155 135l74 -88z"/>
<glyph glyph-name="Oslash" d="M676 417q0 33 -8 63t-22 55l-367 -377q24 -17 55.5 -27t67.5 -10q59 0 109.5 23t87 63t57 94t20.5 116zM588 593q-50 39 -125 39q-59 0 -109.5 -23t-87 -63.5t-57 -94t-20.5 -115.5q0 -70 31 -121zM754 655q40 -44 63 -101t23 -123q0 -95 -34 -177t-94 -142t-142 -94.5 t-178 -34.5q-62 0 -116 16t-98 46l-84 -86l-59 55l78 82q-41 44 -64 102t-23 124q0 94 33.5 176t93 142.5t141.5 95.5t179 35q63 0 118 -17t99 -48q5 4 18 18t28 29q18 18 38 39l60 -57z" unicode="Ø"/>
<glyph glyph-name="Ugrave" horiz-adv-x="738" unicode="Ù" d="M398 810l-129 173h173l70 -173h-114zM668 318q-26 -168 -112.5 -251.5t-244.5 -83.5q-67 0 -118.5 17.5t-86 48.5t-52.5 73t-18 91q0 26 3 51.5t8 54.5l68 435h159l-65 -411q-3 -24 -6.5 -50t-3.5 -49q0 -57 32.5 -89.5t98.5 -32.5q47 0 78.5 15.5t52.5 44t33 69.5t20 91 l64 412h158z"/>
<glyph glyph-name="Uacute" horiz-adv-x="738" unicode="Ú" d="M444 810h-113l117 173h173zM668 318q-26 -168 -112.5 -251.5t-244.5 -83.5q-67 0 -118.5 17.5t-86 48.5t-52.5 73t-18 91q0 26 3 51.5t8 54.5l68 435h159l-65 -411q-3 -24 -6.5 -50t-3.5 -49q0 -57 32.5 -89.5t98.5 -32.5q47 0 78.5 15.5t52.5 44t33 69.5t20 91l64 412 h158z"/>
<glyph glyph-name="Ucircumflex" horiz-adv-x="738" unicode="Û" d="M503 810l-62 97l-95 -97h-132l174 180h135l116 -180h-136zM668 318q-26 -168 -112.5 -251.5t-244.5 -83.5q-67 0 -118.5 17.5t-86 48.5t-52.5 73t-18 91q0 26 3 51.5t8 54.5l68 435h159l-65 -411q-3 -24 -6.5 -50t-3.5 -49q0 -57 32.5 -89.5t98.5 -32.5q47 0 78.5 15.5 t52.5 44t33 69.5t20 91l64 412h158z"/>
<glyph glyph-name="Udieresis" horiz-adv-x="738" unicode="Ü" d="M388 911q0 -20 -7.5 -37t-21 -30t-30.5 -20t-37 -7q-28 0 -48 19t-20 49q0 20 8 36.5t21.5 29.5t31 20t36.5 7q29 0 48 -19t19 -48zM647 911q0 -20 -7.5 -37t-20.5 -30t-30 -20t-37 -7q-28 0 -48 19t-20 49q0 20 8 36.5t21.5 29.5t31 20t36.5 7q29 0 47.5 -19t18.5 -48z M668 318q-26 -168 -112.5 -251.5t-244.5 -83.5q-67 0 -118.5 17.5t-86 48.5t-52.5 73t-18 91q0 26 3 51.5t8 54.5l68 435h159l-65 -411q-3 -24 -6.5 -50t-3.5 -49q0 -57 32.5 -89.5t98.5 -32.5q47 0 78.5 15.5t52.5 44t33 69.5t20 91l64 412h158z"/>
<glyph glyph-name="Yacute" horiz-adv-x="695" unicode="Ý" d="M450 810h-114l117 173h173zM414 304l-48 -304h-159l48 304l-200 450h183l116 -298h2l209 298h190z"/>
<glyph glyph-name="Thorn" horiz-adv-x="620" unicode="Þ" d="M429 392q0 45 -32 69t-95 24h-56l-34 -218h49q86 0 127 31t41 94zM596 412q0 -58 -20 -108.5t-58 -87t-93 -57.5t-126 -21h-108l-22 -138h-158l119 754h157l-20 -139h84q55 0 100 -15t77.5 -42t50 -64.5t17.5 -81.5z"/>
<glyph glyph-name="germandbls" horiz-adv-x="593" unicode="ß" d="M588 659q0 -55 -24.5 -101.5t-84.5 -91.5q-39 -29 -53 -46.5t-14 -32.5q0 -18 11.5 -30t28.5 -23.5t37.5 -24t37.5 -31t28.5 -45t11.5 -65.5q0 -38 -16 -71.5t-45 -58t-70.5 -39t-92.5 -14.5q-71 0 -120 20l45 110q40 -19 77 -19q38 0 57.5 16t19.5 40q0 20 -11 33.5 t-28 24.5t-36 22t-36 28t-28 42t-11 63q0 29 16.5 63.5t57.5 67.5q29 24 48 42.5t30 35t15 32t4 34.5q0 32 -21.5 51.5t-57.5 19.5q-49 0 -76 -29.5t-38 -101.5l-92 -580h-148l97 604q36 235 279 235q46 0 83.5 -13t63.5 -37t40.5 -57t14.5 -73z"/>
<glyph glyph-name="agrave" horiz-adv-x="625" unicode="à" d="M326 591l-130 173h173l71 -173h-114zM445 277q0 50 -33.5 83t-87.5 33q-35 0 -63.5 -14t-49 -37t-32 -52t-11.5 -60q0 -58 34.5 -89.5t86.5 -31.5q34 0 62.5 14t49.5 37t32.5 53.5t11.5 63.5zM544 0h-147l8 57h-2q-28 -32 -70.5 -52t-96.5 -20q-40 0 -78.5 16.5 t-67.5 46.5t-47 72.5t-18 95.5q0 63 23 118.5t62.5 96t93.5 64t117 23.5q50 0 85.5 -20t58.5 -54h3l9 59h147z"/>
<glyph glyph-name="aacute" horiz-adv-x="625" unicode="á" d="M393 591h-113l117 173h173zM445 277q0 50 -33.5 83t-87.5 33q-35 0 -63.5 -14t-49 -37t-32 -52t-11.5 -60q0 -58 34.5 -89.5t86.5 -31.5q34 0 62.5 14t49.5 37t32.5 53.5t11.5 63.5zM544 0h-147l8 57h-2q-28 -32 -70.5 -52t-96.5 -20q-40 0 -78.5 16.5t-67.5 46.5 t-47 72.5t-18 95.5q0 63 23 118.5t62.5 96t93.5 64t117 23.5q50 0 85.5 -20t58.5 -54h3l9 59h147z"/>
<glyph glyph-name="acircumflex" horiz-adv-x="625" unicode="â" d="M450 591l-62 96l-95 -96h-133l175 180h135l115 -180h-135zM445 277q0 50 -33.5 83t-87.5 33q-35 0 -63.5 -14t-49 -37t-32 -52t-11.5 -60q0 -58 34.5 -89.5t86.5 -31.5q34 0 62.5 14t49.5 37t32.5 53.5t11.5 63.5zM544 0h-147l8 57h-2q-28 -32 -70.5 -52t-96.5 -20 q-40 0 -78.5 16.5t-67.5 46.5t-47 72.5t-18 95.5q0 63 23 118.5t62.5 96t93.5 64t117 23.5q50 0 85.5 -20t58.5 -54h3l9 59h147z"/>
<glyph glyph-name="atilde" horiz-adv-x="625" unicode="ã" d="M607 759q-12 -82 -52.5 -118t-103.5 -36q-19 0 -38.5 6.5t-38.5 15t-36.5 15t-33.5 6.5q-20 0 -31.5 -11.5t-14.5 -30.5h-95q12 81 53 117t104 36q20 0 39 -6.5t37.5 -15t36 -15t33.5 -6.5q20 0 31.5 11.5t14.5 31.5h95zM445 277q0 50 -33.5 83t-87.5 33q-35 0 -63.5 -14 t-49 -37t-32 -52t-11.5 -60q0 -58 34.5 -89.5t86.5 -31.5q34 0 62.5 14t49.5 37t32.5 53.5t11.5 63.5zM544 0h-147l8 57h-2q-28 -32 -70.5 -52t-96.5 -20q-40 0 -78.5 16.5t-67.5 46.5t-47 72.5t-18 95.5q0 63 23 118.5t62.5 96t93.5 64t117 23.5q50 0 85.5 -20t58.5 -54h3 l9 59h147z"/>
<glyph glyph-name="adieresis" horiz-adv-x="625" unicode="ä" d="M336 692q0 -20 -7.5 -37t-21 -30t-30.5 -20t-37 -7q-28 0 -48 19t-20 49q0 20 8 36.5t21.5 29.5t31 20t36.5 7q29 0 48 -19t19 -48zM595 692q0 -20 -7.5 -37t-20.5 -30t-30 -20t-37 -7q-28 0 -48 19t-20 49q0 20 8 36.5t21.5 29.5t31 20t36.5 7q29 0 47.5 -19t18.5 -48z M445 277q0 50 -33.5 83t-87.5 33q-35 0 -63.5 -14t-49 -37t-32 -52t-11.5 -60q0 -58 34.5 -89.5t86.5 -31.5q34 0 62.5 14t49.5 37t32.5 53.5t11.5 63.5zM544 0h-147l8 57h-2q-28 -32 -70.5 -52t-96.5 -20q-40 0 -78.5 16.5t-67.5 46.5t-47 72.5t-18 95.5q0 63 23 118.5 t62.5 96t93.5 64t117 23.5q50 0 85.5 -20t58.5 -54h3l9 59h147z"/>
<glyph glyph-name="aring" horiz-adv-x="625" unicode="å" d="M449 688q0 17 -12 30t-29 13q-24 0 -38.5 -16.5t-14.5 -42.5q0 -18 11.5 -30.5t28.5 -12.5q25 0 39.5 16.5t14.5 42.5zM521 696q0 -27 -9 -50.5t-26 -41.5t-41 -28t-55 -10q-45 0 -76 28t-31 70q0 27 9 50.5t25.5 41.5t41 28t55.5 10q45 0 76 -28t31 -70zM445 277 q0 50 -33.5 83t-87.5 33q-35 0 -63.5 -14t-49 -37t-32 -52t-11.5 -60q0 -58 34.5 -89.5t86.5 -31.5q34 0 62.5 14t49.5 37t32.5 53.5t11.5 63.5zM544 0h-147l8 57h-2q-28 -32 -70.5 -52t-96.5 -20q-40 0 -78.5 16.5t-67.5 46.5t-47 72.5t-18 95.5q0 63 23 118.5t62.5 96 t93.5 64t117 23.5q50 0 85.5 -20t58.5 -54h3l9 59h147z"/>
<glyph glyph-name="ae" horiz-adv-x="961" unicode="æ" d="M353 167q0 28 -21 45t-65 17q-21 0 -40.5 -5.5t-34.5 -16t-24 -24.5t-9 -32q0 -31 23.5 -47t65.5 -16q20 0 38.5 6t33.5 17t24 25.5t9 30.5zM801 310q-5 48 -35 75t-74 27q-51 0 -86.5 -27t-50.5 -75h246zM939 294q0 -16 -2 -33t-5 -34h-390v-11q0 -23 7.5 -45.5 t24.5 -39t40.5 -25.5t50.5 -9q39 0 64.5 14t48.5 38l133 -7q-38 -75 -103.5 -116t-160.5 -41q-45 0 -78 7t-58.5 21t-44 34t-34.5 45h-4q-38 -54 -93 -80.5t-124 -26.5q-37 0 -71.5 10.5t-61.5 29.5t-43.5 46t-16.5 60q0 46 18.5 80.5t50.5 57.5t74 34.5t89 11.5 q42 0 73 -8.5t60 -25.5h3q0 2 1 7t1.5 11t1 11t0.5 6v6q0 39 -26 61.5t-83 22.5q-45 0 -87 -9t-82 -24l18 117q41 13 85 20.5t99 7.5q66 0 111.5 -24t63.5 -69h3q38 43 92.5 68t113.5 25q53 0 97.5 -17t76.5 -47t49.5 -71t17.5 -89z"/>
<glyph glyph-name="ccedilla" horiz-adv-x="476" unicode="ç" d="M177 -240l-59 41l145 154l76 -55zM454 358q-23 18 -52 30t-74 12q-32 0 -61.5 -12.5t-52 -35t-36 -53.5t-13.5 -67q0 -64 38 -97t96 -33q33 0 64.5 12t57.5 32l-23 -125q-35 -19 -71 -27.5t-72 -8.5q-48 0 -90 16t-73 46t-49 72t-18 93q0 62 23 117.5t64.5 97.5t99 66.5 t126.5 24.5q42 0 77.5 -10.5t60.5 -26.5z"/>
<glyph glyph-name="egrave" horiz-adv-x="591" unicode="è" d="M286 591l-130 173h173l70 -173h-113zM430 310q-5 48 -34.5 75t-74.5 27q-51 0 -86 -27t-50 -75h245zM569 294q0 -16 -2 -33t-5 -34h-390v-11q0 -23 7.5 -45.5t24.5 -39t40.5 -25.5t50.5 -9q39 0 64.5 14t48.5 38l133 -7q-38 -75 -103.5 -116t-160.5 -41q-52 0 -97.5 16.5 t-80 47t-54.5 73t-20 93.5q0 61 20 116t58 96.5t95 66t130 24.5q53 0 97 -17t76 -47t50 -71t18 -89z"/>
<glyph glyph-name="eacute" horiz-adv-x="591" unicode="é" d="M403 591h-113l117 173h173zM430 310q-5 48 -34.5 75t-74.5 27q-51 0 -86 -27t-50 -75h245zM569 294q0 -16 -2 -33t-5 -34h-390v-11q0 -23 7.5 -45.5t24.5 -39t40.5 -25.5t50.5 -9q39 0 64.5 14t48.5 38l133 -7q-38 -75 -103.5 -116t-160.5 -41q-52 0 -97.5 16.5t-80 47 t-54.5 73t-20 93.5q0 61 20 116t58 96.5t95 66t130 24.5q53 0 97 -17t76 -47t50 -71t18 -89z"/>
<glyph glyph-name="ecircumflex" horiz-adv-x="591" unicode="ê" d="M416 591l-63 96l-95 -96h-132l175 180h134l116 -180h-135zM430 310q-5 48 -34.5 75t-74.5 27q-51 0 -86 -27t-50 -75h245zM569 294q0 -16 -2 -33t-5 -34h-390v-11q0 -23 7.5 -45.5t24.5 -39t40.5 -25.5t50.5 -9q39 0 64.5 14t48.5 38l133 -7q-38 -75 -103.5 -116 t-160.5 -41q-52 0 -97.5 16.5t-80 47t-54.5 73t-20 93.5q0 61 20 116t58 96.5t95 66t130 24.5q53 0 97 -17t76 -47t50 -71t18 -89z"/>
<glyph glyph-name="edieresis" horiz-adv-x="591" unicode="ë" d="M305 692q0 -20 -7.5 -37t-21 -30t-30.5 -20t-37 -7q-28 0 -48 19t-20 49q0 20 8 36.5t21.5 29.5t31 20t36.5 7q29 0 48 -19t19 -48zM564 692q0 -20 -7.5 -37t-20.5 -30t-30 -20t-37 -7q-28 0 -48 19t-20 49q0 20 8 36.5t21 29.5t30.5 20t36.5 7q29 0 48 -19t19 -48z M430 310q-5 48 -34.5 75t-74.5 27q-51 0 -86 -27t-50 -75h245zM569 294q0 -16 -2 -33t-5 -34h-390v-11q0 -23 7.5 -45.5t24.5 -39t40.5 -25.5t50.5 -9q39 0 64.5 14t48.5 38l133 -7q-38 -75 -103.5 -116t-160.5 -41q-52 0 -97.5 16.5t-80 47t-54.5 73t-20 93.5q0 61 20 116 t58 96.5t95 66t130 24.5q53 0 97 -17t76 -47t50 -71t18 -89z"/>
<glyph glyph-name="igrave" horiz-adv-x="259" unicode="ì" d="M141 591l-130 173h174l70 -173h-114zM168 0h-148l80 503h147z"/>
<glyph glyph-name="iacute" horiz-adv-x="259" unicode="í" d="M220 591h-114l117 173h173zM168 0h-148l80 503h147z"/>
<glyph glyph-name="icircumflex" horiz-adv-x="259" unicode="î" d="M266 591l-63 96l-95 -96h-131l174 180h134l116 -180h-135zM168 0h-148l80 503h147z"/>
<glyph glyph-name="idieresis" horiz-adv-x="259" unicode="ï" d="M153 692q0 -20 -7.5 -37t-20.5 -30t-30 -20t-37 -7q-28 0 -47.5 19t-19.5 49q0 20 7.5 36.5t20.5 29.5t30.5 20t36.5 7q29 0 48 -19t19 -48zM413 692q0 -20 -7.5 -37t-21 -30t-30.5 -20t-37 -7q-28 0 -48 19t-20 49q0 20 8 36.5t21.5 29.5t31 20t36.5 7q29 0 48 -19 t19 -48zM168 0h-148l80 503h147z"/>
<glyph glyph-name="ntilde" horiz-adv-x="597" unicode="ñ" d="M586 759q-12 -82 -53 -118t-104 -36q-19 0 -38.5 6.5t-38.5 15t-36.5 15t-33.5 6.5q-20 0 -31.5 -11.5t-14.5 -30.5h-95q12 81 53 117t104 36q20 0 39 -6.5t37.5 -15t36 -15t33.5 -6.5q20 0 31.5 11.5t14.5 31.5h96zM509 0h-148l42 263q5 31 5 55q0 28 -10 54.5t-63 26.5 q-50 0 -84.5 -37t-44.5 -105l-41 -257h-147l79 503h148l-11 -68h3q65 83 174 83q50 0 82 -16t49 -44.5t19 -53t2 -34.5q0 -31 -7 -66z"/>
<glyph glyph-name="ograve" horiz-adv-x="601" unicode="ò" d="M278 591l-129 173h173l70 -173h-114zM437 272q0 25 -9 47t-25 38.5t-38 26t-47 9.5q-34 0 -62 -12.5t-47.5 -34.5t-30 -52t-10.5 -65q0 -25 9 -47t25 -38t37.5 -25.5t46.5 -9.5q34 0 61.5 12.5t47.5 34t31 51.5t11 65zM580 289q0 -64 -20.5 -119.5t-60 -96.5t-96.5 -64.5 t-129 -23.5q-53 0 -98.5 17.5t-79 48t-52.5 72t-19 90.5q0 64 20.5 119.5t60 97t96 65t128.5 23.5q53 0 98.5 -17.5t79.5 -48t53 -72.5t19 -91z"/>
<glyph glyph-name="oacute" horiz-adv-x="601" unicode="ó" d="M399 591h-113l116 173h174zM437 272q0 25 -9 47t-25 38.5t-38 26t-47 9.5q-34 0 -62 -12.5t-47.5 -34.5t-30 -52t-10.5 -65q0 -25 9 -47t25 -38t37.5 -25.5t46.5 -9.5q34 0 61.5 12.5t47.5 34t31 51.5t11 65zM580 289q0 -64 -20.5 -119.5t-60 -96.5t-96.5 -64.5 t-129 -23.5q-53 0 -98.5 17.5t-79 48t-52.5 72t-19 90.5q0 64 20.5 119.5t60 97t96 65t128.5 23.5q53 0 98.5 -17.5t79.5 -48t53 -72.5t19 -91z"/>
<glyph glyph-name="ocircumflex" horiz-adv-x="601" unicode="ô" d="M427 591l-63 96l-95 -96h-132l175 180h134l116 -180h-135zM437 272q0 25 -9 47t-25 38.5t-38 26t-47 9.5q-34 0 -62 -12.5t-47.5 -34.5t-30 -52t-10.5 -65q0 -25 9 -47t25 -38t37.5 -25.5t46.5 -9.5q34 0 61.5 12.5t47.5 34t31 51.5t11 65zM580 289q0 -64 -20.5 -119.5 t-60 -96.5t-96.5 -64.5t-129 -23.5q-53 0 -98.5 17.5t-79 48t-52.5 72t-19 90.5q0 64 20.5 119.5t60 97t96 65t128.5 23.5q53 0 98.5 -17.5t79.5 -48t53 -72.5t19 -91z"/>
<glyph glyph-name="otilde" horiz-adv-x="601" unicode="õ" d="M587 759q-12 -82 -53 -118t-104 -36q-19 0 -38.5 6.5t-38.5 15t-36.5 15t-33.5 6.5q-20 0 -31.5 -11.5t-14.5 -30.5h-95q12 81 53 117t104 36q20 0 39 -6.5t37.5 -15t36 -15t33.5 -6.5q20 0 31.5 11.5t14.5 31.5h96zM437 272q0 25 -9 47t-25 38.5t-38 26t-47 9.5 q-34 0 -62 -12.5t-47.5 -34.5t-30 -52t-10.5 -65q0 -25 9 -47t25 -38t37.5 -25.5t46.5 -9.5q34 0 61.5 12.5t47.5 34t31 51.5t11 65zM580 289q0 -64 -20.5 -119.5t-60 -96.5t-96.5 -64.5t-129 -23.5q-53 0 -98.5 17.5t-79 48t-52.5 72t-19 90.5q0 64 20.5 119.5t60 97t96 65 t128.5 23.5q53 0 98.5 -17.5t79.5 -48t53 -72.5t19 -91z"/>
<glyph glyph-name="odieresis" horiz-adv-x="601" unicode="ö" d="M313 692q0 -20 -7.5 -37t-21 -30t-30.5 -20t-37 -7q-28 0 -48 19t-20 49q0 20 8 36.5t21.5 29.5t31 20t36.5 7q29 0 48 -19t19 -48zM572 692q0 -20 -7.5 -37t-20.5 -30t-30 -20t-37 -7q-28 0 -48 19t-20 49q0 20 8 36.5t21.5 29.5t31 20t36.5 7q29 0 47.5 -19t18.5 -48z M437 272q0 25 -9 47t-25 38.5t-38 26t-47 9.5q-34 0 -62 -12.5t-47.5 -34.5t-30 -52t-10.5 -65q0 -25 9 -47t25 -38t37.5 -25.5t46.5 -9.5q34 0 61.5 12.5t47.5 34t31 51.5t11 65zM580 289q0 -64 -20.5 -119.5t-60 -96.5t-96.5 -64.5t-129 -23.5q-53 0 -98.5 17.5t-79 48 t-52.5 72t-19 90.5q0 64 20.5 119.5t60 97t96 65t128.5 23.5q53 0 98.5 -17.5t79.5 -48t53 -72.5t19 -91z"/>
<glyph glyph-name="divide" horiz-adv-x="665" unicode="÷" d="M371 179q0 -15 -7 -30t-18 -26.5t-26 -18.5t-32 -7q-28 0 -45 17t-17 46q0 16 7 31t18.5 26.5t26.5 18.5t31 7q29 0 45.5 -19t16.5 -45zM573 316h-505l20 124h504zM434 594q0 -15 -7 -30t-18 -26t-26 -18t-32 -7q-28 0 -45 17t-17 46q0 16 7 31t18.5 26.5t26.5 18.5t31 7 q29 0 45.5 -19.5t16.5 -45.5z"/>
<glyph glyph-name="oslash" horiz-adv-x="601" unicode="ø" d="M437 272q0 26 -10 49l-208 -191q29 -21 67 -21q34 0 61.5 12.5t47.5 34t31 51.5t11 65zM388 370q-28 23 -70 23q-34 0 -62 -12.5t-47.5 -34.5t-30 -52t-10.5 -65q0 -29 12 -53zM596 482q-9 -9 -20 -19q-9 -8 -20 -18t-22 -21q22 -27 34 -62t12 -73q0 -64 -20.5 -119.5 t-60 -96.5t-96.5 -64.5t-129 -23.5q-45 0 -85 12.5t-71 35.5l-71 -64l-40 44l66 61q-23 29 -35.5 64t-12.5 75q0 64 20.5 119.5t60 97t96 65t128.5 23.5q46 0 87 -13.5t72 -37.5l65 60z"/>
<glyph glyph-name="ugrave" horiz-adv-x="600" unicode="ù" d="M312 591l-130 173h173l70 -173h-113zM542 210q-17 -111 -83 -169t-192 -58q-67 0 -112.5 18t-71.5 49.5t-31.5 64.5t-5.5 56q0 25 4 52l44 280h148l-44 -282q-3 -17 -3 -32q0 -86 91 -86q25 0 43.5 7t32 23.5t22.5 43t15 65.5l42 261h147z"/>
<glyph glyph-name="uacute" horiz-adv-x="600" unicode="ú" d="M395 591h-113l117 173h173zM542 210q-17 -111 -83 -169t-192 -58q-67 0 -112.5 18t-71.5 49.5t-31.5 64.5t-5.5 56q0 25 4 52l44 280h148l-44 -282q-3 -17 -3 -32q0 -86 91 -86q25 0 43.5 7t32 23.5t22.5 43t15 65.5l42 261h147z"/>
<glyph glyph-name="ucircumflex" horiz-adv-x="600" unicode="û" d="M428 591l-63 96l-95 -96h-132l175 180h134l116 -180h-135zM542 210q-17 -111 -83 -169t-192 -58q-67 0 -112.5 18t-71.5 49.5t-31.5 64.5t-5.5 56q0 25 4 52l44 280h148l-44 -282q-3 -17 -3 -32q0 -86 91 -86q25 0 43.5 7t32 23.5t22.5 43t15 65.5l42 261h147z"/>
<glyph glyph-name="udieresis" horiz-adv-x="600" unicode="ü" d="M320 692q0 -20 -7.5 -37t-21 -30t-30.5 -20t-37 -7q-28 0 -48 19t-20 49q0 20 8 36.5t21.5 29.5t31 20t36.5 7q29 0 48 -19t19 -48zM579 692q0 -20 -7.5 -37t-20.5 -30t-30 -20t-37 -7q-28 0 -48 19t-20 49q0 20 8 36.5t21 29.5t30.5 20t36.5 7q29 0 48 -19t19 -48z M542 210q-17 -111 -83 -169t-192 -58q-67 0 -112.5 18t-71.5 49.5t-31.5 64.5t-5.5 56q0 25 4 52l44 280h148l-44 -282q-3 -17 -3 -32q0 -86 91 -86q25 0 43.5 7t32 23.5t22.5 43t15 65.5l42 261h147z"/>
<glyph glyph-name="yacute" horiz-adv-x="606" unicode="ý" d="M390 591h-113l117 173h173zM129 -261h-156l213 318l-167 446h165l103 -300h2l188 300h162z"/>
<glyph glyph-name="thorn" horiz-adv-x="637" unicode="þ" d="M472 272q0 55 -33 88t-87 33q-34 0 -63 -13.5t-49.5 -36.5t-32 -53t-11.5 -63q0 -25 9 -46.5t24.5 -37.5t37.5 -25t48 -9q35 0 64 14t49.5 36.5t32 52t11.5 60.5zM616 288q0 -65 -22 -120.5t-61 -96t-92.5 -63.5t-117.5 -23q-47 0 -87.5 20.5t-61.5 52.5h-2l-51 -320 h-146l168 1049h147l-55 -341h2q29 32 71.5 52t97.5 20q43 0 81.5 -16.5t67 -46.5t45 -72.5t16.5 -94.5z"/>
<glyph glyph-name="OE" horiz-adv-x="971" unicode="Œ" d="M450 618q-58 0 -106.5 -22t-84 -60t-55 -90t-19.5 -112q0 -44 14.5 -80.5t41 -63t64 -41t83.5 -14.5h78l77 483h-93zM953 618h-253l-27 -166h242l-20 -130h-242l-30 -187h253l-21 -135h-477q-78 0 -142.5 25t-110 68t-71 101.5t-25.5 125.5q0 90 32 169.5t89.5 138 t137 92.5t174.5 34h512z"/>
<glyph glyph-name="oe" horiz-adv-x="994" unicode="œ" d="M437 272q0 25 -9 47t-25 38.5t-38 26t-47 9.5q-34 0 -62 -12.5t-47.5 -34.5t-30 -52t-10.5 -65q0 -25 9 -47t25 -38t37.5 -25.5t46.5 -9.5q34 0 61.5 12.5t47.5 34t31 51.5t11 65zM834 308q-6 47 -32.5 71.5t-76.5 24.5q-43 0 -75.5 -26t-46.5 -70h231zM972 294 q0 -32 -6 -67h-376v-11q0 -52 27 -85.5t81 -33.5q38 0 64 14t49 38l133 -7q-38 -75 -103 -116t-155 -41q-60 0 -112 25t-84 67q-36 -41 -94 -66.5t-128 -25.5q-50 0 -94 17.5t-77 48t-52.5 72t-19.5 90.5q0 64 20.5 119.5t59.5 97t94.5 65t125.5 23.5q61 0 111.5 -25.5 t82.5 -67.5q38 42 92.5 67.5t125.5 25.5q51 0 94 -17t74.5 -47t49 -71t17.5 -89z"/>
<glyph glyph-name="Scaron" horiz-adv-x="581" unicode="Š" d="M453 823h-135l-115 181h135l63 -98l94 98h133zM486 574q-69 58 -134 58q-52 0 -79 -26.5t-27 -62.5q0 -25 20.5 -43.5t50.5 -36t66 -36.5t66 -45.5t50.5 -63t20.5 -88.5q0 -55 -21.5 -101t-59.5 -78t-91.5 -50t-117.5 -18q-75 0 -139 24.5t-115 71.5l87 122 q44 -38 89.5 -59t90.5 -21q56 0 84.5 27.5t28.5 67.5q0 28 -20 47.5t-50 37t-65 35.5t-65 43t-50 60.5t-20 87.5q0 56 22.5 101.5t61.5 77t90.5 48.5t108.5 17q67 0 113.5 -19.5t87.5 -50.5z"/>
<glyph glyph-name="scaron" horiz-adv-x="448" unicode="š" d="M365 591h-134l-116 180h136l62 -98l94 98h133zM374 375q-19 15 -43 25t-49 10q-32 0 -53 -15.5t-21 -35.5q0 -17 15.5 -27.5t38.5 -18.5t49.5 -17t49.5 -24t38.5 -38.5t15.5 -61.5q0 -37 -17.5 -71t-48 -60t-73 -41t-93.5 -15q-59 0 -112.5 20t-87.5 55l77 95 q21 -25 59 -42t74 -17q38 0 57.5 17.5t19.5 37.5q0 19 -15 30t-38 20t-49 19t-49 26t-38 40t-15 62t17 69t47 53.5t70.5 35t86.5 12.5q47 0 86 -12.5t70 -34.5z"/>
<glyph glyph-name="Ydieresis" horiz-adv-x="695" unicode="Ÿ" d="M373 911q0 -20 -7.5 -37t-21 -30t-30.5 -20t-37 -7q-28 0 -47.5 19t-19.5 49q0 20 8 36.5t21 29.5t30.5 20t36.5 7q29 0 48 -19t19 -48zM633 911q0 -20 -7.5 -37t-21 -30t-30.5 -20t-37 -7q-28 0 -48 19t-20 49q0 20 8 36.5t21.5 29.5t31 20t36.5 7q29 0 48 -19t19 -48z M414 304l-48 -304h-159l48 304l-200 450h183l116 -298h2l209 298h190z"/>
<glyph glyph-name="circumflex" horiz-adv-x="476" unicode="ˆ" d="M348 591l-62 96l-95 -96h-132l175 180h134l116 -180h-136z"/>
<glyph glyph-name="tilde" horiz-adv-x="465" unicode="˜" d="M512 759q-12 -82 -52.5 -118t-103.5 -36q-19 0 -38.5 6.5t-38.5 15t-36.5 15t-33.5 6.5q-20 0 -31.5 -11.5t-14.5 -30.5h-95q12 81 53 117t104 36q20 0 39 -6.5t37.5 -15t36 -15t33.5 -6.5q20 0 31.5 11.5t14.5 31.5h95z"/>
<glyph glyph-name="endash" horiz-adv-x="517" unicode="–" d="M449 258h-400l19 124h400z"/>
<glyph glyph-name="emdash" horiz-adv-x="767" unicode="—" d="M699 258h-650l19 124h650z"/>
<glyph glyph-name="quoteleft" horiz-adv-x="307" unicode="‘" d="M256 511q0 -19 -8 -36.5t-21 -30t-30.5 -20t-36.5 -7.5q-39 0 -60.5 26.5t-21.5 63.5q0 39 18 78.5t46 75.5t61 65.5t64 48.5l45 -40q-18 -15 -37 -33t-35.5 -39t-29.5 -43t-21 -45q29 0 48 -17.5t19 -46.5z"/>
<glyph glyph-name="quotesinglbase" horiz-adv-x="286" unicode="‚" d="M30 78q0 20 8 37t21.5 29.5t31 20t36.5 7.5q39 0 60.5 -26t21.5 -63q0 -39 -18 -78.5t-45.5 -75.5t-61 -65.5t-64.5 -48.5l-44 41q37 29 72 71t50 87q-29 0 -48.5 17.5t-19.5 46.5z"/>
<glyph glyph-name="quotedblleft" horiz-adv-x="545" unicode="“" d="M256 511q0 -19 -8 -36.5t-21 -30t-30.5 -20t-36.5 -7.5q-39 0 -60.5 26.5t-21.5 63.5q0 39 18 78.5t46 75.5t61 65.5t64 48.5l45 -40q-18 -15 -37 -33t-35.5 -39t-29.5 -43t-21 -45q29 0 48 -17.5t19 -46.5zM494 511q0 -19 -8 -36.5t-21 -30t-30.5 -20t-36.5 -7.5 q-39 0 -60.5 26.5t-21.5 63.5q0 39 18 78.5t46 75.5t61 65.5t64 48.5l45 -40q-18 -15 -37 -33t-35.5 -39t-29.5 -43t-21 -45q29 0 48 -17.5t19 -46.5z"/>
<glyph glyph-name="quotedblright" horiz-adv-x="545" unicode="”" d="M360 676q0 20 8 37t21 29.5t30.5 20t36.5 7.5q39 0 60.5 -26t21.5 -63q0 -39 -18 -78.5t-45.5 -75.5t-61 -66t-64.5 -49l-45 41q37 29 72.5 71.5t50.5 87.5q-29 0 -48 17.5t-19 46.5zM121 676q0 20 8 37t21.5 29.5t31 20t36.5 7.5q39 0 60.5 -26t21.5 -63 q0 -39 -18 -78.5t-45.5 -75.5t-61 -66t-64.5 -49l-45 41q37 29 72.5 71.5t50.5 87.5q-29 0 -48.5 17.5t-19.5 46.5z"/>
<glyph glyph-name="dagger" horiz-adv-x="573" unicode="†" d="M540 410h-178l-94 -589h-135l93 589h-178l20 118h177l35 226h136l-35 -226h178z"/>
<glyph glyph-name="daggerdbl" horiz-adv-x="573" unicode="‡" d="M540 409h-178l-39 -240h178l-19 -119h-177l-37 -229h-135l35 229h-177l18 119h178l39 240h-178l20 119h177l35 226h136l-35 -226h178z"/>
<glyph glyph-name="ellipsis" horiz-adv-x="858" unicode="…" d="M194 81q0 -19 -8 -36.5t-22 -31t-32.5 -22t-38.5 -8.5q-33 0 -53.5 20t-20.5 53q0 20 8.5 37.5t22.5 31.5t32.5 22t37.5 8q35 0 54.5 -22t19.5 -52zM479 81q0 -19 -8 -36.5t-21.5 -31t-32 -22t-38.5 -8.5q-33 0 -53.5 20t-20.5 53q0 20 8.5 37.5t22.5 31.5t32.5 22 t37.5 8q35 0 54 -22t19 -52zM766 81q0 -19 -8 -36.5t-22 -31t-32.5 -22t-38.5 -8.5q-33 0 -53.5 20t-20.5 53q0 20 8.5 37.5t22.5 31.5t32.5 22t37.5 8q35 0 54.5 -22t19.5 -52z"/>
<glyph glyph-name="perthousand" horiz-adv-x="1229" unicode="‰" d="M683 212q0 36 -19 59.5t-49 23.5q-21 0 -39.5 -10.5t-32 -28.5t-21.5 -43t-8 -54q0 -38 18.5 -60.5t48.5 -22.5q22 0 40.5 11t32 29.5t21.5 43t8 52.5zM1096 212q0 36 -19 59.5t-49 23.5q-21 0 -39.5 -10.5t-32 -28.5t-21.5 -43t-8 -54q0 -38 19.5 -60.5t49.5 -22.5 q21 0 39.5 11t32 29.5t21 43t7.5 52.5zM313 595q0 36 -19 59t-49 23q-21 0 -39.5 -10.5t-32 -28.5t-21.5 -43t-8 -54q0 -38 19 -60.5t50 -22.5q21 0 39.5 11t32 30t21 43.5t7.5 52.5zM775 220q0 -47 -15 -89t-42 -73t-64.5 -49t-82.5 -18q-32 0 -59.5 10.5t-47.5 31 t-31.5 50t-11.5 67.5q0 48 15.5 90t43 73t65 49t80.5 18q68 0 109 -44t41 -116zM1190 220q0 -47 -15.5 -89t-42.5 -73t-64.5 -49t-82.5 -18q-31 0 -58.5 10.5t-48 31t-32 50t-11.5 67.5q0 48 15.5 90t43 73t65 49t80.5 18q34 0 61.5 -11.5t47.5 -32.5t31 -50.5t11 -65.5z M177 -3l-90 3l560 758l90 -3zM406 603q0 -47 -15.5 -89t-42.5 -73.5t-64.5 -49.5t-81.5 -18q-31 0 -59 10.5t-48 31t-32 50.5t-12 68q0 48 15.5 90t43 73t65 49t80.5 18q69 0 110 -44t41 -116z"/>
<glyph glyph-name="guilsinglleft" horiz-adv-x="341" unicode="‹" d="M150 254l99 -165l-93 -61l-129 227l201 226l73 -59z"/>
<glyph glyph-name="guilsinglright" horiz-adv-x="344" unicode="›" d="M102 28l-76 62l153 166l-97 167l91 58l130 -226z"/>
<glyph glyph-name="trademark" horiz-adv-x="497" unicode="™" d="M439 516l3 131h-3l-72 -132h-32l-27 131h-4l-38 -130h-61l79 238h55l27 -131h3l73 131h54l2 -238h-59zM224 700h-51l-28 -184h-60l29 184h-51l9 54h161z"/>
</font>
</defs>
</svg>
